<svg width="20" height="19" viewBox="0 0 20 19" fill="none" xmlns="http://www.w3.org/2000/svg">
<rect x="0.109863" width="19" height="19" rx="9.5" fill="#09755D"/>
<path fill-rule="evenodd" clip-rule="evenodd" d="M4.85986 6.17476C4.85986 5.38775 5.49786 4.74976 6.28486 4.74976H7.8425C8.25141 4.74976 8.61444 5.01141 8.74375 5.39934L9.45521 7.53372C9.60472 7.98223 9.40167 8.47242 8.97882 8.68385L8.33446 9.00603C8.7556 9.74162 9.368 10.354 10.1036 10.7752L10.4258 10.1308C10.6372 9.70795 11.1274 9.5049 11.5759 9.65441L13.7103 10.3659C14.0982 10.4952 14.3599 10.8582 14.3599 11.2671V12.8248C14.3599 13.6118 13.7219 14.2498 12.9349 14.2498H12.4599C8.2625 14.2498 4.85986 10.8471 4.85986 6.64976V6.17476ZM6.28486 5.69976C6.02253 5.69976 5.80986 5.91242 5.80986 6.17476V6.64976C5.80986 10.3225 8.78717 13.2998 12.4599 13.2998H12.9349C13.1972 13.2998 13.4099 13.0871 13.4099 12.8248V11.2671L11.2755 10.5557L10.7394 11.6279C10.6254 11.8559 10.3517 11.9532 10.1193 11.8485C8.85244 11.2773 7.83235 10.2572 7.26117 8.99033C7.15639 8.75793 7.25375 8.48425 7.48177 8.37024L8.55396 7.83414L7.8425 5.69976H6.28486Z" fill="white"/>
</svg>
