<svg width="20" height="19" viewBox="0 0 20 19" fill="none" xmlns="http://www.w3.org/2000/svg">
<rect x="0.109863" width="19" height="19" rx="9.5" fill="#09755D"/>
<path fill-rule="evenodd" clip-rule="evenodd" d="M4.85986 6.64985C4.85986 5.86285 5.49786 5.22485 6.28486 5.22485H12.9349C13.7219 5.22485 14.3599 5.86285 14.3599 6.64985V10.4499C14.3599 11.2369 13.7219 11.8749 12.9349 11.8749H10.7566L8.52074 14.1107C8.38489 14.2466 8.18058 14.2872 8.00309 14.2137C7.82559 14.1402 7.70986 13.967 7.70986 13.7749V11.8749H6.28486C5.49786 11.8749 4.85986 11.2369 4.85986 10.4499V6.64985ZM6.28486 6.17485C6.02253 6.17485 5.80986 6.38752 5.80986 6.64985V10.4499C5.80986 10.7122 6.02253 10.9249 6.28486 10.9249H8.18486C8.4472 10.9249 8.65986 11.1375 8.65986 11.3999V12.6281L10.224 11.064C10.3131 10.9749 10.4339 10.9249 10.5599 10.9249H12.9349C13.1972 10.9249 13.4099 10.7122 13.4099 10.4499V6.64985C13.4099 6.38752 13.1972 6.17485 12.9349 6.17485H6.28486ZM7.23486 8.54985C7.23486 8.28752 7.44753 8.07485 7.70986 8.07485H7.71461C7.97695 8.07485 8.18961 8.28752 8.18961 8.54985C8.18961 8.81219 7.97695 9.02485 7.71461 9.02485H7.70986C7.44753 9.02485 7.23486 8.81219 7.23486 8.54985ZM9.13486 8.54985C9.13486 8.28752 9.34753 8.07485 9.60986 8.07485H9.61461C9.87695 8.07485 10.0896 8.28752 10.0896 8.54985C10.0896 8.81219 9.87695 9.02485 9.61461 9.02485H9.60986C9.34753 9.02485 9.13486 8.81219 9.13486 8.54985ZM11.0349 8.54985C11.0349 8.28752 11.2475 8.07485 11.5099 8.07485H11.5146C11.777 8.07485 11.9896 8.28752 11.9896 8.54985C11.9896 8.81219 11.777 9.02485 11.5146 9.02485H11.5099C11.2475 9.02485 11.0349 8.81219 11.0349 8.54985Z" fill="white"/>
</svg>
