<svg width="20" height="19" viewBox="0 0 20 19" fill="none" xmlns="http://www.w3.org/2000/svg">
<rect x="0.109863" width="19" height="19" rx="9.5" fill="#09755D"/>
<path fill-rule="evenodd" clip-rule="evenodd" d="M9.87291 5.97143C9.71336 5.86506 9.5055 5.86506 9.34594 5.97143L6.02094 8.18809C5.96108 8.228 5.91205 8.28027 5.87631 8.34027L9.34594 10.6534C9.5055 10.7597 9.71336 10.7597 9.87291 10.6534L13.3425 8.34027C13.3068 8.28027 13.2578 8.228 13.1979 8.18809L9.87291 5.97143ZM14.3571 8.50221C14.3318 8.05675 14.0987 7.64687 13.7249 7.39765L10.3999 5.18098C9.92122 4.86187 9.29764 4.86187 8.81898 5.18098L5.49398 7.39765C5.12013 7.64688 4.88708 8.05675 4.86173 8.50221C4.8597 8.52248 4.85899 8.5428 4.85957 8.56305C4.85947 8.5698 4.85943 8.57656 4.85943 8.58332V12.8249C4.85943 13.6119 5.49742 14.2499 6.28443 14.2499H12.9344C13.7214 14.2499 14.3594 13.6119 14.3594 12.8249V8.58332C14.3594 8.57656 14.3594 8.5698 14.3593 8.56305C14.3599 8.54281 14.3592 8.52248 14.3571 8.50221ZM13.4094 9.43744L11.5345 10.6874L13.4094 11.9373V9.43744ZM13.3562 13.0436L10.6782 11.2583L10.3999 11.4438C9.92122 11.7629 9.29764 11.7629 8.81898 11.4438L8.54068 11.2583L5.86267 13.0436C5.94179 13.1959 6.10096 13.2999 6.28443 13.2999H12.9344C13.1179 13.2999 13.2771 13.1959 13.3562 13.0436ZM5.80943 11.9373L7.68436 10.6874L5.80943 9.43744V11.9373Z" fill="white"/>
</svg>
