<svg width="18" height="18" viewBox="0 0 18 18" fill="none" xmlns="http://www.w3.org/2000/svg">
<path d="M7.5 9L9 10.5L12 7.5M16.5 9C16.5 9.88642 16.3254 10.7642 15.9862 11.5831C15.647 12.4021 15.1498 13.1462 14.523 13.773C13.8962 14.3998 13.1521 14.897 12.3331 15.2362C11.5142 15.5754 10.6364 15.75 9.75 15.75C8.86358 15.75 7.98583 15.5754 7.16689 15.2362C6.34794 14.897 5.60382 14.3998 4.97703 13.773C4.35023 13.1462 3.85303 12.4021 3.51381 11.5831C3.17459 10.7642 3 9.88642 3 9C3 7.20979 3.71116 5.4929 4.97703 4.22703C6.2429 2.96116 7.95979 2.25 9.75 2.25C11.5402 2.25 13.2571 2.96116 14.523 4.22703C15.7888 5.4929 16.5 7.20979 16.5 9Z" stroke="#09755D" stroke-width="2" stroke-linecap="round" stroke-linejoin="round"/>
</svg>
