<svg width="11" height="7" viewBox="0 0 11 7" fill="none" xmlns="http://www.w3.org/2000/svg">
<path fill-rule="evenodd" clip-rule="evenodd" d="M0.321677 0.804675C0.527709 0.617581 0.80711 0.512477 1.09844 0.512477C1.38977 0.512477 1.66917 0.617581 1.8752 0.804675L5.49313 4.09106L9.11106 0.804675C9.21241 0.709357 9.33365 0.633328 9.46769 0.581024C9.60173 0.52872 9.7459 0.501189 9.89178 0.500038C10.0377 0.498886 10.1823 0.524137 10.3174 0.574317C10.4524 0.624497 10.575 0.698601 10.6782 0.792305C10.7814 0.886009 10.8629 0.997437 10.9182 1.12009C10.9734 1.24274 11.0012 1.37415 11 1.50666C10.9987 1.63918 10.9684 1.77013 10.9108 1.89189C10.8532 2.01365 10.7695 2.12377 10.6646 2.21583L6.26989 6.2078C6.06386 6.3949 5.78446 6.5 5.49313 6.5C5.2018 6.5 4.9224 6.3949 4.71637 6.2078L0.321677 2.21583C0.115707 2.02868 0 1.77489 0 1.51026C0 1.24562 0.115707 0.991826 0.321677 0.804675Z" fill="black"/>
</svg>
