<svg width="24" height="24" viewBox="0 0 24 24" fill="none" xmlns="http://www.w3.org/2000/svg">
<path d="M23.993 0H0.00703125C0.003148 0 0 0.003148 0 0.00703125V23.993C0 23.9969 0.003148 24 0.00703125 24H23.993C23.9969 24 24 23.9969 24 23.993V0.00703125C24 0.003148 23.9969 0 23.993 0Z" fill="#00B900"/>
<path d="M20.7656 10.8281C20.6719 12.9375 19.7812 14.3906 18.375 15.6562C15.8906 17.8594 11.9531 20.5781 11.4375 20.1562C10.9219 19.5 12.4219 17.9531 10.5 17.7188C6.375 17.1562 3.23438 14.25 3.23438 10.8281C3.23438 6.98438 7.21875 3.79688 12.0469 3.79688C16.875 3.79688 20.9062 6.98438 20.7656 10.8281Z" fill="white"/>
<path fill-rule="evenodd" clip-rule="evenodd" d="M11.4694 8.7206C11.6703 8.65361 11.8916 8.72274 12.0188 8.89222L13.6641 11.086V9.18753C13.6641 8.9157 13.8844 8.69534 14.1562 8.69534C14.4281 8.69534 14.6484 8.9157 14.6484 9.18753V12.5625C14.6484 12.7744 14.5129 12.9625 14.3119 13.0295C14.1109 13.0965 13.8896 13.0273 13.7625 12.8579L12.1172 10.6641V12.5625C12.1172 12.8344 11.8968 13.0547 11.625 13.0547C11.3532 13.0547 11.1328 12.8344 11.1328 12.5625V9.18753C11.1328 8.97568 11.2684 8.7876 11.4694 8.7206ZM6.89062 8.69534C7.16245 8.69534 7.38281 8.9157 7.38281 9.18753V12.0703H8.625C8.89683 12.0703 9.11719 12.2907 9.11719 12.5625C9.11719 12.8344 8.89683 13.0547 8.625 13.0547H6.89062C6.6188 13.0547 6.39844 12.8344 6.39844 12.5625V9.18753C6.39844 8.9157 6.6188 8.69534 6.89062 8.69534ZM9.98438 8.69534C10.2562 8.69534 10.4766 8.9157 10.4766 9.18753V12.5625C10.4766 12.8344 10.2562 13.0547 9.98438 13.0547C9.71255 13.0547 9.49219 12.8344 9.49219 12.5625V9.18753C9.49219 8.9157 9.71255 8.69534 9.98438 8.69534ZM15.2109 9.18753C15.2109 8.9157 15.4313 8.69534 15.7031 8.69534H17.3906C17.6625 8.69534 17.8828 8.9157 17.8828 9.18753C17.8828 9.45936 17.6625 9.67972 17.3906 9.67972H16.1953V10.3828H17.3906C17.6625 10.3828 17.8828 10.6032 17.8828 10.875C17.8828 11.1469 17.6625 11.3672 17.3906 11.3672H16.1953V12.0703H17.3906C17.6625 12.0703 17.8828 12.2907 17.8828 12.5625C17.8828 12.8344 17.6625 13.0547 17.3906 13.0547H15.7031C15.4313 13.0547 15.2109 12.8344 15.2109 12.5625V9.18753Z" fill="#00B900"/>
</svg>
