<svg width="24" height="24" viewBox="0 0 24 24" fill="none" xmlns="http://www.w3.org/2000/svg">
<rect width="24" height="24" fill="#09755D"/>
<path d="M10.3333 9.49984C10.3333 9.27882 10.2455 9.06686 10.0893 8.91058C9.93298 8.7543 9.72101 8.6665 9.5 8.6665H5.33333C5.11232 8.6665 4.90036 8.7543 4.74408 8.91058C4.5878 9.06686 4.5 9.27882 4.5 9.49984V14.4998C4.5 14.7209 4.5878 14.9328 4.74408 15.0891C4.90036 15.2454 5.11232 15.3332 5.33333 15.3332H9.5C9.72101 15.3332 9.93298 15.2454 10.0893 15.0891C10.2455 14.9328 10.3333 14.7209 10.3333 14.4998" stroke="white" stroke-width="2" stroke-linecap="round" stroke-linejoin="round"/>
<path d="M13.6665 14.4998C13.6665 14.7209 13.7543 14.9328 13.9106 15.0891C14.0669 15.2454 14.2788 15.3332 14.4998 15.3332H18.6665C18.8875 15.3332 19.0995 15.2454 19.2558 15.0891C19.412 14.9328 19.4998 14.7209 19.4998 14.4998V9.49984C19.4998 9.27882 19.412 9.06686 19.2558 8.91058C19.0995 8.7543 18.8875 8.6665 18.6665 8.6665H14.4998C14.2788 8.6665 14.0669 8.7543 13.9106 8.91058C13.7543 9.06686 13.6665 9.27882 13.6665 9.49984" stroke="white" stroke-width="2" stroke-linecap="round" stroke-linejoin="round"/>
<path d="M8.6665 12H15.3332" stroke="white" stroke-width="2" stroke-linecap="round" stroke-linejoin="round"/>
</svg>
