<?xml version="1.0" standalone="no"?>
<!DOCTYPE svg PUBLIC "-//W3C//DTD SVG 1.1//EN" "http://www.w3.org/Graphics/SVG/1.1/DTD/svg11.dtd" >
<svg xmlns="http://www.w3.org/2000/svg">
<metadata>Generated by IcoMoon</metadata>
<defs>
<font id="icomoon" horiz-adv-x="1024">
<font-face units-per-em="1024" ascent="960" descent="-64" />
<missing-glyph horiz-adv-x="1024" />
<glyph unicode="&#x20;" horiz-adv-x="512" d="" />
<glyph unicode="&#xe900;" glyph-name="globe-alt" d="M173.307 490.667h143.323c3.958 93.518 20.826 178.917 47.142 244.708 3.468 8.669 7.144 17.109 11.032 25.266-107.767-47.359-186.388-148.805-201.498-269.975zM512 874.667c235.639 0 426.667-191.025 426.667-426.667 0-235.639-191.027-426.667-426.667-426.667-235.642 0-426.667 191.027-426.667 426.667 0 235.642 191.025 426.667 426.667 426.667zM512 789.333c-5.696 0-15.437-2.71-28.787-16.826-13.436-14.207-27.503-37.054-40.209-68.824-21.73-54.323-37.048-128.584-40.957-213.016h219.905c-3.908 84.433-19.226 158.694-40.956 213.016-12.706 31.77-26.773 54.617-40.209 68.824-13.35 14.116-23.091 16.826-28.787 16.826zM707.366 490.667h143.326c-15.108 121.17-93.73 222.616-201.498 269.975 3.887-8.158 7.565-16.598 11.034-25.267 26.313-65.791 43.183-151.191 47.138-244.708zM621.952 405.333h-219.905c3.909-84.433 19.227-158.694 40.957-213.018 12.706-31.77 26.773-54.618 40.209-68.821 13.35-14.118 23.091-16.828 28.787-16.828s15.437 2.709 28.787 16.828c13.436 14.204 27.503 37.052 40.209 68.821 21.73 54.323 37.047 128.585 40.956 213.018zM649.195 135.36c107.767 47.356 186.389 148.804 201.498 269.973h-143.326c-3.955-93.517-20.826-178.918-47.138-244.71-3.469-8.666-7.147-17.105-11.034-25.263zM374.805 135.36c-3.888 8.158-7.564 16.597-11.032 25.263-26.316 65.792-43.184 151.194-47.142 244.71h-143.323c15.11-121.169 93.73-222.618 201.498-269.973z" />
<glyph unicode="&#xe901;" glyph-name="wifi" d="M934.387 529.045c-233.276 233.273-611.486 233.273-844.759 0-16.662-16.661-43.677-16.661-60.34 0s-16.662 43.677 0 60.34c266.598 266.598 698.84 266.598 965.438 0 16.661-16.663 16.661-43.677 0-60.34-16.666-16.661-43.678-16.661-60.339 0zM783.539 378.193c-149.965 149.965-393.099 149.965-543.060 0-16.662-16.661-43.677-16.661-60.34 0-16.662 16.666-16.662 43.678 0 60.343 183.286 183.284 480.451 183.284 663.739 0 16.661-16.666 16.661-43.678 0-60.343-16.666-16.661-43.678-16.661-60.339 0zM647.77 229.931c-74.978 74.982-196.548 74.982-271.527 0-16.663-16.661-43.677-16.661-60.34 0-16.662 16.666-16.662 43.678 0 60.339 108.305 108.305 283.901 108.305 392.207 0 16.666-16.661 16.666-43.674 0-60.339-16.661-16.661-43.674-16.661-60.339 0zM469.342 106.667c0 23.565 19.102 42.667 42.667 42.667h0.427c23.561 0 42.667-19.102 42.667-42.667s-19.106-42.667-42.667-42.667h-0.427c-23.565 0-42.667 19.102-42.667 42.667z" />
<glyph unicode="&#xe902;" glyph-name="save-as" d="M597.333 874.667c23.565 0 42.667-19.103 42.667-42.667v-280.994l55.164 55.164c16.661 16.662 43.678 16.662 60.339 0s16.661-43.677 0-60.34l-128-128c-16.661-16.661-43.678-16.661-60.339 0l-128 128c-16.663 16.663-16.663 43.677 0 60.34 16.661 16.662 43.678 16.662 60.339 0l55.164-55.164v280.994c0 23.564 19.102 42.667 42.667 42.667zM256 661.333c0 70.692 57.308 128 128 128h42.667c23.565 0 42.667-19.103 42.667-42.667s-19.102-42.667-42.667-42.667h-42.667c-23.564 0-42.667-19.103-42.667-42.667v-298.667c0-23.565 19.103-42.667 42.667-42.667h426.667c23.565 0 42.667 19.102 42.667 42.667v298.667c0 23.564-19.102 42.667-42.667 42.667h-42.667c-23.565 0-42.667 19.103-42.667 42.667s19.102 42.667 42.667 42.667h42.667c70.694 0 128-57.308 128-128v-298.667c0-70.694-57.306-128-128-128h-42.667v-42.667c0-70.694-57.306-128-128-128h-426.667c-70.692 0-128 57.306-128 128v298.667c0 70.692 57.308 128 128 128h42.667v42.667zM256 533.333h-42.667c-23.564 0-42.667-19.102-42.667-42.667v-298.667c0-23.565 19.103-42.667 42.667-42.667h426.667c23.565 0 42.667 19.102 42.667 42.667v42.667h-298.667c-70.692 0-128 57.306-128 128v170.667z" />
<glyph unicode="&#xe903;" glyph-name="server" d="M85.333 704c0 70.692 57.308 128 128 128h597.333c70.694 0 128-57.308 128-128v-170.667c0-32.785-12.326-62.686-32.593-85.333 20.267-22.647 32.593-52.548 32.593-85.333v-170.667c0-70.694-57.306-128-128-128h-597.333c-70.692 0-128 57.306-128 128v170.667c0 32.785 12.324 62.686 32.593 85.333-20.269 22.647-32.593 52.548-32.593 85.333v170.667zM213.333 405.333c-23.564 0-42.667-19.102-42.667-42.667v-170.667c0-23.565 19.103-42.667 42.667-42.667h597.333c23.565 0 42.667 19.102 42.667 42.667v170.667c0 23.565-19.102 42.667-42.667 42.667h-597.333zM810.667 490.667c23.565 0 42.667 19.102 42.667 42.667v170.667c0 23.564-19.102 42.667-42.667 42.667h-597.333c-23.564 0-42.667-19.103-42.667-42.667v-170.667c0-23.565 19.103-42.667 42.667-42.667h597.333zM682.667 618.667c0 23.564 19.102 42.667 42.667 42.667h0.427c23.565 0 42.667-19.103 42.667-42.667s-19.102-42.667-42.667-42.667h-0.427c-23.565 0-42.667 19.103-42.667 42.667zM682.667 277.333c0 23.565 19.102 42.667 42.667 42.667h0.427c23.565 0 42.667-19.102 42.667-42.667s-19.102-42.667-42.667-42.667h-0.427c-23.565 0-42.667 19.102-42.667 42.667z" />
<glyph unicode="&#xe904;" glyph-name="folder-open" d="M213.333 704c-23.564 0-42.667-19.103-42.667-42.667v-426.667c0-23.565 19.103-42.667 42.667-42.667s42.667 19.102 42.667 42.667v213.333c0 70.694 57.308 128 128 128h298.667c0 23.564-19.102 42.667-42.667 42.667h-188.339l-85.334 85.333h-152.994zM384 490.667c-23.564 0-42.667-19.102-42.667-42.667v-213.333c0-14.959-2.566-29.321-7.284-42.667h476.617c23.565 0 42.667 19.102 42.667 42.667v213.333c0 23.565-19.102 42.667-42.667 42.667h-426.667zM213.333 106.667c-70.692 0-128 57.306-128 128v426.667c0 70.692 57.308 128 128 128h188.34l85.333-85.333h152.994c70.694 0 128-57.308 128-128h42.667c70.694 0 128-57.306 128-128v-213.333c0-70.694-57.306-128-128-128h-597.333z" />
<glyph unicode="&#xe905;" glyph-name="cloud-download" d="M469.333 832c-94.257 0-170.667-76.41-170.667-170.667 0-12.923 1.428-25.461 4.12-37.484 5.146-22.988-9.312-45.796-32.298-50.952-57.149-12.819-99.822-63.927-99.822-124.898 0-70.694 57.308-128 128-128 23.564 0 42.667-19.102 42.667-42.667s-19.103-42.667-42.667-42.667c-117.821 0-213.333 95.514-213.333 213.333 0 87.741 52.938 163.042 128.591 195.825-0.392 5.789-0.591 11.628-0.591 17.508 0 141.385 114.615 256 256 256 112.085 0 207.275-71.998 241.975-172.251 127.902-14.239 227.358-122.713 227.358-254.416 0-123.9-87.979-227.157-204.847-250.88-23.091-4.689-45.611 10.231-50.3 33.327-4.689 23.091 10.231 45.615 33.327 50.3 77.879 15.812 136.486 84.736 136.486 167.253 0 94.257-76.412 170.667-170.667 170.667-1.143 0-2.283-0.011-3.422-0.034-20.608-0.403-38.558 13.981-42.654 34.179-15.795 77.899-84.727 136.521-167.258 136.521zM512 576c23.565 0 42.667-19.103 42.667-42.667v-408.994l55.164 55.164c16.661 16.661 43.678 16.661 60.339 0s16.661-43.678 0-60.339l-128-128c-16.661-16.661-43.678-16.661-60.339 0l-128 128c-16.662 16.661-16.662 43.678 0 60.339s43.677 16.661 60.34 0l55.163-55.164v408.994c0 23.564 19.102 42.667 42.667 42.667z" />
<glyph unicode="&#xe906;" glyph-name="cube" d="M492.919 870.162c12.011 6.006 26.15 6.006 38.161 0l341.333-170.667c14.455-7.227 23.586-22.001 23.586-38.162v-426.667c0-16.162-9.131-30.933-23.586-38.161l-341.333-170.667c-12.011-6.007-26.15-6.007-38.161 0l-341.334 170.667c-14.455 7.228-23.586 21.999-23.586 38.161v426.667c0 16.161 9.131 30.935 23.586 38.162l341.334 170.667zM213.333 592.297v-331.263l256-128v331.264l-256 127.999zM554.667 133.035l256 128v331.263l-256-127.999v-331.264zM512 538.369l245.926 122.964-245.926 122.964-245.928-122.964 245.928-122.964z" />
<glyph unicode="&#xe907;" glyph-name="finger-print" d="M319.97 823.268c56.525 32.698 122.159 51.398 192.030 51.398 212.079 0 384-171.923 384-384 0-109.513-15.292-215.522-43.883-315.977-6.451-22.665-30.054-35.806-52.719-29.359-22.665 6.451-35.806 30.054-29.355 52.719 26.449 92.932 40.623 191.083 40.623 292.617 0 164.949-133.717 298.667-298.667 298.667-54.473 0-105.415-14.543-149.302-39.93-20.397-11.799-46.498-4.829-58.297 15.568s-4.829 46.497 15.568 58.297zM237.696 698.266c20.397-11.799 27.367-37.9 15.568-58.297-25.387-43.886-39.93-94.831-39.93-149.302 0-73.357-16.86-142.895-46.956-204.847-10.297-21.197-35.826-30.029-57.021-19.733s-30.031 35.827-19.734 57.020c24.573 50.586 38.377 107.401 38.377 167.561 0 69.872 18.701 135.506 51.399 192.031 11.799 20.397 37.9 27.367 58.297 15.568zM298.663 490.667c0 117.821 95.513 213.333 213.332 213.333s213.333-95.513 213.333-213.333c0-45.333-3.085-89.993-9.067-133.773-3.187-23.347-24.7-39.689-48.047-36.501s-39.689 24.7-36.501 48.047c5.461 39.97 8.282 80.772 8.282 122.227 0 70.692-57.306 128-128 128-70.69 0-127.999-57.308-127.999-128 0-125.252-35.851-241.741-97.798-340.215-0.599-0.951-1.183-1.907-1.753-2.867-12.032-20.262-38.211-26.931-58.472-14.899-20.26 12.036-26.93 38.212-14.897 58.475 0.941 1.583 1.905 3.162 2.891 4.727v0c53.636 85.265 84.695 186.069 84.695 294.78zM511.996 533.333c23.565 0 42.667-19.102 42.667-42.667 0-158.34-45.44-306.197-124.006-431.091-12.546-19.947-38.886-25.941-58.832-13.397-19.946 12.548-25.944 38.891-13.397 58.837 70.258 111.684 110.902 243.857 110.902 385.651 0 23.565 19.102 42.667 42.667 42.667zM658.901 275.721c22.673-6.417 35.853-29.999 29.436-52.672-16.879-59.652-39.253-117.018-66.543-171.486-10.556-21.069-36.19-29.594-57.259-19.038s-29.589 36.19-19.034 57.259c24.909 49.719 45.325 102.071 60.727 156.501 6.417 22.673 29.999 35.853 52.672 29.436z" />
<glyph unicode="&#xe908;" glyph-name="chevron-double-up" d="M481.83 819.503c16.661 16.662 43.678 16.662 60.339 0l298.667-298.667c16.661-16.661 16.661-43.678 0-60.339s-43.678-16.661-60.339 0l-268.497 268.496-268.497-268.496c-16.663-16.661-43.677-16.661-60.34 0s-16.662 43.678 0 60.339l298.667 298.667zM512 387.661l268.497-268.497c16.661-16.661 43.678-16.661 60.339 0s16.661 43.678 0 60.339l-298.667 298.667c-16.661 16.661-43.678 16.661-60.339 0l-298.667-298.667c-16.662-16.661-16.662-43.678 0-60.339s43.677-16.661 60.34 0l268.497 268.497z" />
<glyph unicode="&#xe909;" glyph-name="chevron-double-left" d="M499.503 776.837c16.661-16.663 16.661-43.677 0-60.34l-268.497-268.497 268.497-268.497c16.661-16.661 16.661-43.678 0-60.339s-43.678-16.661-60.339 0l-298.667 298.667c-16.662 16.661-16.662 43.678 0 60.339l298.667 298.667c16.661 16.662 43.678 16.662 60.339 0zM840.836 776.837c16.661-16.663 16.661-43.677 0-60.34l-268.497-268.497 268.497-268.497c16.661-16.661 16.661-43.678 0-60.339s-43.678-16.661-60.339 0l-298.667 298.667c-16.661 16.661-16.661 43.678 0 60.339l298.667 298.667c16.661 16.662 43.678 16.662 60.339 0z" />
<glyph unicode="&#xe90a;" glyph-name="chevron-double-down" d="M183.163 776.837c16.663 16.662 43.677 16.662 60.34 0l268.497-268.497 268.497 268.497c16.661 16.662 43.678 16.662 60.339 0s16.661-43.677 0-60.34l-298.667-298.666c-8-8-18.854-12.497-30.17-12.497s-22.17 4.497-30.17 12.497l-298.667 298.666c-16.662 16.663-16.662 43.677 0 60.34zM183.163 435.503c16.663 16.661 43.677 16.661 60.34 0l268.497-268.497 268.497 268.497c16.661 16.661 43.678 16.661 60.339 0s16.661-43.678 0-60.339l-298.667-298.667c-16.661-16.661-43.678-16.661-60.339 0l-298.667 298.667c-16.662 16.661-16.662 43.678 0 60.339z" />
<glyph unicode="&#xe90b;" glyph-name="chevron-double-right" d="M183.163 776.837c16.663 16.662 43.677 16.662 60.34 0l298.666-298.667c8-8 12.497-18.854 12.497-30.17s-4.497-22.17-12.497-30.17l-298.666-298.667c-16.663-16.661-43.677-16.661-60.34 0s-16.662 43.678 0 60.339l268.497 268.497-268.497 268.497c-16.662 16.663-16.662 43.677 0 60.34zM524.497 776.837c16.661 16.662 43.678 16.662 60.339 0l298.667-298.667c16.661-16.661 16.661-43.678 0-60.339l-298.667-298.667c-16.661-16.661-43.678-16.661-60.339 0s-16.661 43.678 0 60.339l268.497 268.497-268.497 268.497c-16.661 16.663-16.661 43.677 0 60.34z" />
<glyph unicode="&#xe90c;" glyph-name="device-mobile" d="M213.333 746.667c0 70.692 57.308 128 128 128h341.333c70.694 0 128-57.308 128-128v-597.333c0-70.694-57.306-128-128-128h-341.333c-70.692 0-128 57.306-128 128v597.333zM341.333 789.333c-23.564 0-42.667-19.103-42.667-42.667v-597.333c0-23.565 19.103-42.667 42.667-42.667h341.333c23.565 0 42.667 19.102 42.667 42.667v597.333c0 23.564-19.102 42.667-42.667 42.667h-341.333zM469.333 192c0 23.565 19.102 42.667 42.667 42.667h0.427c23.565 0 42.667-19.102 42.667-42.667s-19.102-42.667-42.667-42.667h-0.427c-23.565 0-42.667 19.102-42.667 42.667z" />
<glyph unicode="&#xe90d;" glyph-name="logout-1" d="M256 746.667c-47.128 0-85.333-38.205-85.333-85.333v-426.667c0-47.13 38.205-85.333 85.333-85.333h170.667c47.13 0 85.333 38.204 85.333 85.333v42.667c0 23.565 19.102 42.667 42.667 42.667s42.667-19.102 42.667-42.667v-42.667c0-94.255-76.412-170.667-170.667-170.667h-170.667c-94.257 0-170.667 76.412-170.667 170.667v426.667c0 94.257 76.41 170.667 170.667 170.667h170.667c94.255 0 170.667-76.41 170.667-170.667v-42.667c0-23.564-19.102-42.667-42.667-42.667s-42.667 19.103-42.667 42.667v42.667c0 47.128-38.204 85.333-85.333 85.333h-170.667zM695.164 648.837c16.661 16.662 43.678 16.662 60.339 0l170.667-170.667c16.661-16.661 16.661-43.678 0-60.339l-170.667-170.667c-16.661-16.661-43.678-16.661-60.339 0s-16.661 43.678 0 60.339l97.83 97.83h-494.327c-23.564 0-42.667 19.102-42.667 42.667s19.103 42.667 42.667 42.667h494.327l-97.83 97.83c-16.661 16.663-16.661 43.677 0 60.34z" />
<glyph unicode="&#xe90e;" glyph-name="database" d="M289.722 743.851c54.682 27.341 133.209 45.483 222.278 45.483 89.071 0 167.595-18.142 222.276-45.483 57.237-28.617 76.39-60.256 76.39-82.517s-19.153-53.9-76.39-82.517c-54.682-27.341-133.205-45.483-222.276-45.483-89.069 0-167.596 18.142-222.278 45.483-57.233 28.617-76.389 60.256-76.389 82.517s19.155 53.9 76.389 82.517zM810.667 524.774v-76.774c0-22.259-19.153-53.901-76.39-82.517-54.682-27.341-133.205-45.483-222.276-45.483-89.069 0-167.596 18.142-222.278 45.483-57.233 28.617-76.389 60.258-76.389 82.517v76.774c12.127-8.235 24.996-15.667 38.226-22.285 68.857-34.428 160.996-54.49 260.44-54.49s191.582 20.062 260.442 54.49c13.227 6.618 26.099 14.050 38.225 22.285zM896 661.333c0 71.996-57.254 125.689-123.558 158.842-68.86 34.429-160.998 54.492-260.442 54.492s-191.583-20.063-260.44-54.492c-66.305-33.152-123.56-86.846-123.56-158.842v-426.667c0-71.996 57.255-125.687 123.56-158.844 68.857-34.428 160.996-54.49 260.44-54.49s191.582 20.062 260.442 54.49c66.304 33.156 123.558 86.848 123.558 158.844v426.667zM810.667 311.441v-76.774c0-22.259-19.153-53.901-76.39-82.517-54.682-27.341-133.205-45.483-222.276-45.483-89.069 0-167.596 18.142-222.278 45.483-57.233 28.617-76.389 60.258-76.389 82.517v76.774c12.127-8.235 24.996-15.667 38.226-22.285 68.857-34.428 160.996-54.49 260.44-54.49s191.582 20.062 260.442 54.49c13.227 6.618 26.099 14.050 38.225 22.285z" />
<glyph unicode="&#xe90f;" glyph-name="film" d="M85.333 746.667c0 47.128 38.205 85.333 85.333 85.333h682.667c47.13 0 85.333-38.205 85.333-85.333v-597.333c0-47.13-38.204-85.333-85.333-85.333h-682.667c-47.128 0-85.333 38.204-85.333 85.333v597.333zM256 746.667h-85.333v-85.333h85.333v85.333zM341.333 746.667v-256h341.333v256h-341.333zM768 746.667v-85.333h85.333v85.333h-85.333zM853.333 576h-85.333v-85.333h85.333v85.333zM853.333 405.333h-85.333v-85.333h85.333v85.333zM853.333 234.667h-85.333v-85.333h85.333v85.333zM682.667 149.333v256h-341.333v-256h341.333zM256 149.333v85.333h-85.333v-85.333h85.333zM170.667 320h85.333v85.333h-85.333v-85.333zM170.667 490.667h85.333v85.333h-85.333v-85.333z" />
<glyph unicode="&#xe910;" glyph-name="music-note" d="M922.257 865.63c10.355-8.085 16.41-20.492 16.41-33.63v-169.774c0.013-0.618 0.013-1.235 0-1.85v-383.043c0-42.27-25.698-75.311-56.491-95.842-31.087-20.723-71.582-32.158-114.176-32.158s-83.089 11.435-114.176 32.158c-30.793 20.531-56.491 53.572-56.491 95.842s25.698 75.311 56.491 95.842c31.087 20.723 71.582 32.158 114.176 32.158 30.4 0 59.729-5.824 85.333-16.691v218.045l-426.667-106.668v-350.686c0-42.27-25.698-75.311-56.49-95.842-31.090-20.723-71.582-32.158-114.177-32.158s-83.087 11.435-114.177 32.158c-30.792 20.531-56.49 53.572-56.49 95.842s25.698 75.311 56.49 95.842c31.090 20.723 71.582 32.158 114.177 32.158 30.4 0 59.729-5.824 85.333-16.691v271.799c-0.013 0.619-0.013 1.234 0 1.848v169.71c0 19.578 13.325 36.644 32.319 41.393l512.001 128c12.745 3.187 26.249 0.323 36.604-7.763zM426.667 587.98l426.667 106.667v82.707l-426.667-106.667v-82.707zM341.333 149.333c0 4.86-2.956 14.481-18.491 24.841-15.237 10.155-38.745 17.826-66.842 17.826s-51.605-7.671-66.842-17.826c-15.535-10.359-18.491-19.981-18.491-24.841s2.956-14.481 18.491-24.841c15.237-10.155 38.745-17.826 66.842-17.826s51.605 7.671 66.842 17.826c15.535 10.359 18.491 19.981 18.491 24.841zM853.333 277.333c0 4.86-2.957 14.481-18.492 24.841-15.236 10.155-38.746 17.826-66.842 17.826s-51.605-7.671-66.842-17.826c-15.535-10.359-18.492-19.981-18.492-24.841s2.957-14.481 18.492-24.841c15.236-10.155 38.746-17.826 66.842-17.826s51.605 7.671 66.842 17.826c15.535 10.359 18.492 19.981 18.492 24.841z" />
<glyph unicode="&#xe911;" glyph-name="backspace" d="M371.503 751.843c24.005 24.005 56.563 37.49 90.508 37.49h348.655c70.694 0 128-57.308 128-128v-426.667c0-70.694-57.306-128-128-128h-348.655c-33.946 0-66.504 13.487-90.508 37.491l-273.673 273.673c-8.001 8-12.497 18.854-12.497 30.17s4.495 22.17 12.497 30.17l273.673 273.673zM462.012 704c-11.315 0-22.165-4.495-30.17-12.497l-243.503-243.503 243.503-243.503c8.004-8 18.854-12.497 30.17-12.497h348.655c23.565 0 42.667 19.102 42.667 42.667v426.667c0 23.564-19.102 42.667-42.667 42.667h-348.655zM481.83 563.503c16.661 16.662 43.678 16.662 60.339 0l55.164-55.164 55.164 55.164c16.661 16.662 43.678 16.662 60.339 0s16.661-43.678 0-60.34l-55.164-55.164 55.164-55.164c16.661-16.661 16.661-43.678 0-60.339s-43.678-16.661-60.339 0l-55.164 55.164-55.164-55.164c-16.661-16.661-43.678-16.661-60.339 0s-16.661 43.678 0 60.339l55.164 55.164-55.164 55.164c-16.661 16.661-16.661 43.677 0 60.34z" />
<glyph unicode="&#xe912;" glyph-name="paper-airplane" d="M512 874.667c16.162 0 30.933-9.131 38.161-23.586l384-768c7.364-14.72 5.598-32.363-4.531-45.338s-26.816-18.965-42.884-15.394l-374.746 83.277-374.744-83.277c-16.068-3.571-32.756 2.419-42.886 15.394s-11.893 30.618-4.532 45.338l384.001 768c7.228 14.455 21.999 23.586 38.161 23.586zM554.667 183.561l263.083-58.462-305.749 611.496-305.748-611.496 263.082 58.462v307.106c0 23.565 19.102 42.667 42.667 42.667s42.667-19.102 42.667-42.667v-307.106z" />
<glyph unicode="&#xe913;" glyph-name="save" d="M512 832c23.565 0 42.667-19.103 42.667-42.667v-323.661l55.164 55.164c16.661 16.663 43.678 16.663 60.339 0 16.661-16.661 16.661-43.678 0-60.339l-128-128c-16.661-16.661-43.678-16.661-60.339 0l-128 128c-16.662 16.661-16.662 43.678 0 60.339 16.663 16.663 43.677 16.663 60.34 0l55.163-55.164v323.661c0 23.564 19.102 42.667 42.667 42.667zM85.333 576c0 70.692 57.308 128 128 128h128c23.564 0 42.667-19.103 42.667-42.667s-19.103-42.667-42.667-42.667h-128c-23.564 0-42.667-19.103-42.667-42.667v-384c0-23.565 19.103-42.667 42.667-42.667h597.333c23.565 0 42.667 19.102 42.667 42.667v384c0 23.564-19.102 42.667-42.667 42.667h-128c-23.565 0-42.667 19.103-42.667 42.667s19.102 42.667 42.667 42.667h128c70.694 0 128-57.308 128-128v-384c0-70.694-57.306-128-128-128h-597.333c-70.692 0-128 57.306-128 128v384z" />
<glyph unicode="&#xe914;" glyph-name="scissors" d="M298.667 746.667c-47.128 0-85.333-38.205-85.333-85.333s38.205-85.333 85.333-85.333c23.576 0 44.851 9.504 60.34 24.994s24.994 36.764 24.994 60.34c0 47.128-38.205 85.333-85.333 85.333zM128 661.333c0 94.257 76.41 170.667 170.667 170.667s170.667-76.41 170.667-170.667c0-31.632-8.631-61.286-23.637-86.691l66.304-66.303 268.497 268.497c16.661 16.662 43.678 16.662 60.339 0s16.661-43.677 0-60.34l-395.14-395.14c15.006-25.404 23.637-55.057 23.637-86.69 0-94.255-76.41-170.667-170.667-170.667s-170.667 76.412-170.667 170.667c0 94.255 76.41 170.667 170.667 170.667 31.632 0 61.286-8.631 86.691-23.637l66.303 66.304-66.303 66.304c-25.405-15.006-55.059-23.637-86.691-23.637-94.257 0-170.667 76.41-170.667 170.667zM298.667 320c-47.128 0-85.333-38.204-85.333-85.333s38.205-85.333 85.333-85.333c47.128 0 85.333 38.204 85.333 85.333 0 23.578-9.504 44.851-24.994 60.339s-36.764 24.994-60.34 24.994zM572.339 387.661c16.661 16.661 43.678 16.661 60.339 0l208.158-208.158c16.661-16.661 16.661-43.678 0-60.339s-43.678-16.661-60.339 0l-208.158 208.158c-16.661 16.661-16.661 43.678 0 60.339z" />
<glyph unicode="&#xe915;" glyph-name="cloud-upload" d="M469.333 832c-94.257 0-170.667-76.41-170.667-170.667 0-12.923 1.428-25.461 4.12-37.484 5.146-22.988-9.312-45.796-32.298-50.952-57.149-12.819-99.822-63.927-99.822-124.898 0-70.694 57.308-128 128-128 23.564 0 42.667-19.102 42.667-42.667s-19.103-42.667-42.667-42.667c-117.821 0-213.333 95.514-213.333 213.333 0 87.741 52.938 163.042 128.591 195.825-0.392 5.789-0.591 11.628-0.591 17.508 0 141.385 114.615 256 256 256 112.085 0 207.275-71.998 241.975-172.251 127.902-14.239 227.358-122.713 227.358-254.416 0-123.9-87.979-227.157-204.847-250.88-23.091-4.689-45.611 10.231-50.3 33.327-4.689 23.091 10.231 45.615 33.327 50.3 77.879 15.812 136.486 84.736 136.486 167.253 0 94.257-76.412 170.667-170.667 170.667-1.143 0-2.283-0.011-3.422-0.034-20.608-0.403-38.558 13.981-42.654 34.179-15.795 77.899-84.727 136.521-167.258 136.521zM481.83 563.503c16.661 16.662 43.678 16.662 60.339 0l128-128c16.661-16.661 16.661-43.678 0-60.339s-43.678-16.661-60.339 0l-55.164 55.164v-408.994c0-23.565-19.102-42.667-42.667-42.667s-42.667 19.102-42.667 42.667v408.994l-55.163-55.164c-16.663-16.661-43.677-16.661-60.34 0s-16.662 43.678 0 60.339l128 128z" />
<glyph unicode="&#xe916;" glyph-name="rss" d="M213.333 746.667c0 23.564 19.103 42.667 42.667 42.667 329.899 0 597.333-267.435 597.333-597.333 0-23.565-19.102-42.667-42.667-42.667s-42.667 19.102-42.667 42.667c0 282.769-229.231 512-512 512-23.564 0-42.667 19.103-42.667 42.667zM213.333 490.667c0 23.565 19.103 42.667 42.667 42.667 188.514 0 341.333-152.819 341.333-341.333 0-23.565-19.102-42.667-42.667-42.667s-42.667 19.102-42.667 42.667c0 141.385-114.615 256-256 256-23.564 0-42.667 19.102-42.667 42.667zM170.667 192c0 47.13 38.205 85.333 85.333 85.333s85.333-38.204 85.333-85.333c0-47.13-38.205-85.333-85.333-85.333s-85.333 38.204-85.333 85.333z" />
<glyph unicode="&#xe917;" glyph-name="identification" d="M384 746.667c0 70.692 57.306 128 128 128s128-57.308 128-128h170.667c70.694 0 128-57.308 128-128v-384c0-70.694-57.306-128-128-128h-597.333c-70.692 0-128 57.306-128 128v384c0 70.692 57.308 128 128 128h170.667zM391.284 661.333h-177.95c-23.564 0-42.667-19.103-42.667-42.667v-384c0-23.565 19.103-42.667 42.667-42.667h597.333c23.565 0 42.667 19.102 42.667 42.667v384c0 23.564-19.102 42.667-42.667 42.667h-177.95c-17.57-49.715-64.986-85.333-120.717-85.333s-103.145 35.619-120.716 85.333zM512 789.333c-23.565 0-42.667-19.103-42.667-42.667v-42.667c0-23.564 19.102-42.667 42.667-42.667s42.667 19.103 42.667 42.667v42.667c0 23.564-19.102 42.667-42.667 42.667zM384 490.667c-23.564 0-42.667-19.102-42.667-42.667s19.103-42.667 42.667-42.667c23.564 0 42.667 19.102 42.667 42.667s-19.103 42.667-42.667 42.667zM486.409 371.2c16.068 21.393 25.591 47.983 25.591 76.8 0 70.694-57.306 128-128 128-70.692 0-128-57.306-128-128 0-28.817 9.521-55.407 25.59-76.8-26.644-20.019-47.228-47.654-58.537-79.65-7.852-22.217 3.792-46.592 26.010-54.443 22.217-7.855 46.594 3.789 54.446 26.010 11.735 33.199 43.402 56.883 80.491 56.883 37.087 0 68.753-23.684 80.486-56.883 7.851-22.221 32.23-33.865 54.447-26.010 22.217 7.851 33.86 32.226 26.010 54.443-11.307 31.996-31.893 59.627-58.534 79.65zM597.333 490.667c0 23.565 19.102 42.667 42.667 42.667h128c23.565 0 42.667-19.102 42.667-42.667s-19.102-42.667-42.667-42.667h-128c-23.565 0-42.667 19.102-42.667 42.667zM597.333 320c0 23.565 19.102 42.667 42.667 42.667h85.333c23.565 0 42.667-19.102 42.667-42.667s-19.102-42.667-42.667-42.667h-85.333c-23.565 0-42.667 19.102-42.667 42.667z" />
<glyph unicode="&#xe918;" glyph-name="map" d="M620.919 827.496c12.011 6.006 26.15 6.006 38.161 0l232.414-116.207c28.911-14.455 47.172-44.003 47.172-76.324v-459.263c0-63.433-66.756-104.691-123.494-76.322l-175.172 87.586-236.919-118.46c-12.012-6.007-26.15-6.007-38.162 0l-232.415 116.207c-28.91 14.455-47.171 44.002-47.171 76.322v459.263c0 63.435 66.757 104.693 123.496 76.324l175.171-87.586 236.919 118.46zM341.333 634.964l-170.667 85.333v-459.263l170.667-85.333v459.263zM426.667 175.701l170.667 85.333v459.263l-170.667-85.333v-459.263zM682.667 720.297v-459.263l170.667-85.333v459.263l-170.667 85.333z" />
<glyph unicode="&#xe919;" glyph-name="device-tablet" d="M170.667 746.667c0 70.692 57.308 128 128 128h426.667c70.694 0 128-57.308 128-128v-597.333c0-70.694-57.306-128-128-128h-426.667c-70.692 0-128 57.306-128 128v597.333zM298.667 789.333c-23.564 0-42.667-19.103-42.667-42.667v-597.333c0-23.565 19.103-42.667 42.667-42.667h426.667c23.565 0 42.667 19.102 42.667 42.667v597.333c0 23.564-19.102 42.667-42.667 42.667h-426.667zM469.333 192c0 23.565 19.102 42.667 42.667 42.667h0.427c23.565 0 42.667-19.102 42.667-42.667s-19.102-42.667-42.667-42.667h-0.427c-23.565 0-42.667 19.102-42.667 42.667z" />
<glyph unicode="&#xe91a;" glyph-name="document-text" d="M298.667 789.333c-23.564 0-42.667-19.103-42.667-42.667v-597.333c0-23.565 19.102-42.667 42.667-42.667h426.667c23.565 0 42.667 19.102 42.667 42.667v408.994l-231.006 231.006h-238.327zM170.667 746.667c0 70.692 57.308 128 128 128h238.327c22.63 0 44.335-8.99 60.339-24.994l231.006-231.006c16.004-16.003 24.994-37.708 24.994-60.34v-408.994c0-70.694-57.306-128-128-128h-426.667c-70.692 0-128 57.306-128 128v597.333zM341.333 448c0 23.565 19.103 42.667 42.667 42.667h256c23.565 0 42.667-19.102 42.667-42.667s-19.102-42.667-42.667-42.667h-256c-23.564 0-42.667 19.102-42.667 42.667zM341.333 277.333c0 23.565 19.103 42.667 42.667 42.667h256c23.565 0 42.667-19.102 42.667-42.667s-19.102-42.667-42.667-42.667h-256c-23.564 0-42.667 19.102-42.667 42.667z" />
<glyph unicode="&#xe91b;" glyph-name="folder-remove" d="M213.333 704c-23.564 0-42.667-19.103-42.667-42.667v-426.667c0-23.565 19.103-42.667 42.667-42.667h597.333c23.565 0 42.667 19.102 42.667 42.667v341.333c0 23.564-19.102 42.667-42.667 42.667h-256c-11.315 0-22.17 4.495-30.17 12.497l-72.836 72.837h-238.327zM85.333 661.333c0 70.692 57.308 128 128 128h256c11.315 0 22.17-4.495 30.17-12.497l72.836-72.837h238.327c70.694 0 128-57.308 128-128v-341.333c0-70.694-57.306-128-128-128h-597.333c-70.692 0-128 57.306-128 128v426.667zM341.333 405.333c0 23.565 19.103 42.667 42.667 42.667h256c23.565 0 42.667-19.102 42.667-42.667s-19.102-42.667-42.667-42.667h-256c-23.564 0-42.667 19.102-42.667 42.667z" />
<glyph unicode="&#xe91c;" glyph-name="folder-add" d="M213.333 704c-23.564 0-42.667-19.103-42.667-42.667v-426.667c0-23.565 19.103-42.667 42.667-42.667h597.333c23.565 0 42.667 19.102 42.667 42.667v341.333c0 23.564-19.102 42.667-42.667 42.667h-256c-11.315 0-22.17 4.495-30.17 12.497l-72.836 72.837h-238.327zM85.333 661.333c0 70.692 57.308 128 128 128h256c11.315 0 22.17-4.495 30.17-12.497l72.836-72.837h238.327c70.694 0 128-57.308 128-128v-341.333c0-70.694-57.306-128-128-128h-597.333c-70.692 0-128 57.306-128 128v426.667zM512 576c23.565 0 42.667-19.103 42.667-42.667v-85.333h85.333c23.565 0 42.667-19.102 42.667-42.667s-19.102-42.667-42.667-42.667h-85.333v-85.333c0-23.565-19.102-42.667-42.667-42.667s-42.667 19.102-42.667 42.667v85.333h-85.333c-23.564 0-42.667 19.102-42.667 42.667s19.103 42.667 42.667 42.667h85.333v85.333c0 23.564 19.102 42.667 42.667 42.667z" />
<glyph unicode="&#xe91d;" glyph-name="folder-download" d="M213.333 704c-23.564 0-42.667-19.103-42.667-42.667v-426.667c0-23.565 19.103-42.667 42.667-42.667h597.333c23.565 0 42.667 19.102 42.667 42.667v341.333c0 23.564-19.102 42.667-42.667 42.667h-256c-11.315 0-22.17 4.495-30.17 12.497l-72.836 72.837h-238.327zM85.333 661.333c0 70.692 57.308 128 128 128h256c11.315 0 22.17-4.495 30.17-12.497l72.836-72.837h238.327c70.694 0 128-57.308 128-128v-341.333c0-70.694-57.306-128-128-128h-597.333c-70.692 0-128 57.306-128 128v426.667zM512 576c23.565 0 42.667-19.103 42.667-42.667v-152.994l55.164 55.164c16.661 16.661 43.678 16.661 60.339 0s16.661-43.678 0-60.339l-128-128c-16.661-16.661-43.678-16.661-60.339 0l-128 128c-16.662 16.661-16.662 43.678 0 60.339s43.677 16.661 60.34 0l55.163-55.164v152.994c0 23.564 19.102 42.667 42.667 42.667z" />
<glyph unicode="&#xe91e;" glyph-name="puzzle" d="M426.667 789.333c0 70.692 57.306 128 128 128s128-57.308 128-128v-42.667h128c47.13 0 85.333-38.205 85.333-85.333v-128c0-47.13-38.204-85.333-85.333-85.333h-42.667c-23.565 0-42.667-19.102-42.667-42.667s19.102-42.667 42.667-42.667h42.667c47.13 0 85.333-38.204 85.333-85.333v-128c0-47.13-38.204-85.333-85.333-85.333h-128c-47.13 0-85.333 38.204-85.333 85.333v42.667c0 23.565-19.102 42.667-42.667 42.667s-42.667-19.102-42.667-42.667v-42.667c0-47.13-38.204-85.333-85.333-85.333h-128c-47.128 0-85.333 38.204-85.333 85.333v128h-42.667c-70.692 0-128 57.306-128 128s57.308 128 128 128h42.667v128c0 47.128 38.205 85.333 85.333 85.333h128v42.667zM554.667 832c-23.565 0-42.667-19.103-42.667-42.667v-42.667c0-47.128-38.204-85.333-85.333-85.333h-128v-128c0-47.13-38.205-85.333-85.333-85.333h-42.667c-23.564 0-42.667-19.102-42.667-42.667s19.103-42.667 42.667-42.667h42.667c47.128 0 85.333-38.204 85.333-85.333v-128h128v42.667c0 70.694 57.306 128 128 128s128-57.306 128-128v-42.667h128v128h-42.667c-70.694 0-128 57.306-128 128s57.306 128 128 128h42.667v128h-128c-47.13 0-85.333 38.205-85.333 85.333v42.667c0 23.564-19.102 42.667-42.667 42.667z" />
<glyph unicode="&#xe91f;" glyph-name="arrows-expand" d="M128 789.333c0 23.564 19.103 42.667 42.667 42.667h170.667c23.564 0 42.667-19.103 42.667-42.667s-19.103-42.667-42.667-42.667h-67.66l140.497-140.497c16.661-16.663 16.661-43.677 0-60.34-16.663-16.661-43.677-16.661-60.34 0l-140.497 140.497v-67.66c0-23.564-19.103-42.667-42.667-42.667s-42.667 19.103-42.667 42.667v170.667zM682.667 832h170.667c23.565 0 42.667-19.103 42.667-42.667v-170.667c0-23.564-19.102-42.667-42.667-42.667s-42.667 19.103-42.667 42.667v67.66l-140.497-140.497c-16.661-16.661-43.678-16.661-60.339 0-16.661 16.663-16.661 43.677 0 60.34l140.497 140.497h-67.661c-23.565 0-42.667 19.103-42.667 42.667s19.102 42.667 42.667 42.667zM414.17 350.17c16.661-16.661 16.661-43.678 0-60.339l-140.497-140.497h67.66c23.564 0 42.667-19.102 42.667-42.667s-19.103-42.667-42.667-42.667h-170.667c-23.564 0-42.667 19.102-42.667 42.667v170.667c0 23.565 19.103 42.667 42.667 42.667s42.667-19.102 42.667-42.667v-67.661l140.497 140.497c16.663 16.661 43.677 16.661 60.34 0zM609.83 350.17c16.661 16.661 43.678 16.661 60.339 0l140.497-140.497v67.661c0 23.565 19.102 42.667 42.667 42.667s42.667-19.102 42.667-42.667v-170.667c0-23.565-19.102-42.667-42.667-42.667h-170.667c-23.565 0-42.667 19.102-42.667 42.667s19.102 42.667 42.667 42.667h67.661l-140.497 140.497c-16.661 16.661-16.661 43.678 0 60.339z" />
<glyph unicode="&#xe920;" glyph-name="hand" d="M490.667 789.333c-11.78 0-21.333-9.551-21.333-21.333v-277.333c0-23.565-19.102-42.667-42.667-42.667s-42.667 19.102-42.667 42.667v234.667c0 11.782-9.551 21.333-21.333 21.333s-21.333-9.551-21.333-21.333v-362.667c0-23.565-19.103-42.667-42.667-42.667s-42.667 19.102-42.667 42.667v106.667c0 11.78-9.551 21.333-21.333 21.333s-21.333-9.553-21.333-21.333v-85.333c0-153.169 124.166-277.333 277.333-277.333 153.169 0 277.333 124.164 277.333 277.333v213.333c0 11.782-9.553 21.333-21.333 21.333s-21.333-9.551-21.333-21.333v-106.667c0-23.565-19.102-42.667-42.667-42.667s-42.667 19.102-42.667 42.667v234.667c0 11.782-9.553 21.333-21.333 21.333s-21.333-9.551-21.333-21.333v-234.667c0-23.565-19.102-42.667-42.667-42.667s-42.667 19.102-42.667 42.667v277.333c0 11.782-9.553 21.333-21.333 21.333zM580.791 825.080c11.772 4.471 24.538 6.92 37.875 6.92 58.91 0 106.667-47.756 106.667-106.667v-23.467c6.895 1.399 14.029 2.134 21.333 2.134 58.91 0 106.667-47.756 106.667-106.667v-213.333c0-200.294-162.372-362.667-362.667-362.667s-362.667 162.372-362.667 362.667v85.333c0 58.91 47.756 106.667 106.667 106.667 7.306 0 14.441-0.735 21.333-2.134v151.467c0 58.91 47.756 106.667 106.667 106.667 13.338 0 26.105-2.448 37.875-6.92 18.916 29.805 52.212 49.586 90.125 49.586s71.211-19.782 90.125-49.586z" />
<glyph unicode="&#xe921;" glyph-name="thumb-down" d="M372.739 789.333c-16.161 0-30.935-9.131-38.162-23.586l-149.333-298.667c-14.185-28.369 6.445-61.747 38.162-61.747h288.594c23.565 0 42.667-19.102 42.667-42.667s-19.102-42.667-42.667-42.667h-42.667v-170.667c0-23.565 19.102-42.667 42.667-42.667 0.777 37.478 12.271 73.988 33.092 105.225l137.574 206.362v337.767l-128.158 32.039c-3.383 0.846-6.857 1.274-10.347 1.274h-171.423zM768 746.667v-341.333h42.667c23.565 0 42.667 19.102 42.667 42.667v256c0 23.564-19.102 42.667-42.667 42.667h-42.667zM719.723 320l-103.629-155.443c-12.233-18.351-18.761-39.91-18.761-61.965 0-44.877-36.382-81.259-81.259-81.259h-4.075c-70.69 0-128 57.306-128 128v170.667h-160.594c-95.153 0-157.040 100.134-114.487 185.242l149.333 298.668c21.682 43.364 66.004 70.757 114.487 70.757h171.423c10.466 0 20.89-1.283 31.044-3.822l155.379-38.845h80.081c70.694 0 128-57.307 128-128v-256c0-70.694-57.306-128-128-128h-90.944z" />
<glyph unicode="&#xe922;" glyph-name="thumb-up" d="M426.667 793.407c0-22.054-6.528-43.613-18.761-61.963l-103.629-155.444h-90.943c-70.692 0-128-57.306-128-128v-256c0-70.694 57.308-128 128-128h80.081l155.38-38.844c10.155-2.539 20.578-3.823 31.044-3.823h171.422c48.482 0 92.804 27.392 114.487 70.758l149.333 298.667c42.556 85.107-19.332 185.242-114.487 185.242h-160.593v170.667c0 70.692-57.306 128-128 128h-4.075c-44.877 0-81.259-36.381-81.259-81.26zM256 490.667v-341.333h-42.667c-23.564 0-42.667 19.102-42.667 42.667v256c0 23.565 19.103 42.667 42.667 42.667h42.667zM341.333 139.981v337.766l137.574 206.362c20.826 31.236 32.277 67.747 33.050 105.224 23.565 0 42.709-19.103 42.709-42.667v-170.667h-42.667c-23.565 0-42.667-19.103-42.667-42.667s19.102-42.667 42.667-42.667h288.593c31.718 0 52.348-33.378 38.165-61.747l-149.333-298.667c-7.228-14.455-22.003-23.586-38.165-23.586h-171.422c-3.49 0-6.963 0.427-10.347 1.276l-128.158 32.038z" />
<glyph unicode="&#xe923;" glyph-name="shopping-bag" d="M298.667 661.333v-42.667h-85.333c-22.191 0-40.676-17.009-42.519-39.123l-42.667-512.002c-0.991-11.887 3.043-23.65 11.121-32.431s19.466-13.777 31.398-13.777h682.667c11.934 0 23.317 4.996 31.398 13.777 8.077 8.781 12.113 20.544 11.119 32.431l-42.667 512.002c-1.839 22.114-20.326 39.123-42.517 39.123h-85.333v42.667c0 117.821-95.514 213.333-213.333 213.333s-213.333-95.513-213.333-213.333zM298.667 533.333v-42.667c0-23.565 19.103-42.667 42.667-42.667s42.667 19.102 42.667 42.667v42.667h256v-42.667c0-23.565 19.102-42.667 42.667-42.667s42.667 19.102 42.667 42.667v42.667h46.076l35.554-426.667h-589.926l35.556 426.667h46.074zM640 618.667h-256v42.667c0 70.692 57.306 128 128 128s128-57.308 128-128v-42.667z" />
<glyph unicode="&#xe924;" glyph-name="fire" d="M484.651 865.243c16.93 13.62 41.391 12.343 56.811-2.967 39.714-39.435 80.388-67.087 121.587-94.263 2.637-1.741 5.286-3.485 7.949-5.236 37.961-24.983 77.862-51.244 112.533-85.914 74.97-74.972 112.469-173.319 112.469-271.529 0-98.206-37.5-196.557-112.469-271.526-149.965-149.965-393.098-149.965-543.060 0-74.972 74.97-112.471 173.321-112.471 271.526 0 98.21 37.498 196.557 112.471 271.53 10.158 10.157 24.745 14.522 38.812 11.612 13.96-2.888 25.548-12.553 30.898-25.751l0.019-0.044 0.020-0.052 0.037-0.093zM310.181 662.724l0.019-0.044c0.070-0.163 0.246-0.567 0.534-1.19 0.577-1.247 1.598-3.356 3.115-6.149 3.041-5.599 8.016-13.843 15.308-23.335 4.897-6.375 10.81-13.277 17.859-20.31-4.214-28.518-5.681-55.201-5.681-78.361h42.667l19.081 38.162c-23.757 11.879-42.133 26.296-56.067 40.199 12.241 82.84 47.66 181.158 137.635 253.547zM511.232 773.958c-68.378-72.141-84.565-168.984-84.565-240.623 0-14.786-7.655-28.521-20.233-36.294s-28.286-8.482-41.513-1.869c-46.249 23.125-78.171 53.439-99.109 79.359-34.99-50.772-52.478-109.943-52.478-169.198 0-76.501 29.151-152.862 87.477-211.187 116.637-116.638 305.743-116.638 422.377 0 58.33 58.325 87.479 134.686 87.479 211.187s-29.15 152.863-87.479 211.19c-28.301 28.302-61.338 50.078-101.163 76.326-1.971 1.3-3.959 2.611-5.965 3.934-32.64 21.533-68.548 45.625-104.828 77.175zM310.291 662.45c0 0 0 0 0 0zM472.205 504.337c5.884 17.404 22.251 29.085 40.623 28.996 43.337-0.209 86.746-16.879 119.851-49.984 33.318-33.318 49.988-77.069 49.988-120.683 0-43.61-16.67-87.36-49.988-120.678-66.65-66.65-174.707-66.65-241.358 0-33.316 33.318-49.987 77.069-49.987 120.678 0 23.565 19.101 42.667 42.665 42.667h54.721l33.485 99.004zM541.47 442.786l-31.723-93.786c-5.858-17.331-22.118-28.996-40.414-28.996l-31.27-0.004c3.657-6.315 8.188-12.258 13.598-17.673 33.323-33.323 87.356-33.323 120.678 0 16.67 16.67 24.994 38.434 24.994 60.339s-8.324 43.669-24.994 60.343c-9.054 9.050-19.61 15.642-30.869 19.776z" />
<glyph unicode="&#xe925;" glyph-name="stop" d="M512 789.333c-188.513 0-341.333-152.82-341.333-341.333s152.82-341.333 341.333-341.333c188.514 0 341.333 152.819 341.333 341.333s-152.819 341.333-341.333 341.333zM85.333 448c0 235.642 191.025 426.667 426.667 426.667 235.639 0 426.667-191.025 426.667-426.667 0-235.639-191.027-426.667-426.667-426.667-235.642 0-426.667 191.027-426.667 426.667zM341.333 533.333c0 47.128 38.205 85.333 85.333 85.333h170.667c47.13 0 85.333-38.205 85.333-85.333v-170.667c0-47.13-38.204-85.333-85.333-85.333h-170.667c-47.128 0-85.333 38.204-85.333 85.333v170.667zM597.333 533.333h-170.667v-170.667h170.667v170.667z" />
<glyph unicode="&#xe926;" glyph-name="chat-alt-2" d="M85.333 704c0 70.692 57.308 128 128 128h426.667c70.694 0 128-57.308 128-128v-42.667h42.667c70.694 0 128-57.308 128-128v-256c0-70.694-57.306-128-128-128h-42.667v-128c0-17.259-10.394-32.815-26.338-39.42s-34.295-2.953-46.498 9.25l-158.17 158.17h-152.994c-19.745 0-38.467 4.489-55.178 12.484-12.203-12.194-30.546-15.838-46.483-9.237-15.944 6.605-26.339 22.161-26.339 39.42v128h-42.667c-70.692 0-128 57.306-128 128v256zM401.673 234.667h152.994c11.315 0 22.17-4.497 30.17-12.497l97.83-97.83v67.661c0 23.565 19.102 42.667 42.667 42.667h85.333c23.565 0 42.667 19.102 42.667 42.667v256c0 23.564-19.102 42.667-42.667 42.667h-42.667v-128c0-70.694-57.306-128-128-128h-152.994l-85.333-85.333zM682.667 704c0 23.564-19.102 42.667-42.667 42.667h-426.667c-23.564 0-42.667-19.103-42.667-42.667v-256c0-23.565 19.103-42.667 42.667-42.667h85.333c23.564 0 42.667-19.102 42.667-42.667v-67.661l97.83 97.83c8 8 18.854 12.497 30.17 12.497h170.667c23.565 0 42.667 19.102 42.667 42.667v256z" />
<glyph unicode="&#xe927;" glyph-name="desktop-computer" d="M85.333 746.667v-426.667c0-70.694 57.308-128 128-128h148.020l-15.88-63.522-34.31-34.308c-12.202-12.203-15.853-30.554-9.249-46.498s22.162-26.338 39.419-26.338h341.333c17.259 0 32.815 10.394 39.42 26.338s2.953 34.295-9.25 46.498l-34.308 34.308-15.881 63.522h148.019c70.694 0 128 57.306 128 128v426.667c0 70.692-57.306 128-128 128h-597.333c-70.692 0-128-57.308-128-128zM170.667 362.667h682.667v-42.667c0-23.565-19.102-42.667-42.667-42.667h-201.711c-0.614 0.013-1.229 0.013-1.847 0h-190.216c-0.618 0.013-1.235 0.013-1.85 0h-201.71c-23.564 0-42.667 19.102-42.667 42.667v42.667zM853.333 448h-682.667v298.667c0 23.564 19.103 42.667 42.667 42.667h597.333c23.565 0 42.667-19.103 42.667-42.667v-298.667zM574.686 192l21.333-85.333h-168.038l21.333 85.333h125.372z" />
<glyph unicode="&#xe928;" glyph-name="library" d="M494.673 870.989c11.029 4.903 23.625 4.903 34.654 0l384-170.667c21.534-9.57 31.232-34.784 21.662-56.318s-34.782-31.231-56.316-21.661l-366.673 162.965-366.671-162.965c-21.533-9.571-46.747 0.128-56.318 21.661s0.128 46.748 21.661 56.318l384.001 170.667zM85.334 533.333c0 23.564 19.102 42.667 42.667 42.667h768c23.565 0 42.667-19.103 42.667-42.667s-19.102-42.667-42.667-42.667v-384c23.565 0 42.667-19.102 42.667-42.667s-19.102-42.667-42.667-42.667h-768c-23.564 0-42.667 19.102-42.667 42.667s19.102 42.667 42.667 42.667v384c-23.564 0-42.667 19.102-42.667 42.667zM213.334 490.667v-384h597.333v384h-597.333zM341.334 405.333c23.564 0 42.667-19.102 42.667-42.667v-128c0-23.565-19.103-42.667-42.667-42.667s-42.667 19.102-42.667 42.667v128c0 23.565 19.102 42.667 42.667 42.667zM512 405.333c23.565 0 42.667-19.102 42.667-42.667v-128c0-23.565-19.102-42.667-42.667-42.667s-42.667 19.102-42.667 42.667v128c0 23.565 19.102 42.667 42.667 42.667zM682.667 405.333c23.565 0 42.667-19.102 42.667-42.667v-128c0-23.565-19.102-42.667-42.667-42.667s-42.667 19.102-42.667 42.667v128c0 23.565 19.102 42.667 42.667 42.667z" />
<glyph unicode="&#xe929;" glyph-name="eye-off" d="M97.83 862.17c16.663 16.662 43.677 16.662 60.34 0l129.719-129.719c66.627 36.275 143.019 56.883 224.128 56.883 210.219 0 388.049-138.174 447.842-328.55 2.615-8.324 2.615-17.246 0-25.57-27.849-88.666-81.25-165.922-151.531-223.202l117.841-117.841c16.661-16.661 16.661-43.678 0-60.339s-43.678-16.661-60.339 0l-768 768c-16.662 16.663-16.662 43.677 0 60.34zM351.421 668.918l73.888-73.888c25.405 15.005 55.058 23.636 86.691 23.636 94.255 0 170.667-76.41 170.667-170.667 0-31.633-8.631-61.286-23.637-86.69l88.576-88.576c57.472 44.715 101.875 105.382 126.575 175.266-52.723 149.186-195.021 256-362.163 256-57.382 0-111.76-12.563-160.596-35.082zM594.449 425.89c1.882 7.049 2.884 14.46 2.884 22.11 0 47.13-38.204 85.333-85.333 85.333-7.65 0-15.061-1.003-22.11-2.884l104.559-104.559zM197.328 611.252c18.79-14.22 22.495-40.98 8.276-59.77-23.578-31.154-42.497-65.991-55.747-103.482 52.724-149.184 195.022-256 362.164-256 24.653 0 48.725 2.317 72.026 6.737 23.151 4.39 45.478-10.82 49.869-33.971s-10.82-45.478-33.971-49.869c-28.514-5.406-57.911-8.23-87.923-8.23-210.217 0-388.049 138.176-447.842 328.55-2.614 8.324-2.614 17.246 0 25.57 16.295 51.878 41.34 99.852 73.379 142.19 14.22 18.79 40.98 22.495 59.77 8.275z" />
<glyph unicode="&#xe92a;" glyph-name="chart-square-bar" d="M128 704c0 70.692 57.308 128 128 128h512c70.694 0 128-57.308 128-128v-512c0-70.694-57.306-128-128-128h-512c-70.692 0-128 57.306-128 128v512zM256 746.667c-23.564 0-42.667-19.103-42.667-42.667v-512c0-23.565 19.103-42.667 42.667-42.667h512c23.565 0 42.667 19.102 42.667 42.667v512c0 23.564-19.102 42.667-42.667 42.667h-512zM682.667 661.333c23.565 0 42.667-19.103 42.667-42.667v-341.333c0-23.565-19.102-42.667-42.667-42.667s-42.667 19.102-42.667 42.667v341.333c0 23.564 19.102 42.667 42.667 42.667zM512 533.333c23.565 0 42.667-19.102 42.667-42.667v-213.333c0-23.565-19.102-42.667-42.667-42.667s-42.667 19.102-42.667 42.667v213.333c0 23.565 19.102 42.667 42.667 42.667zM341.333 405.333c23.564 0 42.667-19.102 42.667-42.667v-85.333c0-23.565-19.103-42.667-42.667-42.667s-42.667 19.102-42.667 42.667v85.333c0 23.565 19.103 42.667 42.667 42.667z" />
<glyph unicode="&#xe92b;" glyph-name="star" d="M430.844 848.317c25.549 78.614 136.768 78.614 162.313 0l64.802-199.42 209.685-0.008c82.662-0.003 117.030-105.778 50.159-154.369l-169.634-123.255 64.789-199.424c25.54-78.618-64.439-143.987-131.315-95.407l-169.643 123.247-169.643-123.247c-66.876-48.585-156.853 16.789-131.313 95.407l64.788 199.424-169.634 123.255c-66.873 48.591-32.504 154.366 50.157 154.369l209.685 0.008 64.803 199.42zM512 821.944l-64.802-199.42c-11.426-35.156-44.188-58.959-81.154-58.961l-209.685-0.008 169.635-123.256c29.905-21.73 42.419-60.245 30.997-95.403l-64.789-199.424 169.644 123.243c29.909 21.73 70.404 21.73 100.309 0l169.643-123.243-64.785 199.424c-11.422 35.162 1.092 73.673 30.997 95.403l169.634 123.256-209.685 0.008c-36.966 0.001-69.73 23.804-81.152 58.961l-64.806 199.42z" />
<glyph unicode="&#xe92c;" glyph-name="terminal" d="M85.333 704c0 70.692 57.308 128 128 128h597.333c70.694 0 128-57.308 128-128v-512c0-70.694-57.306-128-128-128h-597.333c-70.692 0-128 57.306-128 128v512zM213.333 746.667c-23.564 0-42.667-19.103-42.667-42.667v-512c0-23.565 19.103-42.667 42.667-42.667h597.333c23.565 0 42.667 19.102 42.667 42.667v512c0 23.564-19.102 42.667-42.667 42.667h-597.333zM311.163 606.17c16.663 16.662 43.677 16.662 60.34 0l128-128c16.661-16.661 16.661-43.678 0-60.339l-128-128c-16.663-16.661-43.677-16.661-60.34 0s-16.662 43.678 0 60.339l97.83 97.83-97.83 97.83c-16.662 16.663-16.662 43.677 0 60.34zM512 320c0 23.565 19.102 42.667 42.667 42.667h128c23.565 0 42.667-19.102 42.667-42.667s-19.102-42.667-42.667-42.667h-128c-23.565 0-42.667 19.102-42.667 42.667z" />
<glyph unicode="&#xe92d;" glyph-name="chart-bar" d="M597.333 746.667c0 70.692 57.306 128 128 128h85.333c70.694 0 128-57.308 128-128v-597.333c0-70.694-57.306-128-128-128h-85.333c-32.785 0-62.686 12.326-85.333 32.593-22.647-20.267-52.548-32.593-85.333-32.593h-85.333c-32.785 0-62.688 12.326-85.333 32.593-22.645-20.267-52.55-32.593-85.333-32.593h-85.333c-70.692 0-128 57.306-128 128v256c0 70.694 57.308 128 128 128h85.333c14.961 0 29.321-2.569 42.667-7.283v49.95c0 70.692 57.308 128 128 128h85.333c14.959 0 29.321-2.566 42.667-7.284v49.95zM682.667 149.333c0-23.565 19.102-42.667 42.667-42.667h85.333c23.565 0 42.667 19.102 42.667 42.667v597.333c0 23.564-19.102 42.667-42.667 42.667h-85.333c-23.565 0-42.667-19.103-42.667-42.667v-597.333zM597.333 576c0 23.564-19.102 42.667-42.667 42.667h-85.333c-23.565 0-42.667-19.103-42.667-42.667v-426.667c0-23.565 19.102-42.667 42.667-42.667h85.333c23.565 0 42.667 19.102 42.667 42.667v426.667zM341.333 405.333c0 23.565-19.103 42.667-42.667 42.667h-85.333c-23.564 0-42.667-19.102-42.667-42.667v-256c0-23.565 19.103-42.667 42.667-42.667h85.333c23.564 0 42.667 19.102 42.667 42.667v256z" />
<glyph unicode="&#xe92e;" glyph-name="support" d="M242.353 657.307c-44.931-57.8-71.686-130.429-71.686-209.307s26.755-151.509 71.686-209.306l91.659 91.657c-22.337 33.724-35.345 74.167-35.345 117.649s13.008 83.925 35.345 117.649l-91.659 91.659zM302.693 717.647l91.659-91.659c33.723 22.337 74.167 35.345 117.649 35.345s83.925-13.008 117.649-35.345l91.657 91.659c-57.796 44.931-130.428 71.686-209.306 71.686s-151.508-26.755-209.307-71.686zM781.649 657.307l-91.661-91.659c22.336-33.723 35.345-74.167 35.345-117.649s-13.009-83.925-35.345-117.649l91.661-91.657c44.928 57.796 71.684 130.428 71.684 209.306s-26.756 151.508-71.684 209.307zM721.306 178.351l-91.657 91.661c-33.724-22.336-74.167-35.345-117.649-35.345s-83.925 13.009-117.649 35.345l-91.659-91.661c57.8-44.928 130.429-71.684 209.307-71.684s151.509 26.756 209.306 71.684zM85.333 448c0 235.642 191.025 426.667 426.667 426.667 235.639 0 426.667-191.025 426.667-426.667 0-235.639-191.027-426.667-426.667-426.667-235.642 0-426.667 191.027-426.667 426.667zM384 448c0-70.694 57.306-128 128-128s128 57.306 128 128c0 70.694-57.306 128-128 128s-128-57.306-128-128z" />
<glyph unicode="&#xe92f;" glyph-name="pause" d="M512 789.333c-188.513 0-341.333-152.82-341.333-341.333s152.82-341.333 341.333-341.333c188.514 0 341.333 152.819 341.333 341.333s-152.819 341.333-341.333 341.333zM85.333 448c0 235.642 191.025 426.667 426.667 426.667 235.639 0 426.667-191.025 426.667-426.667 0-235.639-191.027-426.667-426.667-426.667-235.642 0-426.667 191.027-426.667 426.667zM426.667 618.667c23.565 0 42.667-19.103 42.667-42.667v-256c0-23.565-19.102-42.667-42.667-42.667s-42.667 19.102-42.667 42.667v256c0 23.564 19.103 42.667 42.667 42.667zM597.333 618.667c23.565 0 42.667-19.103 42.667-42.667v-256c0-23.565-19.102-42.667-42.667-42.667s-42.667 19.102-42.667 42.667v256c0 23.564 19.102 42.667 42.667 42.667z" />
<glyph unicode="&#xe930;" glyph-name="play" d="M512 789.333c-188.513 0-341.333-152.82-341.333-341.333s152.82-341.333 341.333-341.333c188.514 0 341.333 152.819 341.333 341.333s-152.819 341.333-341.333 341.333zM85.333 448c0 235.642 191.025 426.667 426.667 426.667 235.639 0 426.667-191.025 426.667-426.667 0-235.639-191.027-426.667-426.667-426.667-235.642 0-426.667 191.027-426.667 426.667zM384 538.943c0 68.155 75.959 108.808 132.668 71.002l136.414-90.943c50.667-33.775 50.667-108.228 0-142.003l-136.414-90.944c-56.708-37.807-132.668 2.846-132.668 71.002v181.887zM605.747 448l-136.414 90.943v-181.887l136.414 90.944z" />
<glyph unicode="&#xe931;" glyph-name="sm-view-grid-add" d="M128 704c0 70.692 57.308 128 128 128h85.333c70.692 0 128-57.308 128-128v-85.333c0-70.692-57.308-128-128-128h-85.333c-70.692 0-128 57.308-128 128v85.333zM256 746.667c-23.564 0-42.667-19.103-42.667-42.667v-85.333c0-23.564 19.103-42.667 42.667-42.667h85.333c23.564 0 42.667 19.103 42.667 42.667v85.333c0 23.564-19.103 42.667-42.667 42.667h-85.333zM554.667 704c0 70.692 57.306 128 128 128h85.333c70.694 0 128-57.308 128-128v-85.333c0-70.692-57.306-128-128-128h-85.333c-70.694 0-128 57.308-128 128v85.333zM682.667 746.667c-23.565 0-42.667-19.103-42.667-42.667v-85.333c0-23.564 19.102-42.667 42.667-42.667h85.333c23.565 0 42.667 19.103 42.667 42.667v85.333c0 23.564-19.102 42.667-42.667 42.667h-85.333zM128 277.333c0 70.694 57.308 128 128 128h85.333c70.692 0 128-57.306 128-128v-85.333c0-70.694-57.308-128-128-128h-85.333c-70.692 0-128 57.306-128 128v85.333zM256 320c-23.564 0-42.667-19.102-42.667-42.667v-85.333c0-23.565 19.103-42.667 42.667-42.667h85.333c23.564 0 42.667 19.102 42.667 42.667v85.333c0 23.565-19.103 42.667-42.667 42.667h-85.333zM725.333 405.333c23.565 0 42.667-19.102 42.667-42.667v-85.333h85.333c23.565 0 42.667-19.102 42.667-42.667s-19.102-42.667-42.667-42.667h-85.333v-85.333c0-23.565-19.102-42.667-42.667-42.667s-42.667 19.102-42.667 42.667v85.333h-85.333c-23.565 0-42.667 19.102-42.667 42.667s19.102 42.667 42.667 42.667h85.333v85.333c0 23.565 19.102 42.667 42.667 42.667z" />
<glyph unicode="&#xe932;" glyph-name="newspaper" d="M85.333 704v-512c0-70.694 57.308-128 128-128h597.333c70.694 0 128 57.306 128 128v384c0 70.692-57.306 128-128 128h-42.667c0 70.692-57.306 128-128 128h-426.667c-70.692 0-128-57.307-128-128zM689.95 149.333h-476.617c-23.564 0-42.667 19.102-42.667 42.667v512c0 23.564 19.103 42.667 42.667 42.667h426.667c23.565 0 42.667-19.103 42.667-42.667v-512c0-14.959 2.569-29.321 7.283-42.667zM768 618.667h42.667c23.565 0 42.667-19.103 42.667-42.667v-384c0-23.565-19.102-42.667-42.667-42.667s-42.667 19.102-42.667 42.667v426.667zM256 618.667c0 23.564 19.103 42.667 42.667 42.667h256c23.565 0 42.667-19.103 42.667-42.667v-170.667c0-23.565-19.102-42.667-42.667-42.667h-256c-23.564 0-42.667 19.102-42.667 42.667v170.667zM341.333 576v-85.333h170.667v85.333h-170.667zM256 277.333c0-23.565 19.103-42.667 42.667-42.667h256c23.565 0 42.667 19.102 42.667 42.667s-19.102 42.667-42.667 42.667h-256c-23.564 0-42.667-19.102-42.667-42.667z" />
<glyph unicode="&#xe933;" glyph-name="bookmark-alt" d="M128 704c0 70.692 57.308 128 128 128h512c70.694 0 128-57.308 128-128v-512c0-70.694-57.306-128-128-128h-512c-70.692 0-128 57.306-128 128v512zM640 746.667h-256v-400.299l108.919 54.46c12.011 6.007 26.15 6.007 38.161 0l108.919-54.46v400.299zM298.667 746.667h-42.667c-23.564 0-42.667-19.103-42.667-42.667v-512c0-23.565 19.103-42.667 42.667-42.667h512c23.565 0 42.667 19.102 42.667 42.667v512c0 23.564-19.102 42.667-42.667 42.667h-42.667v-469.333c0-14.788-7.659-28.518-20.237-36.297-12.578-7.774-28.284-8.478-41.51-1.865l-151.586 75.793-151.586-75.793c-13.226-6.613-28.933-5.909-41.512 1.865-12.579 7.778-20.236 21.508-20.236 36.297v469.333z" />
<glyph unicode="&#xe934;" glyph-name="chat-alt" d="M85.333 704c0 70.692 57.308 128 128 128h597.333c70.694 0 128-57.308 128-128v-341.333c0-70.694-57.306-128-128-128h-195.661l-200.836-200.836c-12.203-12.203-30.554-15.855-46.498-9.25s-26.339 22.161-26.339 39.42v170.667h-128c-70.692 0-128 57.306-128 128v341.333zM213.333 746.667c-23.564 0-42.667-19.103-42.667-42.667v-341.333c0-23.565 19.103-42.667 42.667-42.667h170.667c23.564 0 42.667-19.102 42.667-42.667v-110.327l140.497 140.497c8 8 18.854 12.497 30.17 12.497h213.333c23.565 0 42.667 19.102 42.667 42.667v341.333c0 23.564-19.102 42.667-42.667 42.667h-597.333zM298.667 533.333c0 23.564 19.103 42.667 42.667 42.667h0.427c23.564 0 42.667-19.103 42.667-42.667s-19.103-42.667-42.667-42.667h-0.427c-23.564 0-42.667 19.102-42.667 42.667zM469.333 533.333c0 23.564 19.102 42.667 42.667 42.667h0.427c23.565 0 42.667-19.103 42.667-42.667s-19.102-42.667-42.667-42.667h-0.427c-23.565 0-42.667 19.102-42.667 42.667zM640 533.333c0 23.564 19.102 42.667 42.667 42.667h0.427c23.565 0 42.667-19.103 42.667-42.667s-19.102-42.667-42.667-42.667h-0.427c-23.565 0-42.667 19.102-42.667 42.667z" />
<glyph unicode="&#xe935;" glyph-name="ban" d="M302.678 717.662l478.984-478.985c104.213 133.905 94.78 327.6-28.301 450.682-123.085 123.082-316.779 132.516-450.683 28.303zM721.323 178.338l-478.985 478.984c-104.213-133.904-94.779-327.598 28.303-450.683 123.081-123.081 316.777-132.514 450.682-28.301zM210.301 749.699c166.624 166.624 436.773 166.624 603.399 0 166.622-166.624 166.622-436.773 0-603.399-166.626-166.622-436.775-166.622-603.399 0-166.624 166.626-166.624 436.775 0 603.399z" />
<glyph unicode="&#xe936;" glyph-name="logout" d="M256 746.667c-47.128 0-85.333-38.205-85.333-85.333v-426.667c0-47.13 38.205-85.333 85.333-85.333h298.667c47.13 0 85.333 38.204 85.333 85.333v42.667c0 23.565 19.102 42.667 42.667 42.667s42.667-19.102 42.667-42.667v-42.667c0-94.255-76.412-170.667-170.667-170.667h-298.667c-94.257 0-170.667 76.412-170.667 170.667v426.667c0 94.257 76.41 170.667 170.667 170.667h298.667c94.255 0 170.667-76.41 170.667-170.667v-42.667c0-23.564-19.102-42.667-42.667-42.667s-42.667 19.103-42.667 42.667v42.667c0 47.128-38.204 85.333-85.333 85.333h-298.667zM499.503 648.837c16.661-16.663 16.661-43.677 0-60.34l-97.83-97.83h494.327c23.565 0 42.667-19.102 42.667-42.667s-19.102-42.667-42.667-42.667h-494.327l97.83-97.83c16.661-16.661 16.661-43.678 0-60.339s-43.678-16.661-60.339 0l-170.667 170.667c-16.662 16.661-16.662 43.678 0 60.339l170.667 170.667c16.661 16.662 43.678 16.662 60.339 0z" />
<glyph unicode="&#xe937;" glyph-name="document-report" d="M298.667 789.333c-23.564 0-42.667-19.103-42.667-42.667v-597.333c0-23.565 19.103-42.667 42.667-42.667h426.667c23.565 0 42.667 19.102 42.667 42.667v408.994l-231.006 231.006h-238.327zM170.667 746.667c0 70.692 57.308 128 128 128h238.327c22.63 0 44.335-8.99 60.339-24.994l231.006-231.006c16.004-16.003 24.994-37.708 24.994-60.34v-408.994c0-70.694-57.306-128-128-128h-426.667c-70.692 0-128 57.306-128 128v597.333zM640 533.333c23.565 0 42.667-19.102 42.667-42.667v-256c0-23.565-19.102-42.667-42.667-42.667s-42.667 19.102-42.667 42.667v256c0 23.565 19.102 42.667 42.667 42.667zM512 448c23.565 0 42.667-19.102 42.667-42.667v-170.667c0-23.565-19.102-42.667-42.667-42.667s-42.667 19.102-42.667 42.667v170.667c0 23.565 19.102 42.667 42.667 42.667zM384 362.667c23.564 0 42.667-19.102 42.667-42.667v-85.333c0-23.565-19.103-42.667-42.667-42.667s-42.667 19.102-42.667 42.667v85.333c0 23.565 19.103 42.667 42.667 42.667z" />
<glyph unicode="&#xe938;" glyph-name="microphone" d="M341.333 746.667c0 94.257 76.41 170.667 170.667 170.667 94.255 0 170.667-76.41 170.667-170.667v-256c0-94.255-76.412-170.667-170.667-170.667-94.257 0-170.667 76.412-170.667 170.667v256zM512 832c-47.13 0-85.333-38.205-85.333-85.333v-256c0-47.13 38.204-85.333 85.333-85.333s85.333 38.204 85.333 85.333v256c0 47.128-38.204 85.333-85.333 85.333zM213.333 533.333c23.564 0 42.667-19.102 42.667-42.667 0-141.385 114.615-256 256-256s256 114.615 256 256c0 23.565 19.102 42.667 42.667 42.667s42.667-19.102 42.667-42.667c0-174.063-130.291-317.696-298.667-338.692v-87.974h128c23.565 0 42.667-19.102 42.667-42.667s-19.102-42.667-42.667-42.667h-341.333c-23.564 0-42.667 19.102-42.667 42.667s19.103 42.667 42.667 42.667h128v87.974c-168.376 20.996-298.667 164.629-298.667 338.692 0 23.565 19.103 42.667 42.667 42.667z" />
<glyph unicode="&#xe939;" glyph-name="key" d="M640 789.333c-117.82 0-213.333-95.513-213.333-213.333 0-21.625 3.204-42.424 9.135-61.99 4.565-15.061 0.465-31.415-10.663-42.543l-254.472-254.473v-110.327h85.333v42.667c0 23.565 19.103 42.667 42.667 42.667h42.667v42.667c0 23.565 19.103 42.667 42.667 42.667h67.661l83.806 83.806c11.127 11.127 27.482 15.228 42.543 10.662 19.567-5.931 40.367-9.135 61.99-9.135 117.82 0 213.333 95.514 213.333 213.333s-95.514 213.333-213.333 213.333zM341.333 106.667v-42.667c0-23.565-19.103-42.667-42.667-42.667h-128c-47.128 0-85.333 38.204-85.333 85.333v110.327c0 22.63 8.99 44.335 24.994 60.339l237.321 237.321c-4.143 19.828-6.315 40.352-6.315 61.346 0 164.949 133.717 298.667 298.667 298.667s298.667-133.718 298.667-298.667c0-164.949-133.717-298.667-298.667-298.667-20.992 0-41.519 2.172-61.346 6.315l-79.151-79.151c-8-8-18.854-12.497-30.17-12.497h-42.667v-42.667c0-23.565-19.103-42.667-42.667-42.667h-42.667zM597.333 661.333c0 23.564 19.102 42.667 42.667 42.667 70.694 0 128-57.308 128-128 0-23.564-19.102-42.667-42.667-42.667s-42.667 19.103-42.667 42.667c0 23.564-19.102 42.667-42.667 42.667s-42.667 19.103-42.667 42.667z" />
<glyph unicode="&#xe93a;" glyph-name="cursor-click" d="M295.653 905.702c22.761 6.099 46.157-7.409 52.256-30.17l33.129-123.639c6.099-22.761-7.409-46.157-30.17-52.256s-46.157 7.409-52.256 30.17l-33.129 123.639c-6.099 22.761 7.409 46.157 30.17 52.256zM625.357 817.357c16.661-16.662 16.661-43.677 0-60.34l-90.513-90.51c-16.661-16.663-43.674-16.663-60.339 0-16.661 16.662-16.661 43.677 0 60.34l90.513 90.51c16.661 16.662 43.674 16.662 60.339 0zM54.292 664.343c6.099 22.761 29.495 36.269 52.256 30.17l123.638-33.129c22.761-6.099 36.269-29.495 30.17-52.256s-29.495-36.268-52.256-30.17l-123.639 33.129c-22.761 6.099-36.269 29.494-30.17 52.256zM353.828 606.17c11.722 11.722 29.172 15.593 44.751 9.928l469.333-170.666c16.627-6.046 27.797-21.73 28.079-39.42 0.282-17.694-10.385-33.724-26.816-40.294l-153.254-61.303 167.582-167.578c16.661-16.661 16.661-43.678 0-60.339-16.666-16.661-43.678-16.661-60.343 0l-167.578 167.578-61.303-153.254c-6.571-16.427-22.601-27.098-40.29-26.816-17.694 0.282-33.374 11.452-39.42 28.083l-170.668 469.331c-5.665 15.579-1.794 33.029 9.928 44.751zM455.343 504.657l101.218-278.362 43.823 109.551c4.335 10.842 12.928 19.43 23.77 23.77l109.547 43.819-278.357 101.222zM293.491 485.491c16.663-16.661 16.663-43.678 0-60.339l-90.51-90.509c-16.662-16.661-43.677-16.661-60.34 0s-16.663 43.678 0 60.339l90.51 90.509c16.662 16.666 43.677 16.666 60.34 0z" />
<glyph unicode="&#xe93b;" glyph-name="badge-check" d="M389.662 826.469c70.494 60.076 174.182 60.076 244.676 0 16.542-14.097 37.107-22.616 58.773-24.345 92.331-7.368 165.645-80.684 173.013-173.012 1.728-21.665 10.249-42.232 24.346-58.774 60.075-70.494 60.075-174.182 0-244.676-14.097-16.542-22.618-37.107-24.346-58.773-7.369-92.331-80.683-165.645-173.013-173.013-21.666-1.728-42.231-10.249-58.773-24.346-70.494-60.075-174.182-60.075-244.676 0-16.542 14.097-37.109 22.618-58.774 24.346-92.328 7.369-165.644 80.683-173.012 173.013-1.729 21.666-10.248 42.231-24.345 58.773-60.076 70.494-60.076 174.182 0 244.676 14.097 16.542 22.616 37.109 24.345 58.774 7.368 92.328 80.684 165.644 173.012 173.012 21.665 1.729 42.232 10.248 58.774 24.345zM578.991 761.521c-38.605 32.896-95.377 32.896-133.982 0-30.208-25.744-67.768-41.302-107.333-44.46-50.557-4.035-90.703-44.18-94.737-94.737-3.157-39.565-18.715-77.125-44.46-107.333-32.896-38.605-32.896-95.377 0-133.982 25.744-30.208 41.302-67.767 44.46-107.332 4.035-50.556 44.18-90.705 94.737-94.737 39.565-3.157 77.125-18.718 107.333-44.459 38.605-32.896 95.377-32.896 133.982 0 30.208 25.741 67.767 41.301 107.332 44.459 50.556 4.032 90.705 44.181 94.737 94.737 3.157 39.565 18.718 77.124 44.459 107.332 32.896 38.605 32.896 95.377 0 133.982-25.741 30.208-41.301 67.768-44.459 107.333-4.032 50.557-44.181 90.703-94.737 94.737-39.565 3.157-77.124 18.715-107.332 44.46zM670.17 563.503c16.661-16.663 16.661-43.678 0-60.34l-170.667-170.667c-16.661-16.661-43.678-16.661-60.339 0l-85.334 85.333c-16.662 16.661-16.662 43.678 0 60.339s43.677 16.661 60.34 0l55.163-55.164 140.497 140.497c16.661 16.662 43.678 16.662 60.339 0z" />
<glyph unicode="&#xe93c;" glyph-name="shopping-cart" d="M85.333 832c0 23.564 19.103 42.667 42.667 42.667h85.333c20.338 0 37.85-14.356 41.838-34.299l10.207-51.034h630.622c14.788 0 28.518-7.657 36.297-20.236 7.774-12.579 8.478-28.286 1.865-41.512l-170.667-341.333c-7.228-14.455-21.999-23.586-38.161-23.586h-408.994l-85.333-85.333h494.327c70.694 0 128-57.306 128-128s-57.306-128-128-128c-70.694 0-128 57.306-128 128 0 14.959 2.569 29.321 7.283 42.667h-185.233c4.717-13.346 7.284-27.708 7.284-42.667 0-70.694-57.308-128-128-128s-128 57.306-128 128c0 20.314 4.733 39.522 13.155 56.585-41.776 27.755-54.092 90.82-13.155 131.755l81.684 81.685-73.995 369.975h-50.355c-23.564 0-42.667 19.103-42.667 42.667zM333.645 448h365.321l128 256h-544.521l51.2-256zM298.667 192c-23.564 0-42.667-19.102-42.667-42.667s19.103-42.667 42.667-42.667c23.564 0 42.667 19.102 42.667 42.667s-19.103 42.667-42.667 42.667zM725.333 192c-23.565 0-42.667-19.102-42.667-42.667s19.102-42.667 42.667-42.667c23.565 0 42.667 19.102 42.667 42.667s-19.102 42.667-42.667 42.667z" />
<glyph unicode="&#xe93d;" glyph-name="light-bulb" d="M512 874.667c-23.565 0-42.667-19.103-42.667-42.667v-42.667c0-23.564 19.102-42.667 42.667-42.667s42.667 19.103 42.667 42.667v42.667c0 23.564-19.102 42.667-42.667 42.667zM210.301 749.699c-16.662-16.663-16.662-43.677 0-60.34l30.17-30.17c16.662-16.663 43.677-16.663 60.34 0s16.662 43.677 0 60.34l-30.17 30.17c-16.662 16.662-43.677 16.662-60.34 0zM813.7 749.699c-16.661 16.662-43.678 16.662-60.339 0l-30.17-30.17c-16.666-16.662-16.666-43.677 0-60.34 16.661-16.663 43.674-16.663 60.339 0l30.17 30.17c16.661 16.663 16.661 43.677 0 60.34zM391.321 568.678c66.65 66.65 174.708 66.65 241.358 0s66.65-174.711 0-241.361l-23.343-23.339c-8.235-8.239-15.62-17.165-22.101-26.645h-150.468c-6.481 9.481-13.866 18.406-22.102 26.645l-23.343 23.339c-66.65 66.65-66.65 174.711 0 241.361zM650.449 216.802c4.851 9.843 11.319 18.927 19.226 26.833l23.343 23.343c99.977 99.977 99.977 262.067 0 362.040-99.972 99.974-262.063 99.974-362.036 0s-99.974-262.064 0-362.040l23.343-23.343c7.908-7.906 14.374-16.99 19.229-26.833 0.213-0.461 0.435-0.922 0.664-1.374 6.381-13.449 9.783-28.267 9.783-43.439v-22.656c0-70.694 57.309-128 128-128 70.694 0 128 57.306 128 128v22.656c0 15.172 3.401 29.99 9.783 43.439 0.23 0.452 0.452 0.913 0.666 1.374zM555.742 192c-0.713-6.613-1.075-13.295-1.075-20.011v-22.656c0-23.565-19.102-42.667-42.667-42.667s-42.667 19.102-42.667 42.667v22.656c0 6.716-0.363 13.397-1.075 20.011h87.484zM85.336 448.004c0-23.565 19.103-42.667 42.667-42.667h42.667c23.564 0 42.667 19.102 42.667 42.667 0 23.561-19.102 42.667-42.667 42.667h-42.667c-23.564 0-42.667-19.106-42.667-42.667zM810.671 448.004c0-23.565 19.102-42.667 42.667-42.667h42.667c23.561 0 42.667 19.102 42.667 42.667 0 23.561-19.106 42.667-42.667 42.667h-42.667c-23.565 0-42.667-19.106-42.667-42.667z" />
<glyph unicode="&#xe93e;" glyph-name="reply" d="M414.17 819.503c16.661-16.663 16.661-43.677 0-60.34l-183.164-183.163h323.66c212.079 0 384-171.921 384-384v-85.333c0-23.565-19.102-42.667-42.667-42.667s-42.667 19.102-42.667 42.667v85.333c0 164.949-133.717 298.667-298.667 298.667h-323.66l183.164-183.164c16.661-16.661 16.661-43.678 0-60.339-16.663-16.661-43.677-16.661-60.34 0l-256 256c-16.662 16.661-16.662 43.677 0 60.34l256 256c16.663 16.662 43.677 16.662 60.34 0z" />
<glyph unicode="&#xe93f;" glyph-name="template" d="M128 746.667c0 47.128 38.205 85.333 85.333 85.333h597.333c47.13 0 85.333-38.205 85.333-85.333v-85.333c0-47.128-38.204-85.333-85.333-85.333h-597.333c-47.128 0-85.333 38.205-85.333 85.333v85.333zM810.667 746.667h-597.333v-85.333h597.333v85.333zM128 405.333c0 47.13 38.205 85.333 85.333 85.333h256c47.13 0 85.333-38.204 85.333-85.333v-256c0-47.13-38.204-85.333-85.333-85.333h-256c-47.128 0-85.333 38.204-85.333 85.333v256zM469.333 405.333h-256v-256h256v256zM640 405.333c0 47.13 38.204 85.333 85.333 85.333h85.333c47.13 0 85.333-38.204 85.333-85.333v-256c0-47.13-38.204-85.333-85.333-85.333h-85.333c-47.13 0-85.333 38.204-85.333 85.333v256zM810.667 405.333h-85.333v-256h85.333v256z" />
<glyph unicode="&#xe940;" glyph-name="arrow-narrow-left" d="M328.837 648.837c16.662-16.663 16.662-43.677 0-60.34l-97.83-97.83h664.994c23.565 0 42.667-19.102 42.667-42.667s-19.102-42.667-42.667-42.667h-664.994l97.83-97.83c16.662-16.661 16.662-43.678 0-60.339s-43.677-16.661-60.34 0l-170.667 170.667c-16.662 16.661-16.662 43.678 0 60.339l170.667 170.667c16.663 16.662 43.677 16.662 60.34 0z" />
<glyph unicode="&#xe941;" glyph-name="arrow-narrow-down" d="M512 874.667c23.565 0 42.667-19.103 42.667-42.667v-664.994l97.83 97.83c16.661 16.661 43.678 16.661 60.339 0s16.661-43.678 0-60.339l-170.667-170.667c-8-8-18.854-12.497-30.17-12.497s-22.17 4.497-30.17 12.497l-170.667 170.667c-16.662 16.661-16.662 43.678 0 60.339s43.677 16.661 60.34 0l97.83-97.83v664.994c0 23.564 19.102 42.667 42.667 42.667z" />
<glyph unicode="&#xe942;" glyph-name="arrow-narrow-right" d="M695.164 648.837c16.661 16.662 43.678 16.662 60.339 0l170.667-170.667c16.661-16.661 16.661-43.678 0-60.339l-170.667-170.667c-16.661-16.661-43.678-16.661-60.339 0s-16.661 43.678 0 60.339l97.83 97.83h-664.994c-23.564 0-42.667 19.102-42.667 42.667s19.103 42.667 42.667 42.667h664.994l-97.83 97.83c-16.661 16.663-16.661 43.677 0 60.34z" />
<glyph unicode="&#xe943;" glyph-name="arrow-narrow-up" d="M481.83 862.17c16.661 16.662 43.678 16.662 60.339 0l170.667-170.667c16.661-16.663 16.661-43.677 0-60.34s-43.678-16.662-60.339 0l-97.83 97.83v-664.994c0-23.565-19.102-42.667-42.667-42.667s-42.667 19.102-42.667 42.667v664.994l-97.83-97.83c-16.663-16.662-43.677-16.662-60.34 0s-16.662 43.677 0 60.34l170.667 170.667z" />
<glyph unicode="&#xe944;" glyph-name="icon-user-remove" d="M384 789.333c-70.692 0-128-57.308-128-128s57.308-128 128-128c70.694 0 128 57.308 128 128s-57.306 128-128 128zM170.667 661.333c0 117.821 95.513 213.333 213.333 213.333s213.333-95.513 213.333-213.333c0-117.821-95.514-213.333-213.333-213.333s-213.333 95.513-213.333 213.333zM597.333 448c0 23.565 19.102 42.667 42.667 42.667h256c23.565 0 42.667-19.102 42.667-42.667s-19.102-42.667-42.667-42.667h-256c-23.565 0-42.667 19.102-42.667 42.667zM384 320c-117.821 0-213.333-95.514-213.333-213.333h426.667c0 117.82-95.514 213.333-213.333 213.333zM85.333 106.667c0 164.949 133.718 298.667 298.667 298.667s298.667-133.717 298.667-298.667v-42.667c0-23.565-19.102-42.667-42.667-42.667h-512c-23.564 0-42.667 19.102-42.667 42.667v42.667z" />
<glyph unicode="&#xe945;" glyph-name="sparkles" d="M213.333 874.667c23.564 0 42.667-19.103 42.667-42.667v-42.667h42.667c23.564 0 42.667-19.103 42.667-42.667s-19.103-42.667-42.667-42.667h-42.667v-42.667c0-23.564-19.103-42.667-42.667-42.667s-42.667 19.103-42.667 42.667v42.667h-42.667c-23.564 0-42.667 19.103-42.667 42.667s19.103 42.667 42.667 42.667h42.667v42.667c0 23.564 19.103 42.667 42.667 42.667zM554.667 874.667c18.364 0 34.671-11.752 40.478-29.174l91.085-273.261 224.751-84.282c16.653-6.242 27.686-22.165 27.686-39.949s-11.034-33.707-27.686-39.949l-224.751-84.284-91.085-273.259c-5.807-17.425-22.114-29.175-40.478-29.175s-34.671 11.75-40.478 29.175l-91.086 273.259-224.751 84.284c-16.653 6.242-27.686 22.165-27.686 39.949s11.032 33.707 27.686 39.949l224.751 84.282 91.086 273.261c5.807 17.423 22.114 29.174 40.478 29.174zM554.667 697.076l-57.045-171.141c-4.075-12.211-13.44-21.935-25.498-26.458l-137.276-51.477 137.276-51.477c12.058-4.523 21.423-14.246 25.498-26.458l57.045-171.14 57.045 171.14c4.075 12.211 13.44 21.935 25.498 26.458l137.276 51.477-137.276 51.477c-12.058 4.523-21.423 14.246-25.498 26.458l-57.045 171.141zM256 277.333c23.564 0 42.667-19.102 42.667-42.667v-42.667h42.667c23.564 0 42.667-19.102 42.667-42.667s-19.103-42.667-42.667-42.667h-42.667v-42.667c0-23.565-19.103-42.667-42.667-42.667s-42.667 19.102-42.667 42.667v42.667h-42.667c-23.564 0-42.667 19.102-42.667 42.667s19.103 42.667 42.667 42.667h42.667v42.667c0 23.565 19.103 42.667 42.667 42.667z" />
<glyph unicode="&#xe946;" glyph-name="folder" d="M213.333 704c-23.564 0-42.667-19.103-42.667-42.667v-426.667c0-23.565 19.103-42.667 42.667-42.667h597.333c23.565 0 42.667 19.102 42.667 42.667v341.333c0 23.564-19.102 42.667-42.667 42.667h-256c-11.315 0-22.17 4.495-30.17 12.497l-72.836 72.837h-238.327zM85.333 661.333c0 70.692 57.308 128 128 128h256c11.315 0 22.17-4.495 30.17-12.497l72.836-72.837h238.327c70.694 0 128-57.308 128-128v-341.333c0-70.694-57.306-128-128-128h-597.333c-70.692 0-128 57.306-128 128v426.667z" />
<glyph unicode="&#xe947;" glyph-name="view-grid" d="M128 704c0 70.692 57.308 128 128 128h85.333c70.692 0 128-57.308 128-128v-85.333c0-70.692-57.308-128-128-128h-85.333c-70.692 0-128 57.308-128 128v85.333zM256 746.667c-23.564 0-42.667-19.103-42.667-42.667v-85.333c0-23.564 19.103-42.667 42.667-42.667h85.333c23.564 0 42.667 19.103 42.667 42.667v85.333c0 23.564-19.103 42.667-42.667 42.667h-85.333zM554.667 704c0 70.692 57.306 128 128 128h85.333c70.694 0 128-57.308 128-128v-85.333c0-70.692-57.306-128-128-128h-85.333c-70.694 0-128 57.308-128 128v85.333zM682.667 746.667c-23.565 0-42.667-19.103-42.667-42.667v-85.333c0-23.564 19.102-42.667 42.667-42.667h85.333c23.565 0 42.667 19.103 42.667 42.667v85.333c0 23.564-19.102 42.667-42.667 42.667h-85.333zM128 277.333c0 70.694 57.308 128 128 128h85.333c70.692 0 128-57.306 128-128v-85.333c0-70.694-57.308-128-128-128h-85.333c-70.692 0-128 57.306-128 128v85.333zM256 320c-23.564 0-42.667-19.102-42.667-42.667v-85.333c0-23.565 19.103-42.667 42.667-42.667h85.333c23.564 0 42.667 19.102 42.667 42.667v85.333c0 23.565-19.103 42.667-42.667 42.667h-85.333zM554.667 277.333c0 70.694 57.306 128 128 128h85.333c70.694 0 128-57.306 128-128v-85.333c0-70.694-57.306-128-128-128h-85.333c-70.694 0-128 57.306-128 128v85.333zM682.667 320c-23.565 0-42.667-19.102-42.667-42.667v-85.333c0-23.565 19.102-42.667 42.667-42.667h85.333c23.565 0 42.667 19.102 42.667 42.667v85.333c0 23.565-19.102 42.667-42.667 42.667h-85.333z" />
<glyph unicode="&#xe948;" glyph-name="lightning-bolt" d="M569.011 872.183c16.986-6.063 28.322-22.149 28.322-40.183v-256h256c16.486 0 31.497-9.498 38.558-24.396 7.057-14.898 4.902-32.531-5.534-45.288l-384-469.333c-11.422-13.961-30.383-19.23-47.369-13.167-16.981 6.063-28.322 22.148-28.322 40.183v256h-256c-16.486 0-31.497 9.498-38.557 24.397-7.060 14.895-4.905 32.529 5.534 45.286l384.002 469.335c11.418 13.958 30.379 19.228 47.364 13.165zM260.704 405.333h208.629c11.315 0 22.17-4.493 30.17-12.497 8.004-8 12.497-18.854 12.497-30.17v-179.14l251.298 307.14h-208.631c-23.565 0-42.667 19.102-42.667 42.667v179.14l-251.296-307.14z" />
<glyph unicode="&#xe949;" glyph-name="code" d="M607.68 830.726c22.861-5.715 36.762-28.88 31.044-51.741l-170.667-682.665c-5.713-22.861-28.877-36.762-51.739-31.044-22.86 5.713-36.759 28.877-31.044 51.738l170.668 682.668c5.713 22.861 28.877 36.76 51.738 31.045zM286.17 648.837c16.662-16.662 16.662-43.677 0-60.34l-140.497-140.497 140.497-140.497c16.662-16.661 16.662-43.678 0-60.339s-43.677-16.661-60.34 0l-170.667 170.667c-16.662 16.661-16.662 43.678 0 60.339l170.667 170.667c16.663 16.663 43.677 16.663 60.34 0zM737.83 648.837c16.661 16.663 43.678 16.663 60.339 0l170.667-170.667c16.661-16.661 16.661-43.678 0-60.339l-170.667-170.667c-16.661-16.661-43.678-16.661-60.339 0s-16.661 43.678 0 60.339l140.497 140.497-140.497 140.497c-16.661 16.662-16.661 43.677 0 60.34z" />
<glyph unicode="&#xe94a;" glyph-name="book-open" d="M170.667 669.044c40.085 21.449 91.815 34.956 149.333 34.956s109.248-13.507 149.333-34.956v-461.087c-44.957 17.22-95.901 26.709-149.333 26.709s-104.377-9.489-149.333-26.709v461.087zM554.667 669.044c40.085 21.449 91.814 34.956 149.333 34.956s109.248-13.507 149.333-34.956v-461.087c-44.958 17.22-95.902 26.709-149.333 26.709s-104.375-9.489-149.333-26.709v461.087zM512 742.985c-54.071 29.515-120.829 46.349-192 46.349-81.923 0-157.999-22.305-215.611-60.58-11.902-7.907-19.056-21.248-19.056-35.538v-554.668c0-15.723 8.647-30.17 22.504-37.602 13.857-7.428 30.677-6.635 43.773 2.065 42.048 27.934 101.278 46.323 168.389 46.323s126.34-18.389 168.388-46.323c14.306-9.506 32.917-9.506 47.223 0 42.048 27.934 101.278 46.323 168.388 46.323s126.34-18.389 168.388-46.323c13.099-8.7 29.918-9.493 43.776-2.065 13.854 7.433 22.502 21.879 22.502 37.602v554.668c0 14.29-7.155 27.631-19.055 35.538-57.613 38.275-133.687 60.58-215.612 60.58-71.172 0-137.929-16.834-192-46.349z" />
<glyph unicode="&#xe94b;" glyph-name="collection" d="M256 746.667c0 70.692 57.308 128 128 128h256c70.694 0 128-57.308 128-128v-49.95c49.715-17.571 85.333-64.984 85.333-120.716v-49.95c49.715-17.57 85.333-64.986 85.333-120.717v-256c0-70.694-57.306-128-128-128h-597.333c-70.692 0-128 57.306-128 128v256c0 55.731 35.619 103.147 85.333 120.717v49.95c0 55.732 35.619 103.145 85.333 120.716v49.95zM341.333 704h341.333v42.667c0 23.564-19.102 42.667-42.667 42.667h-256c-23.564 0-42.667-19.103-42.667-42.667v-42.667zM256 533.333h512v42.667c0 23.564-19.102 42.667-42.667 42.667h-426.667c-23.564 0-42.667-19.103-42.667-42.667v-42.667zM213.333 448c-23.564 0-42.667-19.102-42.667-42.667v-256c0-23.565 19.103-42.667 42.667-42.667h597.333c23.565 0 42.667 19.102 42.667 42.667v256c0 23.565-19.102 42.667-42.667 42.667h-597.333z" />
<glyph unicode="&#xe94c;" glyph-name="flag" d="M213.333 789.333c-23.564 0-42.667-19.103-42.667-42.667v-391.283c13.345 4.715 27.706 7.283 42.667 7.283h277.333c11.315 0 22.17-4.497 30.17-12.497l30.17-30.17h275.959l-97.126 194.253c-6.007 12.011-6.007 26.15 0 38.161l97.126 194.252h-272.299v-170.667c0-23.564-19.102-42.667-42.667-42.667s-42.667 19.103-42.667 42.667v213.333h-256zM551.006 832h344.994c14.788 0 28.518-7.657 36.297-20.236 7.774-12.579 8.478-28.286 1.865-41.512l-118.46-236.919 118.46-236.919c6.613-13.227 5.909-28.932-1.865-41.51-7.778-12.578-21.508-20.237-36.297-20.237h-362.667c-11.315 0-22.17 4.497-30.17 12.497l-30.17 30.17h-259.661c-23.564 0-42.667-19.102-42.667-42.667v-170.667c0-23.565-19.103-42.667-42.667-42.667s-42.667 19.102-42.667 42.667v682.667c0 70.692 57.308 128 128 128h277.333c11.315 0 22.17-4.495 30.17-12.497l21.312-21.311c0.013-0.015 0.030-0.030 0.043-0.045l8.815-8.814z" />
<glyph unicode="&#xe94d;" glyph-name="annotation" d="M85.333 704c0 70.692 57.308 128 128 128h597.333c70.694 0 128-57.308 128-128v-341.333c0-70.694-57.306-128-128-128h-110.327l-158.17-158.17c-16.661-16.661-43.678-16.661-60.339 0l-158.17 158.17h-110.327c-70.692 0-128 57.306-128 128v341.333zM213.333 746.667c-23.564 0-42.667-19.103-42.667-42.667v-341.333c0-23.565 19.103-42.667 42.667-42.667h128c11.316 0 22.168-4.497 30.17-12.497l140.497-140.497 140.497 140.497c8 8 18.854 12.497 30.17 12.497h128c23.565 0 42.667 19.102 42.667 42.667v341.333c0 23.564-19.102 42.667-42.667 42.667h-597.333zM256 618.667c0 23.564 19.103 42.667 42.667 42.667h426.667c23.565 0 42.667-19.103 42.667-42.667s-19.102-42.667-42.667-42.667h-426.667c-23.564 0-42.667 19.103-42.667 42.667zM256 448c0 23.565 19.103 42.667 42.667 42.667h170.667c23.565 0 42.667-19.102 42.667-42.667s-19.102-42.667-42.667-42.667h-170.667c-23.564 0-42.667 19.102-42.667 42.667z" />
<glyph unicode="&#xe94e;" glyph-name="clipboard-copy" d="M305.95 789.333c17.571 49.715 64.984 85.333 120.716 85.333h85.333c55.731 0 103.147-35.619 120.717-85.333h49.95c70.694 0 128-57.308 128-128v-128c0-23.565-19.102-42.667-42.667-42.667s-42.667 19.102-42.667 42.667v128c0 23.564-19.102 42.667-42.667 42.667h-49.95c-17.57-49.715-64.986-85.333-120.717-85.333h-85.333c-55.732 0-103.145 35.619-120.716 85.333h-49.95c-23.564 0-42.667-19.103-42.667-42.667v-512c0-23.565 19.103-42.667 42.667-42.667h426.667c23.565 0 42.667 19.102 42.667 42.667v42.667c0 23.565 19.102 42.667 42.667 42.667s42.667-19.102 42.667-42.667v-42.667c0-70.694-57.306-128-128-128h-426.667c-70.692 0-128 57.306-128 128v512c0 70.692 57.308 128 128 128h49.95zM426.667 789.333c-23.564 0-42.667-19.103-42.667-42.667s19.103-42.667 42.667-42.667h85.333c23.565 0 42.667 19.103 42.667 42.667s-19.102 42.667-42.667 42.667h-85.333zM584.836 520.836c16.661-16.661 16.661-43.678 0-60.339l-55.164-55.164h323.661c23.565 0 42.667-19.102 42.667-42.667s-19.102-42.667-42.667-42.667h-323.661l55.164-55.164c16.661-16.661 16.661-43.678 0-60.339s-43.678-16.661-60.339 0l-128 128c-16.662 16.661-16.662 43.678 0 60.339l128 128c16.661 16.663 43.678 16.663 60.339 0z" />
<glyph unicode="&#xe94f;" glyph-name="moon" d="M399.058 834.612c12.087-12.086 15.793-30.22 9.42-46.080-15.775-39.255-24.477-82.16-24.477-127.202 0-188.512 152.819-341.335 341.333-341.335 45.043 0 87.949 8.704 127.202 24.478 15.859 6.374 33.993 2.667 46.080-9.417 12.087-12.087 15.791-30.221 9.421-46.080-63.019-156.813-216.533-267.648-396.036-267.648-235.642 0-426.667 191.027-426.667 426.667 0 179.505 110.836 333.019 267.645 396.036 15.86 6.374 33.993 2.667 46.080-9.42zM302.318 717.364c-80.153-62.487-131.651-159.943-131.651-269.369 0-188.51 152.82-341.333 341.333-341.333 109.423 0 206.882 51.499 269.367 131.652-18.347-2.406-37.052-3.652-56.034-3.652-235.639 0-426.667 191.027-426.667 426.668 0 18.982 1.242 37.687 3.651 56.034z" />
<glyph unicode="&#xe950;" glyph-name="sun" d="M512 874.667c23.565 0 42.667-19.103 42.667-42.667v-42.667c0-23.564-19.102-42.667-42.667-42.667s-42.667 19.103-42.667 42.667v42.667c0 23.564 19.102 42.667 42.667 42.667zM210.301 749.699c16.663 16.662 43.677 16.662 60.34 0l30.17-30.17c16.663-16.662 16.663-43.677 0-60.34s-43.677-16.663-60.34 0l-30.17 30.17c-16.662 16.663-16.662 43.677 0 60.34zM813.7 749.696c16.661-16.662 16.661-43.677 0-60.34l-30.17-30.17c-16.661-16.662-43.678-16.662-60.339 0s-16.661 43.677 0 60.34l30.17 30.17c16.661 16.663 43.678 16.663 60.339 0zM512 576c-70.694 0-128-57.306-128-128s57.306-128 128-128c70.694 0 128 57.306 128 128s-57.306 128-128 128zM298.667 448c0 117.821 95.513 213.333 213.333 213.333s213.333-95.513 213.333-213.333c0-117.82-95.514-213.333-213.333-213.333s-213.333 95.514-213.333 213.333zM85.333 448c0 23.565 19.103 42.667 42.667 42.667h42.667c23.564 0 42.667-19.102 42.667-42.667s-19.103-42.667-42.667-42.667h-42.667c-23.564 0-42.667 19.102-42.667 42.667zM810.667 448c0 23.565 19.102 42.667 42.667 42.667h42.667c23.565 0 42.667-19.102 42.667-42.667s-19.102-42.667-42.667-42.667h-42.667c-23.565 0-42.667 19.102-42.667 42.667zM723.187 236.813c16.666 16.661 43.678 16.661 60.343 0l30.17-30.174c16.661-16.661 16.661-43.674 0-60.339-16.666-16.661-43.678-16.661-60.339 0l-30.174 30.17c-16.661 16.666-16.661 43.678 0 60.343zM240.473 236.809c16.663 16.661 43.677 16.661 60.34 0s16.662-43.678 0-60.339l-30.17-30.17c-16.663-16.661-43.677-16.661-60.34 0s-16.662 43.678 0 60.339l30.17 30.17zM512 149.333c23.565 0 42.667-19.102 42.667-42.667v-42.667c0-23.565-19.102-42.667-42.667-42.667s-42.667 19.102-42.667 42.667v42.667c0 23.565 19.102 42.667 42.667 42.667z" />
<glyph unicode="&#xe951;" glyph-name="external-link" d="M597.333 746.667c-23.565 0-42.667 19.103-42.667 42.667s19.102 42.667 42.667 42.667h256c23.565 0 42.667-19.103 42.667-42.667v-256c0-23.565-19.102-42.667-42.667-42.667s-42.667 19.102-42.667 42.667v152.994l-353.83-353.83c-16.661-16.661-43.677-16.661-60.34 0s-16.662 43.678 0 60.339l353.831 353.83h-152.994zM256 661.333c-23.564 0-42.667-19.103-42.667-42.667v-426.667c0-23.565 19.103-42.667 42.667-42.667h426.667c23.565 0 42.667 19.102 42.667 42.667v170.667c0 23.565 19.102 42.667 42.667 42.667s42.667-19.102 42.667-42.667v-170.667c0-70.694-57.306-128-128-128h-426.667c-70.692 0-128 57.306-128 128v426.667c0 70.692 57.308 128 128 128h170.667c23.565 0 42.667-19.103 42.667-42.667s-19.102-42.667-42.667-42.667h-170.667z" />
<glyph unicode="&#xe952;" glyph-name="clipboard" d="M348.617 789.333c17.571 49.715 64.984 85.333 120.716 85.333h85.333c55.731 0 103.147-35.619 120.717-85.333h49.95c70.694 0 128-57.308 128-128v-512c0-70.694-57.306-128-128-128h-426.667c-70.692 0-128 57.306-128 128v512c0 70.692 57.308 128 128 128h49.95zM348.617 704h-49.95c-23.564 0-42.667-19.103-42.667-42.667v-512c0-23.565 19.103-42.667 42.667-42.667h426.667c23.565 0 42.667 19.102 42.667 42.667v512c0 23.564-19.102 42.667-42.667 42.667h-49.95c-17.57-49.715-64.986-85.333-120.717-85.333h-85.333c-55.732 0-103.145 35.619-120.716 85.333zM469.333 789.333c-23.565 0-42.667-19.103-42.667-42.667s19.102-42.667 42.667-42.667h85.333c23.565 0 42.667 19.103 42.667 42.667s-19.102 42.667-42.667 42.667h-85.333z" />
<glyph unicode="&#xe953;" glyph-name="selector" d="M512 789.333c11.315 0 22.17-4.495 30.17-12.497l170.667-170.667c16.661-16.663 16.661-43.677 0-60.34-16.661-16.661-43.678-16.661-60.339 0l-140.497 140.497-140.497-140.497c-16.663-16.661-43.677-16.661-60.34 0-16.662 16.663-16.662 43.677 0 60.34l170.667 170.667c8 8.001 18.854 12.497 30.17 12.497zM311.163 350.17c16.663 16.661 43.677 16.661 60.34 0l140.497-140.497 140.497 140.497c16.661 16.661 43.678 16.661 60.339 0s16.661-43.678 0-60.339l-170.667-170.667c-16.661-16.661-43.678-16.661-60.339 0l-170.667 170.667c-16.662 16.661-16.662 43.678 0 60.339z" />
<glyph unicode="&#xe954;" glyph-name="printer" d="M256 746.667c0 70.692 57.308 128 128 128h256c70.694 0 128-57.308 128-128v-128h42.667c70.694 0 128-57.308 128-128v-170.667c0-70.694-57.306-128-128-128h-42.667v-42.667c0-70.694-57.306-128-128-128h-256c-70.692 0-128 57.306-128 128v42.667h-42.667c-70.692 0-128 57.306-128 128v170.667c0 70.692 57.308 128 128 128h42.667v128zM341.333 618.667h341.333v128c0 23.564-19.102 42.667-42.667 42.667h-256c-23.564 0-42.667-19.103-42.667-42.667v-128zM213.333 533.333c-23.564 0-42.667-19.102-42.667-42.667v-170.667c0-23.565 19.103-42.667 42.667-42.667h42.667v42.667c0 70.694 57.308 128 128 128h256c70.694 0 128-57.306 128-128v-42.667h42.667c23.565 0 42.667 19.102 42.667 42.667v170.667c0 23.565-19.102 42.667-42.667 42.667h-597.333zM682.667 320c0 23.565-19.102 42.667-42.667 42.667h-256c-23.564 0-42.667-19.102-42.667-42.667v-170.667c0-23.565 19.103-42.667 42.667-42.667h256c23.565 0 42.667 19.102 42.667 42.667v170.667z" />
<glyph unicode="&#xe955;" glyph-name="user-add" d="M384 789.333c-70.692 0-128-57.308-128-128s57.308-128 128-128c70.694 0 128 57.308 128 128s-57.306 128-128 128zM170.667 661.333c0 117.821 95.513 213.333 213.333 213.333s213.333-95.513 213.333-213.333c0-117.821-95.514-213.333-213.333-213.333s-213.333 95.513-213.333 213.333zM768 618.667c23.565 0 42.667-19.103 42.667-42.667v-85.333h85.333c23.565 0 42.667-19.102 42.667-42.667s-19.102-42.667-42.667-42.667h-85.333v-85.333c0-23.565-19.102-42.667-42.667-42.667s-42.667 19.102-42.667 42.667v85.333h-85.333c-23.565 0-42.667 19.102-42.667 42.667s19.102 42.667 42.667 42.667h85.333v85.333c0 23.564 19.102 42.667 42.667 42.667zM384 320c-117.821 0-213.333-95.514-213.333-213.333h426.667c0 117.82-95.514 213.333-213.333 213.333zM85.333 106.667c0 164.949 133.718 298.667 298.667 298.667s298.667-133.717 298.667-298.667v-42.667c0-23.565-19.102-42.667-42.667-42.667h-512c-23.564 0-42.667 19.102-42.667 42.667v42.667z" />
<glyph unicode="&#xe956;" glyph-name="sort-descending" d="M85.333 789.333c0 23.564 19.103 42.667 42.667 42.667h554.667c23.565 0 42.667-19.103 42.667-42.667s-19.102-42.667-42.667-42.667h-554.667c-23.564 0-42.667 19.103-42.667 42.667zM85.333 618.667c0 23.564 19.103 42.667 42.667 42.667h384c23.565 0 42.667-19.103 42.667-42.667s-19.102-42.667-42.667-42.667h-384c-23.564 0-42.667 19.103-42.667 42.667zM725.333 661.333c23.565 0 42.667-19.103 42.667-42.667v-408.994l97.83 97.83c16.661 16.661 43.678 16.661 60.339 0s16.661-43.678 0-60.339l-170.667-170.667c-16.661-16.661-43.678-16.661-60.339 0l-170.667 170.667c-16.661 16.661-16.661 43.678 0 60.339s43.678 16.661 60.339 0l97.83-97.83v408.994c0 23.564 19.102 42.667 42.667 42.667zM85.333 448c0 23.565 19.103 42.667 42.667 42.667h384c23.565 0 42.667-19.102 42.667-42.667s-19.102-42.667-42.667-42.667h-384c-23.564 0-42.667 19.102-42.667 42.667z" />
<glyph unicode="&#xe957;" glyph-name="information-circle" d="M512 789.333c-188.513 0-341.333-152.82-341.333-341.333s152.82-341.333 341.333-341.333c188.514 0 341.333 152.819 341.333 341.333s-152.819 341.333-341.333 341.333zM85.333 448c0 235.642 191.025 426.667 426.667 426.667 235.639 0 426.667-191.025 426.667-426.667 0-235.639-191.027-426.667-426.667-426.667-235.642 0-426.667 191.027-426.667 426.667zM469.333 618.667c0 23.564 19.102 42.667 42.667 42.667h0.427c23.565 0 42.667-19.103 42.667-42.667s-19.102-42.667-42.667-42.667h-0.427c-23.565 0-42.667 19.103-42.667 42.667zM426.667 448c0 23.565 19.102 42.667 42.667 42.667h42.667c23.565 0 42.667-19.102 42.667-42.667v-128c23.565 0 42.667-19.102 42.667-42.667s-19.102-42.667-42.667-42.667h-42.667c-23.565 0-42.667 19.102-42.667 42.667v128c-23.565 0-42.667 19.102-42.667 42.667z" />
<glyph unicode="&#xe958;" glyph-name="link" d="M815.842 751.843c-49.988 49.987-131.029 49.987-181.018 0l-46.916-46.917c-16.666-16.662-43.678-16.662-60.339 0-16.666 16.662-16.666 43.677 0 60.34l46.916 46.917c83.311 83.312 218.385 83.312 301.696 0 83.315-83.312 83.315-218.387 0-301.697l-170.667-170.667c-83.311-83.315-218.385-83.315-301.697 0-16.663 16.661-16.663 43.678 0 60.339s43.679 16.661 60.34 0c49.988-49.988 131.029-49.988 181.018 0l170.667 170.666c49.988 49.987 49.988 131.032 0 181.019zM559.842 495.842c-49.988 49.988-131.029 49.988-181.018 0l-170.667-170.667c-49.987-49.988-49.987-131.029 0-181.018s131.032-49.988 181.019 0l47.001 46.997c16.661 16.666 43.678 16.666 60.339 0 16.661-16.661 16.661-43.674 0-60.339l-47.002-46.997c-83.311-83.315-218.385-83.315-301.697 0-83.312 83.311-83.312 218.385 0 301.696l170.667 170.668c83.312 83.312 218.386 83.312 301.697 0 16.666-16.662 16.666-43.679 0-60.34-16.661-16.661-43.678-16.661-60.339 0z" />
<glyph unicode="&#xe959;" glyph-name="calendar" d="M341.333 874.667c23.564 0 42.667-19.103 42.667-42.667v-42.667h256v42.667c0 23.564 19.102 42.667 42.667 42.667s42.667-19.103 42.667-42.667v-42.667h85.333c70.694 0 128-57.308 128-128v-512c0-70.694-57.306-128-128-128h-597.333c-70.692 0-128 57.306-128 128v512c0 70.692 57.308 128 128 128h85.333v42.667c0 23.564 19.103 42.667 42.667 42.667zM298.667 704h-85.333c-23.564 0-42.667-19.103-42.667-42.667v-512c0-23.565 19.103-42.667 42.667-42.667h597.333c23.565 0 42.667 19.102 42.667 42.667v512c0 23.564-19.102 42.667-42.667 42.667h-85.333v-42.667c0-23.564-19.102-42.667-42.667-42.667s-42.667 19.103-42.667 42.667v42.667h-256v-42.667c0-23.564-19.103-42.667-42.667-42.667s-42.667 19.103-42.667 42.667v42.667zM256 490.667c0 23.565 19.103 42.667 42.667 42.667h426.667c23.565 0 42.667-19.102 42.667-42.667s-19.102-42.667-42.667-42.667h-426.667c-23.564 0-42.667 19.102-42.667 42.667z" />
<glyph unicode="&#xe95a;" glyph-name="refresh" d="M170.667 832c23.564 0 42.667-19.103 42.667-42.667v-99.967c70.374 86.977 177.992 142.634 298.667 142.634 195.853 0 357.406-146.587 381.030-336.055 2.918-23.381-13.675-44.702-37.060-47.616-23.381-2.918-44.702 13.675-47.616 37.060-18.368 147.284-144.081 261.278-296.354 261.278-101.448 0-191.148-50.588-245.145-128h117.145c23.564 0 42.667-19.103 42.667-42.667s-19.103-42.667-42.667-42.667h-213.333c-23.564 0-42.667 19.103-42.667 42.667v213.333c0 23.564 19.103 42.667 42.667 42.667zM168.028 447.671c23.383 2.918 44.703-13.675 47.619-37.060 18.366-147.285 144.080-261.278 296.354-261.278 101.449 0 191.147 50.59 245.146 128h-117.146c-23.565 0-42.667 19.102-42.667 42.667s19.102 42.667 42.667 42.667h213.333c23.565 0 42.667-19.102 42.667-42.667v-213.333c0-23.565-19.102-42.667-42.667-42.667s-42.667 19.102-42.667 42.667v99.968c-70.374-86.976-177.993-142.635-298.667-142.635-195.854 0-357.405 146.586-381.031 336.055-2.916 23.381 13.676 44.702 37.059 47.616z" />
<glyph unicode="&#xe95b;" glyph-name="phone-incoming" d="M85.333 746.667c0 70.692 57.308 128 128 128h139.914c36.73 0 69.339-23.503 80.954-58.349l63.906-191.72c13.431-40.287-4.809-84.318-42.79-103.31l-57.88-28.941c37.831-66.074 92.837-121.079 158.91-158.912l28.941 57.882c18.991 37.982 63.023 56.222 103.309 42.79l191.723-63.906c34.842-11.614 58.347-44.224 58.347-80.956v-139.913c0-70.694-57.306-128-128-128h-42.667c-377.027 0-682.667 305.638-682.667 682.667v42.667zM213.333 789.333c-23.564 0-42.667-19.103-42.667-42.667v-42.667c0-329.899 267.435-597.333 597.333-597.333h42.667c23.565 0 42.667 19.102 42.667 42.667v139.913l-191.718 63.91-48.158-96.311c-10.24-20.48-34.82-29.227-55.697-19.814-113.796 51.307-205.425 142.933-256.73 256.73-9.412 20.873-0.667 45.457 19.815 55.698l96.31 48.155-63.907 191.72h-139.914zM865.83 862.17c16.661 16.662 43.678 16.662 60.339 0s16.661-43.677 0-60.34l-183.164-183.163h110.327c23.565 0 42.667-19.103 42.667-42.667s-19.102-42.667-42.667-42.667h-213.333c-23.565 0-42.667 19.103-42.667 42.667v213.333c0 23.564 19.102 42.667 42.667 42.667s42.667-19.103 42.667-42.667v-110.327l183.164 183.164z" />
<glyph unicode="&#xe95c;" glyph-name="bookmark" d="M170.667 746.667c0 70.692 57.308 128 128 128h426.667c70.694 0 128-57.308 128-128v-682.667c0-14.788-7.659-28.518-20.237-36.297-12.578-7.774-28.284-8.478-41.51-1.865l-279.586 139.793-279.586-139.793c-13.226-6.613-28.933-5.909-41.512 1.865-12.579 7.778-20.236 21.508-20.236 36.297v682.667zM298.667 789.333c-23.564 0-42.667-19.103-42.667-42.667v-613.632l236.919 118.46c12.011 6.007 26.15 6.007 38.161 0l236.919-118.46v613.632c0 23.564-19.102 42.667-42.667 42.667h-426.667z" />
<glyph unicode="&#xe95d;" glyph-name="cash" d="M85.333 661.333c0 70.692 57.308 128 128 128h426.667c70.694 0 128-57.308 128-128v-42.667h42.667c70.694 0 128-57.308 128-128v-256c0-70.694-57.306-128-128-128h-426.667c-70.692 0-128 57.306-128 128v42.667h-42.667c-70.692 0-128 57.306-128 128v256zM341.333 234.667c0-23.565 19.103-42.667 42.667-42.667h426.667c23.565 0 42.667 19.102 42.667 42.667v256c0 23.565-19.102 42.667-42.667 42.667h-426.667c-23.564 0-42.667-19.102-42.667-42.667v-256zM682.667 618.667v42.667c0 23.564-19.102 42.667-42.667 42.667h-426.667c-23.564 0-42.667-19.103-42.667-42.667v-256c0-23.565 19.103-42.667 42.667-42.667h42.667v128c0 70.692 57.308 128 128 128h298.667zM597.333 405.333c-23.565 0-42.667-19.102-42.667-42.667s19.102-42.667 42.667-42.667c23.565 0 42.667 19.102 42.667 42.667s-19.102 42.667-42.667 42.667zM469.333 362.667c0 70.694 57.306 128 128 128s128-57.306 128-128c0-70.694-57.306-128-128-128s-128 57.306-128 128z" />
<glyph unicode="&#xe95e;" glyph-name="clipboard-list" d="M348.617 789.333c17.571 49.715 64.984 85.333 120.716 85.333h85.333c55.731 0 103.147-35.619 120.717-85.333h49.95c70.694 0 128-57.308 128-128v-512c0-70.694-57.306-128-128-128h-426.667c-70.692 0-128 57.306-128 128v512c0 70.692 57.308 128 128 128h49.95zM348.617 704h-49.95c-23.564 0-42.667-19.103-42.667-42.667v-512c0-23.565 19.103-42.667 42.667-42.667h426.667c23.565 0 42.667 19.102 42.667 42.667v512c0 23.564-19.102 42.667-42.667 42.667h-49.95c-17.57-49.715-64.986-85.333-120.717-85.333h-85.333c-55.732 0-103.145 35.619-120.716 85.333zM469.333 789.333c-23.565 0-42.667-19.103-42.667-42.667s19.102-42.667 42.667-42.667h85.333c23.565 0 42.667 19.103 42.667 42.667s-19.102 42.667-42.667 42.667h-85.333zM341.333 448c0 23.565 19.103 42.667 42.667 42.667h0.427c23.564 0 42.667-19.102 42.667-42.667s-19.103-42.667-42.667-42.667h-0.427c-23.564 0-42.667 19.102-42.667 42.667zM469.333 448c0 23.565 19.102 42.667 42.667 42.667h128c23.565 0 42.667-19.102 42.667-42.667s-19.102-42.667-42.667-42.667h-128c-23.565 0-42.667 19.102-42.667 42.667zM341.333 277.333c0 23.565 19.103 42.667 42.667 42.667h0.427c23.564 0 42.667-19.102 42.667-42.667s-19.103-42.667-42.667-42.667h-0.427c-23.564 0-42.667 19.102-42.667 42.667zM469.333 277.333c0 23.565 19.102 42.667 42.667 42.667h128c23.565 0 42.667-19.102 42.667-42.667s-19.102-42.667-42.667-42.667h-128c-23.565 0-42.667 19.102-42.667 42.667z" />
<glyph unicode="&#xe95f;" glyph-name="cheveron-left" d="M670.17 776.837c16.661-16.663 16.661-43.677 0-60.34l-268.497-268.497 268.497-268.497c16.661-16.661 16.661-43.678 0-60.339s-43.678-16.661-60.339 0l-298.667 298.667c-16.662 16.661-16.662 43.678 0 60.339l298.667 298.667c16.661 16.662 43.678 16.662 60.339 0z" />
<glyph unicode="&#xe960;" glyph-name="emoji-sad" d="M512 789.333c-188.513 0-341.333-152.82-341.333-341.333s152.82-341.333 341.333-341.333c188.514 0 341.333 152.819 341.333 341.333s-152.819 341.333-341.333 341.333zM85.333 448c0 235.642 191.025 426.667 426.667 426.667 235.639 0 426.667-191.025 426.667-426.667 0-235.639-191.027-426.667-426.667-426.667-235.642 0-426.667 191.027-426.667 426.667zM341.333 533.333c0 23.564 19.103 42.667 42.667 42.667h0.427c23.564 0 42.667-19.103 42.667-42.667s-19.103-42.667-42.667-42.667h-0.427c-23.564 0-42.667 19.102-42.667 42.667zM597.333 533.333c0 23.564 19.102 42.667 42.667 42.667h0.427c23.565 0 42.667-19.103 42.667-42.667s-19.102-42.667-42.667-42.667h-0.427c-23.565 0-42.667 19.102-42.667 42.667zM602.513 239.842c-49.988 49.984-131.034 49.984-181.020 0-16.663-16.666-43.677-16.666-60.34 0-16.662 16.661-16.662 43.678 0 60.339 83.31 83.311 218.388 83.311 301.699 0 16.661-16.661 16.661-43.678 0-60.339-16.661-16.666-43.678-16.666-60.339 0z" />
<glyph unicode="&#xe961;" glyph-name="search" d="M426.667 789.333c-141.385 0-256-114.615-256-256s114.615-256 256-256c141.385 0 256 114.615 256 256s-114.615 256-256 256zM85.333 533.333c0 188.513 152.82 341.333 341.333 341.333s341.333-152.82 341.333-341.333c0-78.878-26.756-151.509-71.684-209.306l229.854-229.858c16.661-16.661 16.661-43.678 0-60.339s-43.678-16.661-60.339 0l-229.858 229.854c-57.796-44.928-130.428-71.684-209.306-71.684-188.513 0-341.333 152.819-341.333 341.333z" />
<glyph unicode="&#xe962;" glyph-name="sort-ascending" d="M85.333 789.333c0 23.564 19.103 42.667 42.667 42.667h554.667c23.565 0 42.667-19.103 42.667-42.667s-19.102-42.667-42.667-42.667h-554.667c-23.564 0-42.667 19.103-42.667 42.667zM85.333 618.667c0 23.564 19.103 42.667 42.667 42.667h384c23.565 0 42.667-19.103 42.667-42.667s-19.102-42.667-42.667-42.667h-384c-23.564 0-42.667 19.103-42.667 42.667zM682.667 515.661l-97.83-97.83c-16.661-16.661-43.678-16.661-60.339 0s-16.661 43.678 0 60.339l170.667 170.667c16.661 16.662 43.678 16.662 60.339 0l170.667-170.667c16.661-16.661 16.661-43.678 0-60.339s-43.678-16.661-60.339 0l-97.83 97.83v-408.994c0-23.565-19.102-42.667-42.667-42.667s-42.667 19.102-42.667 42.667v408.994zM85.333 448c0 23.565 19.103 42.667 42.667 42.667h256c23.564 0 42.667-19.102 42.667-42.667s-19.103-42.667-42.667-42.667h-256c-23.564 0-42.667 19.102-42.667 42.667z" />
<glyph unicode="&#xe963;" glyph-name="trash" d="M341.333 789.333c0 47.128 38.205 85.333 85.333 85.333h170.667c47.13 0 85.333-38.205 85.333-85.333v-85.333h127.561c0.265 0.003 0.529 0.003 0.794 0h42.313c23.565 0 42.667-19.103 42.667-42.667s-19.102-42.667-42.667-42.667h-2.94l-34.176-478.451c-4.783-66.987-60.518-118.882-127.671-118.882h-353.091c-67.154 0-122.89 51.895-127.675 118.882l-34.175 478.451h-2.939c-23.564 0-42.667 19.103-42.667 42.667s19.103 42.667 42.667 42.667h42.314c0.265 0.003 0.529 0.003 0.793 0h127.56v85.333zM259.156 618.667l33.741-472.371c1.595-22.332 20.174-39.629 42.558-39.629h353.091c22.383 0 40.96 17.297 42.556 39.629l33.741 472.371h-505.686zM597.333 704h-170.667v85.333h170.667v-85.333zM426.667 533.333c23.565 0 42.667-19.102 42.667-42.667v-256c0-23.565-19.102-42.667-42.667-42.667s-42.667 19.102-42.667 42.667v256c0 23.565 19.103 42.667 42.667 42.667zM597.333 533.333c23.565 0 42.667-19.102 42.667-42.667v-256c0-23.565-19.102-42.667-42.667-42.667s-42.667 19.102-42.667 42.667v256c0 23.565 19.102 42.667 42.667 42.667z" />
<glyph unicode="&#xe964;" glyph-name="adjustments" d="M256 832c23.564 0 42.667-19.103 42.667-42.667v-391.283c49.715-17.57 85.333-64.986 85.333-120.717s-35.619-103.147-85.333-120.717v-49.95c0-23.565-19.103-42.667-42.667-42.667s-42.667 19.102-42.667 42.667v49.95c-49.715 17.57-85.333 64.986-85.333 120.717s35.619 103.147 85.333 120.717v391.283c0 23.564 19.103 42.667 42.667 42.667zM512 832c23.565 0 42.667-19.103 42.667-42.667v-49.95c49.715-17.571 85.333-64.984 85.333-120.716s-35.618-103.147-85.333-120.717v-391.283c0-23.565-19.102-42.667-42.667-42.667s-42.667 19.102-42.667 42.667v391.283c-49.715 17.57-85.333 64.985-85.333 120.717s35.619 103.145 85.333 120.716v49.95c0 23.564 19.102 42.667 42.667 42.667zM768 832c23.565 0 42.667-19.103 42.667-42.667v-391.283c49.715-17.57 85.333-64.986 85.333-120.717s-35.618-103.147-85.333-120.717v-49.95c0-23.565-19.102-42.667-42.667-42.667s-42.667 19.102-42.667 42.667v49.95c-49.715 17.57-85.333 64.986-85.333 120.717s35.618 103.147 85.333 120.717v391.283c0 23.564 19.102 42.667 42.667 42.667zM512 661.333c-23.565 0-42.667-19.103-42.667-42.667s19.102-42.667 42.667-42.667c23.565 0 42.667 19.103 42.667 42.667s-19.102 42.667-42.667 42.667zM256 320c-23.564 0-42.667-19.102-42.667-42.667s19.103-42.667 42.667-42.667c23.564 0 42.667 19.102 42.667 42.667s-19.103 42.667-42.667 42.667zM768 320c-23.565 0-42.667-19.102-42.667-42.667s19.102-42.667 42.667-42.667c23.565 0 42.667 19.102 42.667 42.667s-19.102 42.667-42.667 42.667z" />
<glyph unicode="&#xe965;" glyph-name="document-remove" d="M298.667 789.333c-23.564 0-42.667-19.103-42.667-42.667v-597.333c0-23.565 19.103-42.667 42.667-42.667h426.667c23.565 0 42.667 19.102 42.667 42.667v408.994l-231.006 231.006h-238.327zM170.667 746.667c0 70.692 57.308 128 128 128h238.327c22.63 0 44.335-8.99 60.339-24.994l231.006-231.006c16.004-16.003 24.994-37.708 24.994-60.34v-408.994c0-70.694-57.306-128-128-128h-426.667c-70.692 0-128 57.306-128 128v597.333zM341.333 405.333c0 23.565 19.103 42.667 42.667 42.667h256c23.565 0 42.667-19.102 42.667-42.667s-19.102-42.667-42.667-42.667h-256c-23.564 0-42.667 19.102-42.667 42.667z" />
<glyph unicode="&#xe966;" glyph-name="plus" d="M512 832c23.565 0 42.667-19.103 42.667-42.667v-298.667h298.667c23.565 0 42.667-19.102 42.667-42.667s-19.102-42.667-42.667-42.667h-298.667v-298.667c0-23.565-19.102-42.667-42.667-42.667s-42.667 19.102-42.667 42.667v298.667h-298.667c-23.564 0-42.667 19.102-42.667 42.667s19.103 42.667 42.667 42.667h298.667v298.667c0 23.564 19.102 42.667 42.667 42.667z" />
<glyph unicode="&#xe967;" glyph-name="phone-outgoing" d="M85.333 746.667c0 70.692 57.308 128 128 128h139.914c36.73 0 69.339-23.503 80.954-58.349l63.906-191.72c13.431-40.287-4.809-84.318-42.79-103.31l-57.88-28.941c37.831-66.074 92.837-121.079 158.91-158.912l28.941 57.882c18.991 37.982 63.023 56.222 103.309 42.79l191.723-63.906c34.842-11.614 58.347-44.224 58.347-80.956v-139.913c0-70.694-57.306-128-128-128h-42.667c-377.027 0-682.667 305.638-682.667 682.667v42.667zM213.333 789.333c-23.564 0-42.667-19.103-42.667-42.667v-42.667c0-329.899 267.435-597.333 597.333-597.333h42.667c23.565 0 42.667 19.102 42.667 42.667v139.913l-191.718 63.91-48.158-96.311c-10.24-20.48-34.82-29.227-55.697-19.814-113.796 51.307-205.425 142.933-256.73 256.73-9.412 20.873-0.667 45.457 19.815 55.698l96.31 48.155-63.907 191.72h-139.914zM682.667 789.333c-23.565 0-42.667 19.103-42.667 42.667s19.102 42.667 42.667 42.667h213.333c23.565 0 42.667-19.103 42.667-42.667v-213.333c0-23.564-19.102-42.667-42.667-42.667s-42.667 19.103-42.667 42.667v110.327l-183.164-183.164c-16.661-16.661-43.678-16.661-60.339 0-16.661 16.663-16.661 43.677 0 60.34l183.164 183.163h-110.327z" />
<glyph unicode="&#xe968;" glyph-name="eye" d="M149.857 448c52.724-149.184 195.023-256 362.164-256 167.138 0 309.436 106.812 362.159 256-52.723 149.186-195.021 256-362.163 256-167.138 0-309.435-106.813-362.16-256zM64.179 460.787c59.794 190.374 237.625 328.546 447.838 328.546 210.219 0 388.049-138.174 447.842-328.55 2.615-8.324 2.615-17.246 0-25.57-59.793-190.374-237.623-328.546-447.838-328.546-210.217 0-388.049 138.176-447.842 328.55-2.614 8.324-2.614 17.246 0 25.57zM512 533.333c-47.13 0-85.333-38.204-85.333-85.333s38.204-85.333 85.333-85.333c47.13 0 85.333 38.204 85.333 85.333s-38.204 85.333-85.333 85.333zM341.333 448c0 94.257 76.41 170.667 170.667 170.667 94.255 0 170.667-76.41 170.667-170.667 0-94.255-76.412-170.667-170.667-170.667-94.257 0-170.667 76.412-170.667 170.667z" />
<glyph unicode="&#xe969;" glyph-name="translate" d="M384 874.667c23.564 0 42.666-19.103 42.666-42.667v-42.667h116.574c0.503 0.009 1.007 0.009 1.51 0h95.249c23.565 0 42.667-19.103 42.667-42.667s-19.102-42.667-42.667-42.667h-60.672c-24.533-114.474-73.216-219.951-140.442-310.861 6.69-7.535 13.538-14.925 20.535-22.174 16.363-16.951 15.889-43.964-1.067-60.331-16.951-16.363-43.964-15.889-60.329 1.067-4.737 4.907-9.413 9.873-14.026 14.899-67.054-73.045-147.325-133.743-237.012-178.313-21.102-10.487-46.71-1.882-57.197 19.221s-1.881 46.711 19.22 57.199c83.88 41.681 158.536 99.123 220.105 168.427-37.811 51.136-69.76 106.884-94.846 166.26-9.171 21.706 0.991 46.737 22.697 55.908s46.737-0.991 55.908-22.697c19.331-45.752 43.228-89.117 71.125-129.523 49.693 71.976 86.702 153.361 107.818 240.917h-363.818c-23.564 0-42.667 19.103-42.667 42.667s19.102 42.667 42.667 42.667h213.333v42.667c0 23.564 19.102 42.667 42.667 42.667zM682.667 533.333c16.162 0 30.933-9.131 38.161-23.586l148.949-297.899c0.277-0.525 0.546-1.058 0.798-1.596l63.586-127.172c10.539-21.077 1.997-46.703-19.081-57.242s-46.703-1.997-57.242 19.081l-52.207 104.414h-245.931l-52.207-104.414c-10.539-21.077-36.164-29.619-57.242-19.081s-29.62 36.164-19.081 57.242l63.586 127.172c0.256 0.538 0.521 1.071 0.798 1.596l148.949 297.899c7.228 14.455 21.999 23.586 38.161 23.586zM602.368 234.667h160.597l-80.299 160.593-80.299-160.593z" />
</font>
</defs>
</svg>
