<svg width="339" height="198" viewBox="0 0 339 198" fill="none" xmlns="http://www.w3.org/2000/svg">
<g clip-path="url(#clip0_623_106889)">
<path d="M321.279 193.256C321.279 194.101 321.271 194.946 321.255 195.791H17.7372C17.7212 194.946 17.7131 194.101 17.7131 193.256C17.7131 109.255 85.6658 41.1602 169.492 41.1602C253.318 41.1602 321.279 109.255 321.279 193.256Z" fill="url(#paint0_linear_623_106889)"/>
<path d="M50.9464 196.001C50.609 196.001 50.3359 195.727 50.3279 195.389V195.293C50.3198 194.786 50.3198 194.27 50.3198 193.755C50.3198 192.821 50.3279 191.872 50.352 190.938C50.36 190.6 50.6411 190.326 50.9785 190.334C51.3159 190.342 51.5891 190.624 51.581 190.962C51.5569 191.888 51.5489 192.821 51.5489 193.747C51.5489 194.254 51.5489 194.761 51.5569 195.269V195.365C51.565 195.703 51.2918 195.985 50.9464 195.993C50.9544 196.001 50.9544 196.001 50.9464 196.001ZM286.953 186.526C286.632 186.526 286.359 186.277 286.343 185.947C286.246 184.49 286.126 183.009 285.973 181.56C285.941 181.221 286.182 180.916 286.519 180.883C286.857 180.851 287.162 181.093 287.194 181.431C287.347 182.896 287.467 184.385 287.572 185.866C287.596 186.204 287.339 186.502 287.001 186.518C286.977 186.526 286.961 186.526 286.953 186.526ZM51.2758 185.383C51.2597 185.383 51.2436 185.383 51.2276 185.383C50.8902 185.359 50.6331 185.061 50.6572 184.723C50.7697 183.25 50.9062 181.761 51.0749 180.296C51.1151 179.958 51.4204 179.716 51.7578 179.756C52.0952 179.797 52.3361 180.103 52.296 180.441C52.1353 181.89 51.9907 183.363 51.8863 184.828C51.8622 185.134 51.5971 185.383 51.2758 185.383ZM285.78 175.973C285.483 175.973 285.218 175.756 285.17 175.45C284.945 174.009 284.688 172.544 284.407 171.111C284.342 170.773 284.559 170.451 284.889 170.386C285.218 170.322 285.547 170.539 285.612 170.869C285.893 172.318 286.15 173.791 286.383 175.248C286.439 175.587 286.206 175.9 285.869 175.949C285.845 175.965 285.812 175.973 285.78 175.973ZM52.545 174.838C52.5129 174.838 52.4807 174.838 52.4406 174.83C52.1032 174.773 51.8783 174.46 51.9345 174.121C52.1755 172.664 52.4486 171.191 52.7458 169.75C52.8101 169.42 53.1395 169.203 53.4688 169.267C53.7982 169.34 54.0151 169.662 53.9508 169.992C53.6616 171.425 53.3885 172.882 53.1475 174.323C53.0993 174.629 52.8422 174.838 52.545 174.838ZM283.676 165.564C283.402 165.564 283.145 165.379 283.081 165.097C282.728 163.681 282.342 162.248 281.932 160.847C281.836 160.517 282.029 160.179 282.35 160.082C282.68 159.986 283.017 160.179 283.113 160.501C283.523 161.918 283.917 163.367 284.27 164.8C284.35 165.13 284.15 165.468 283.82 165.548C283.78 165.556 283.724 165.564 283.676 165.564ZM54.7541 164.453C54.7059 164.453 54.6497 164.445 54.6015 164.437C54.2721 164.349 54.0794 164.019 54.1597 163.689C54.5292 162.264 54.9389 160.815 55.3647 159.406C55.4611 159.084 55.8065 158.899 56.1278 158.996C56.4491 159.092 56.6339 159.438 56.5375 159.76C56.1198 161.161 55.7181 162.586 55.3486 164.003C55.2763 164.268 55.0273 164.453 54.7541 164.453ZM280.647 155.389C280.39 155.389 280.157 155.228 280.069 154.979C279.587 153.602 279.073 152.21 278.542 150.849C278.422 150.535 278.575 150.173 278.888 150.052C279.201 149.931 279.563 150.084 279.683 150.398C280.221 151.775 280.735 153.175 281.226 154.568C281.338 154.89 281.169 155.244 280.848 155.357C280.776 155.373 280.711 155.389 280.647 155.389ZM57.8951 154.294C57.8228 154.294 57.7585 154.286 57.6862 154.254C57.3649 154.141 57.2043 153.787 57.3167 153.465C57.8148 152.073 58.353 150.672 58.9073 149.295C59.0358 148.981 59.3893 148.829 59.7106 148.957C60.0239 149.086 60.1765 149.44 60.048 149.762C59.5017 151.123 58.9716 152.507 58.4735 153.884C58.3851 154.141 58.1441 154.294 57.8951 154.294ZM276.711 145.536C276.478 145.536 276.253 145.399 276.149 145.174C275.546 143.846 274.911 142.517 274.261 141.205C274.108 140.899 274.229 140.529 274.534 140.376C274.839 140.223 275.209 140.344 275.361 140.65C276.02 141.97 276.663 143.314 277.265 144.659C277.402 144.973 277.265 145.335 276.96 145.472C276.88 145.52 276.791 145.536 276.711 145.536ZM61.9438 144.457C61.8555 144.457 61.7671 144.441 61.6868 144.401C61.3815 144.256 61.2449 143.894 61.3895 143.58C62.0161 142.244 62.6668 140.891 63.3416 139.579C63.4942 139.273 63.8638 139.161 64.169 139.313C64.4743 139.466 64.5867 139.837 64.4341 140.143C63.7674 141.447 63.1167 142.783 62.4981 144.103C62.3937 144.321 62.1688 144.457 61.9438 144.457ZM271.907 136.094C271.69 136.094 271.481 135.981 271.369 135.78C270.654 134.508 269.899 133.236 269.136 131.996C268.959 131.706 269.047 131.328 269.336 131.151C269.626 130.974 270.003 131.062 270.18 131.352C270.951 132.608 271.714 133.896 272.437 135.176C272.606 135.474 272.501 135.852 272.204 136.013C272.116 136.069 272.011 136.094 271.907 136.094ZM66.8521 135.031C66.7477 135.031 66.6432 135.007 66.5468 134.95C66.2496 134.781 66.1532 134.403 66.3219 134.105C67.061 132.825 67.8402 131.545 68.6274 130.298C68.8122 130.008 69.1898 129.927 69.479 130.104C69.7681 130.29 69.8485 130.668 69.6717 130.958C68.8925 132.197 68.1213 133.461 67.3903 134.725C67.2698 134.918 67.061 135.031 66.8521 135.031ZM266.284 127.11C266.091 127.11 265.898 127.013 265.778 126.844C264.95 125.645 264.083 124.445 263.215 123.278C263.014 123.004 263.071 122.618 263.336 122.417C263.609 122.215 263.994 122.272 264.195 122.537C265.079 123.721 265.946 124.928 266.79 126.144C266.983 126.426 266.91 126.804 266.637 127.005C266.525 127.07 266.404 127.11 266.284 127.11ZM72.5878 126.087C72.4673 126.087 72.3388 126.047 72.2343 125.975C71.9532 125.782 71.8889 125.395 72.0897 125.113C72.9413 123.906 73.8249 122.698 74.7246 121.531C74.9335 121.257 75.3191 121.209 75.5842 121.418C75.8573 121.628 75.9055 122.014 75.6966 122.28C74.813 123.439 73.9293 124.638 73.0858 125.83C72.9734 125.991 72.7806 126.087 72.5878 126.087ZM259.873 118.657C259.697 118.657 259.52 118.585 259.399 118.432C258.468 117.313 257.495 116.194 256.523 115.107C256.299 114.858 256.315 114.463 256.572 114.238C256.821 114.013 257.214 114.029 257.439 114.286C258.427 115.381 259.399 116.516 260.347 117.651C260.564 117.909 260.532 118.303 260.267 118.521C260.146 118.617 260.01 118.657 259.873 118.657ZM79.0947 117.691C78.9501 117.691 78.8135 117.643 78.693 117.546C78.4359 117.329 78.4038 116.935 78.6207 116.677C79.5767 115.55 80.5647 114.431 81.5609 113.344C81.7938 113.095 82.1794 113.079 82.4284 113.304C82.6775 113.538 82.6935 113.924 82.4686 114.174C81.4805 115.252 80.5005 116.363 79.5606 117.474C79.4401 117.619 79.2714 117.691 79.0947 117.691ZM252.732 110.817C252.571 110.817 252.419 110.76 252.298 110.64C251.27 109.601 250.201 108.579 249.141 107.581C248.892 107.347 248.876 106.961 249.109 106.711C249.342 106.462 249.727 106.446 249.976 106.679C251.053 107.685 252.129 108.724 253.174 109.77C253.415 110.012 253.415 110.398 253.174 110.64C253.045 110.752 252.884 110.817 252.732 110.817ZM86.3245 109.923C86.1639 109.923 86.0032 109.859 85.8827 109.738C85.6417 109.497 85.6497 109.102 85.8907 108.869C86.9431 107.838 88.0276 106.808 89.112 105.81C89.3611 105.584 89.7547 105.6 89.9796 105.85C90.2045 106.099 90.1885 106.494 89.9395 106.719C88.863 107.701 87.7866 108.724 86.7503 109.746C86.6298 109.859 86.4772 109.923 86.3245 109.923ZM244.916 103.636C244.779 103.636 244.634 103.588 244.522 103.491C243.405 102.549 242.257 101.624 241.1 100.722C240.835 100.513 240.786 100.126 240.987 99.8607C241.196 99.5951 241.582 99.5468 241.847 99.748C243.012 100.658 244.176 101.591 245.301 102.541C245.558 102.759 245.598 103.145 245.381 103.411C245.269 103.564 245.092 103.636 244.916 103.636ZM94.2051 102.831C94.0283 102.831 93.8516 102.751 93.7311 102.606C93.5142 102.34 93.5544 101.954 93.8195 101.736C94.9602 100.803 96.125 99.8768 97.2978 98.9833C97.571 98.774 97.9566 98.8304 98.1574 99.104C98.3663 99.3777 98.31 99.7642 98.0369 99.9654C96.8801 100.851 95.7153 101.769 94.5907 102.694C94.4782 102.783 94.3416 102.831 94.2051 102.831ZM236.489 97.1801C236.368 97.1801 236.248 97.1479 236.135 97.0674C234.938 96.2302 233.709 95.4091 232.48 94.6202C232.191 94.4351 232.111 94.0567 232.295 93.7669C232.48 93.4771 232.858 93.3966 233.147 93.5818C234.384 94.3787 235.629 95.2159 236.842 96.0612C237.123 96.2544 237.188 96.6408 236.995 96.9225C236.874 97.0916 236.69 97.1801 236.489 97.1801ZM102.688 96.4717C102.495 96.4717 102.294 96.3751 102.182 96.2061C101.989 95.9243 102.062 95.5379 102.343 95.3528C103.564 94.5236 104.809 93.7025 106.054 92.9217C106.343 92.7446 106.721 92.8251 106.906 93.1149C107.082 93.4047 107.002 93.783 106.713 93.9682C105.484 94.741 104.247 95.554 103.042 96.3751C102.929 96.4315 102.809 96.4717 102.688 96.4717ZM111.693 90.9012C111.476 90.9012 111.268 90.7885 111.155 90.5872C110.986 90.2894 111.099 89.911 111.396 89.75C112.681 89.0336 113.999 88.3332 115.308 87.6651C115.613 87.5121 115.983 87.6329 116.136 87.9388C116.288 88.2447 116.168 88.615 115.863 88.7679C114.569 89.428 113.26 90.1203 111.991 90.8368C111.902 90.877 111.798 90.9012 111.693 90.9012ZM218.077 86.6588C217.988 86.6588 217.908 86.6427 217.82 86.6025C216.486 85.9907 215.128 85.4031 213.779 84.8476C213.466 84.7188 213.313 84.3566 213.442 84.0426C213.57 83.7287 213.932 83.5757 214.245 83.7045C215.61 84.268 216.984 84.8637 218.326 85.4836C218.631 85.6285 218.768 85.9907 218.631 86.2966C218.535 86.522 218.31 86.6588 218.077 86.6588ZM121.156 86.1678C120.923 86.1678 120.698 86.0309 120.594 85.8056C120.457 85.4916 120.594 85.1294 120.907 84.9925C122.249 84.3968 123.623 83.8172 124.988 83.2698C125.302 83.141 125.663 83.294 125.792 83.616C125.92 83.9299 125.767 84.2922 125.446 84.421C124.097 84.9603 122.739 85.5399 121.405 86.1275C121.325 86.1517 121.245 86.1678 121.156 86.1678ZM198.066 79.6151C198.018 79.6151 197.97 79.6071 197.913 79.599C196.5 79.2448 195.062 78.9068 193.632 78.6009C193.302 78.5284 193.085 78.2064 193.158 77.8683C193.23 77.5383 193.551 77.3209 193.889 77.3934C195.335 77.6993 196.789 78.0374 198.211 78.3996C198.54 78.4801 198.741 78.8182 198.652 79.1482C198.588 79.43 198.339 79.6151 198.066 79.6151ZM141.191 79.3414C140.91 79.3414 140.661 79.1482 140.597 78.8665C140.516 78.5365 140.717 78.2064 141.047 78.1259C142.476 77.7798 143.938 77.4578 145.384 77.1599C145.722 77.0955 146.043 77.3048 146.107 77.6429C146.172 77.973 145.963 78.303 145.625 78.3674C144.196 78.6572 142.75 78.9792 141.336 79.3253C141.288 79.3334 141.239 79.3414 141.191 79.3414ZM187.679 77.4819C187.647 77.4819 187.615 77.4819 187.583 77.4739C186.145 77.2485 184.675 77.0392 183.229 76.8701C182.891 76.8299 182.65 76.524 182.691 76.1859C182.731 75.8478 183.036 75.6063 183.373 75.6465C184.835 75.8236 186.313 76.0249 187.767 76.2583C188.105 76.3147 188.33 76.6286 188.282 76.9667C188.241 77.2646 187.976 77.4819 187.679 77.4819ZM151.594 77.3129C151.297 77.3129 151.032 77.0955 150.984 76.7896C150.935 76.4515 151.168 76.1376 151.506 76.0893C152.96 75.8719 154.446 75.6787 155.908 75.5177C156.245 75.4775 156.551 75.727 156.583 76.0651C156.623 76.4032 156.374 76.7091 156.036 76.7413C154.582 76.9023 153.12 77.0955 151.682 77.3048C151.658 77.3129 151.626 77.3129 151.594 77.3129ZM177.148 76.2905C177.132 76.2905 177.124 76.2905 177.107 76.2905C175.653 76.1939 174.175 76.1215 172.721 76.0732C172.384 76.0651 172.119 75.7753 172.127 75.4372C172.135 75.0991 172.416 74.8254 172.762 74.8415C174.24 74.8898 175.726 74.9623 177.196 75.0589C177.533 75.083 177.79 75.3728 177.766 75.719C177.742 76.041 177.469 76.2905 177.148 76.2905ZM162.142 76.2261C161.82 76.2261 161.547 75.9766 161.531 75.6465C161.515 75.3084 161.772 75.0186 162.11 74.9945C163.58 74.9059 165.074 74.8496 166.544 74.8174C166.552 74.8174 166.552 74.8174 166.56 74.8174C166.897 74.8174 167.17 75.083 167.17 75.4211C167.178 75.7592 166.905 76.041 166.568 76.049C165.106 76.0812 163.628 76.1376 162.174 76.2261C162.166 76.2261 162.15 76.2261 162.142 76.2261Z" fill="white"/>
<path d="M6.8041 196.559H2.42602C1.08448 196.559 0 195.936 0 195.165V194.952C0 194.182 1.08448 193.559 2.42602 193.559H6.8041C8.14564 193.559 9.23012 194.182 9.23012 194.952V195.165C9.23815 195.936 8.14564 196.559 6.8041 196.559Z" fill="#09755D"/>
<path d="M323.52 196.559H15.4797C14.1382 196.559 13.0537 195.936 13.0537 195.165V194.952C13.0537 194.182 14.1382 193.559 15.4797 193.559H323.52C324.861 193.559 325.946 194.182 325.946 194.952V195.165C325.946 195.936 324.861 196.559 323.52 196.559Z" fill="#09755D"/>
<path d="M6.8041 196.559H2.42602C1.08448 196.559 0 195.936 0 195.165V194.952C0 194.182 1.08448 193.559 2.42602 193.559H6.8041C8.14564 193.559 9.23012 194.182 9.23012 194.952V195.165C9.23815 195.936 8.14564 196.559 6.8041 196.559Z" fill="#09755D"/>
<path d="M336.566 196.559H332.188C330.846 196.559 329.762 195.936 329.762 195.165V194.952C329.762 194.182 330.846 193.559 332.188 193.559H336.566C337.907 193.559 338.992 194.182 338.992 194.952V195.165C339 195.936 337.907 196.559 336.566 196.559Z" fill="#09755D"/>
<path d="M26.5336 84.0908H28.8713C29.2007 84.0908 29.4738 84.3565 29.4738 84.6946C29.4738 85.0246 29.2087 85.2983 28.8713 85.2983H26.5336C26.2043 85.2983 25.9312 85.0327 25.9312 84.6946C25.9312 84.5255 25.9954 84.3806 26.1079 84.2679C26.2203 84.1552 26.3649 84.0908 26.5336 84.0908Z" fill="#09755D"/>
<path d="M35.2497 84.6787C35.2497 84.8478 35.1854 85.0007 35.0729 85.1134C34.9605 85.2261 34.8159 85.2905 34.6472 85.2905H32.3095C31.9802 85.2905 31.707 85.0248 31.707 84.6868C31.707 84.3567 31.9721 84.083 32.3095 84.083H34.6311C34.9685 84.0911 35.2416 84.3487 35.2497 84.6787Z" fill="#09755D"/>
<path d="M31.1928 80.6213V82.9639C31.1928 83.2939 30.9277 83.5676 30.5903 83.5676C30.2609 83.5676 29.9878 83.302 29.9878 82.9639V80.6213C29.9878 80.2913 30.2529 80.0176 30.5903 80.0176C30.759 80.0176 30.9036 80.082 31.016 80.1947C31.1285 80.3074 31.1928 80.4603 31.1928 80.6213Z" fill="#09755D"/>
<path d="M30.5903 85.8135C30.9196 85.8135 31.1928 86.0791 31.1928 86.4172V88.7598C31.1928 89.0898 30.9277 89.3635 30.5903 89.3635C30.4216 89.3635 30.277 89.2991 30.1645 89.1864C30.0521 89.0737 29.9878 88.9288 29.9878 88.7598V86.4172C29.9878 86.0872 30.2609 85.8135 30.5903 85.8135Z" fill="#09755D"/>
<path d="M95.4021 10.1191C93.7071 10.1191 92.3254 11.4957 92.3254 13.2023C92.3254 14.9008 93.6991 16.2854 95.4021 16.2854C97.0971 16.2854 98.4789 14.9089 98.4789 13.2023C98.4789 11.5037 97.0971 10.1191 95.4021 10.1191ZM95.4021 15.3033C94.2454 15.3033 93.3055 14.3615 93.3055 13.2023C93.3055 12.0431 94.2454 11.1012 95.4021 11.1012C96.5589 11.1012 97.4988 12.0431 97.4988 13.2023C97.4988 14.3615 96.5589 15.3033 95.4021 15.3033Z" fill="#09755D"/>
<path d="M87.7546 150.816H90.0922C90.4216 150.816 90.6947 151.082 90.6947 151.42C90.6947 151.75 90.4296 152.024 90.0922 152.024H87.7546C87.4252 152.024 87.1521 151.758 87.1521 151.42C87.1521 151.251 87.2164 151.106 87.3288 150.994C87.4413 150.881 87.5939 150.816 87.7546 150.816Z" fill="#09755D"/>
<path d="M96.4787 151.404C96.4787 151.573 96.4144 151.726 96.3019 151.839C96.1895 151.952 96.0449 152.016 95.8762 152.016H93.5385C93.2092 152.016 92.936 151.75 92.936 151.412C92.936 151.082 93.2011 150.809 93.5385 150.809H95.8601C96.1895 150.817 96.4706 151.074 96.4787 151.404Z" fill="#09755D"/>
<path d="M92.4137 147.347V149.689C92.4137 150.019 92.1486 150.293 91.8112 150.293C91.4819 150.293 91.2087 150.028 91.2087 149.689V147.347C91.2087 147.017 91.4738 146.743 91.8112 146.743C91.9799 146.743 92.1245 146.808 92.237 146.92C92.3494 147.033 92.4137 147.178 92.4137 147.347Z" fill="#09755D"/>
<path d="M91.8193 152.539C92.1486 152.539 92.4218 152.805 92.4218 153.143V155.485C92.4218 155.815 92.1567 156.089 91.8193 156.089C91.6506 156.089 91.506 156.025 91.3935 155.912C91.2811 155.799 91.2168 155.654 91.2168 155.485V153.143C91.2168 152.813 91.4819 152.539 91.8193 152.539Z" fill="#09755D"/>
<path d="M31.7953 172.865C29.9397 172.865 28.4294 174.371 28.4294 176.238C28.4294 178.098 29.9316 179.611 31.7953 179.611C33.651 179.611 35.1612 178.106 35.1612 176.238C35.1612 174.379 33.651 172.865 31.7953 172.865ZM31.7953 178.114C30.7671 178.114 29.9236 177.277 29.9236 176.238C29.9236 175.208 30.7591 174.363 31.7953 174.363C32.8236 174.363 33.6671 175.2 33.6671 176.238C33.6671 177.269 32.8316 178.114 31.7953 178.114Z" fill="#09755D"/>
<path d="M232.496 181.044H235.26C235.653 181.044 235.966 181.366 235.966 181.752C235.966 182.147 235.645 182.461 235.26 182.461H232.496C232.103 182.461 231.789 182.139 231.789 181.752C231.789 181.559 231.87 181.374 231.998 181.245C232.127 181.116 232.303 181.044 232.496 181.044Z" fill="#09755D"/>
<path d="M242.811 181.736C242.811 181.938 242.731 182.123 242.602 182.251C242.474 182.38 242.297 182.461 242.096 182.461H239.332C238.939 182.461 238.625 182.139 238.625 181.752C238.625 181.358 238.947 181.044 239.332 181.044H242.08C242.474 181.044 242.811 181.35 242.811 181.736Z" fill="#09755D"/>
<path d="M238.015 176.939V179.708C238.015 180.102 237.694 180.416 237.308 180.416C236.914 180.416 236.601 180.094 236.601 179.708V176.939C236.601 176.544 236.922 176.23 237.308 176.23C237.501 176.23 237.686 176.311 237.814 176.44C237.935 176.569 238.015 176.746 238.015 176.939Z" fill="#09755D"/>
<path d="M237.3 183.089C237.694 183.089 238.007 183.411 238.007 183.797V186.566C238.007 186.961 237.686 187.275 237.3 187.275C237.107 187.275 236.922 187.194 236.794 187.066C236.665 186.937 236.585 186.76 236.585 186.558V183.789C236.593 183.403 236.906 183.089 237.3 183.089Z" fill="#09755D"/>
<path d="M190.989 6.27148H193.383C193.72 6.27148 194.001 6.54518 194.001 6.89133C194.001 7.22943 193.728 7.51118 193.383 7.51118H190.989C190.651 7.51118 190.37 7.23748 190.37 6.89133C190.37 6.72228 190.442 6.56933 190.547 6.45663C190.667 6.34393 190.82 6.27148 190.989 6.27148Z" fill="#09755D"/>
<path d="M199.938 6.87547C199.938 7.05257 199.873 7.20552 199.761 7.32626C199.648 7.43896 199.496 7.50336 199.327 7.50336H196.933C196.596 7.50336 196.315 7.22967 196.315 6.88352C196.315 6.54542 196.588 6.26367 196.933 6.26367H199.311C199.648 6.27172 199.93 6.53737 199.938 6.87547Z" fill="#09755D"/>
<path d="M195.776 2.7136V5.11248C195.776 5.45058 195.503 5.73232 195.158 5.73232C194.82 5.73232 194.539 5.45863 194.539 5.11248V2.7136C194.539 2.3755 194.812 2.09375 195.158 2.09375C195.327 2.09375 195.479 2.1662 195.592 2.27085C195.704 2.3916 195.776 2.54455 195.776 2.7136Z" fill="#09755D"/>
<path d="M195.158 8.04297C195.495 8.04297 195.776 8.31667 195.776 8.66281V11.0617C195.776 11.3998 195.503 11.6815 195.158 11.6815C194.989 11.6815 194.836 11.6091 194.724 11.5044C194.612 11.3917 194.547 11.2388 194.547 11.0697V8.67086C194.539 8.32472 194.812 8.04297 195.158 8.04297Z" fill="#09755D"/>
<path d="M320.331 132.97H322.669C322.998 132.97 323.271 133.235 323.271 133.573C323.271 133.904 323.006 134.177 322.669 134.177H320.331C320.002 134.177 319.729 133.912 319.729 133.573C319.729 133.404 319.793 133.26 319.905 133.147C320.01 133.042 320.162 132.97 320.331 132.97Z" fill="#09755D"/>
<path d="M329.047 133.565C329.047 133.734 328.983 133.887 328.87 134C328.758 134.113 328.613 134.177 328.444 134.177H326.107C325.777 134.177 325.504 133.912 325.504 133.573C325.504 133.243 325.769 132.97 326.107 132.97H328.428C328.766 132.97 329.039 133.235 329.047 133.565Z" fill="#09755D"/>
<path d="M324.99 129.508V131.851C324.99 132.181 324.725 132.454 324.388 132.454C324.058 132.454 323.785 132.189 323.785 131.851V129.508C323.785 129.178 324.05 128.904 324.388 128.904C324.556 128.904 324.701 128.969 324.813 129.081C324.918 129.186 324.99 129.339 324.99 129.508Z" fill="#09755D"/>
<path d="M324.388 134.7C324.717 134.7 324.99 134.966 324.99 135.304V137.646C324.99 137.977 324.725 138.25 324.388 138.25C324.219 138.25 324.074 138.186 323.962 138.073C323.849 137.96 323.785 137.816 323.785 137.646V135.304C323.785 134.966 324.058 134.7 324.388 134.7Z" fill="#09755D"/>
<path d="M85.4491 72.7321L85.5053 72.2491L85.4491 72.7321C84.0352 72.5792 82.6776 72.2008 81.4004 71.6051C81.1594 71.4924 81.0549 71.2026 81.1674 70.9611C81.2799 70.7196 81.5691 70.615 81.8101 70.7277C82.9909 71.2751 84.2521 71.6293 85.5535 71.7661L85.5053 72.2491L85.4491 72.7321ZM91.1045 72.0479C90.9117 72.0479 90.7269 71.9271 90.6546 71.7339C90.5662 71.4844 90.6948 71.2026 90.9438 71.1141C92.1729 70.6633 93.3056 70.0193 94.3338 69.1982C94.5427 69.0291 94.8479 69.0613 95.0086 69.2706C95.1773 69.4799 95.1452 69.7858 94.9363 69.9468C93.8357 70.8404 92.5986 71.5327 91.2731 72.0237C91.2169 72.0398 91.1607 72.0479 91.1045 72.0479ZM77.1588 68.1678C77.0142 68.1678 76.8777 68.1034 76.7813 67.9907C75.8896 66.8878 75.1987 65.6482 74.7087 64.328C74.6203 64.0784 74.7489 63.7967 74.9979 63.7081C75.2469 63.6196 75.5281 63.7484 75.6165 63.9979C76.0663 65.2296 76.709 66.3646 77.5364 67.395C77.7051 67.6043 77.673 67.9102 77.4641 68.0712C77.3757 68.1275 77.2633 68.1678 77.1588 68.1678ZM98.1094 65.5999C98.0451 65.5999 97.9728 65.5838 97.9086 65.5516C97.6676 65.4389 97.5631 65.1491 97.6756 64.9076C98.2219 63.7242 98.5753 62.4604 98.7199 61.1482V61.1241C98.7521 60.8584 98.985 60.6652 99.2501 60.6974C99.5152 60.7296 99.708 60.9631 99.6759 61.2287V61.2448C99.5232 62.6616 99.1457 64.0301 98.5512 65.3101C98.4629 65.4952 98.2942 65.5999 98.1094 65.5999ZM74.4838 59.023C74.4677 59.023 74.4516 59.023 74.4356 59.023C74.1705 58.9989 73.9777 58.7574 74.0018 58.4918V58.4757C74.1544 57.0669 74.532 55.6984 75.1184 54.4265C75.2309 54.185 75.5201 54.0804 75.7611 54.1931C76.0021 54.3058 76.1065 54.5956 75.994 54.8371C75.4478 56.0204 75.1023 57.2762 74.9577 58.5884V58.5964C74.9336 58.8379 74.7248 59.023 74.4838 59.023ZM98.5111 56.0607C98.3183 56.0607 98.1335 55.9399 98.0612 55.7467C97.6113 54.5151 96.9607 53.38 96.1413 52.3577C95.9726 52.1484 96.0047 51.8425 96.2136 51.6815C96.4224 51.5125 96.7277 51.5447 96.8884 51.754C97.78 52.8568 98.4789 54.0884 98.9609 55.4167C99.0493 55.6662 98.9288 55.948 98.6717 56.0365C98.6155 56.0526 98.5593 56.0607 98.5111 56.0607ZM79.0386 50.6592C78.894 50.6592 78.7574 50.5948 78.661 50.4821C78.4923 50.2728 78.5245 49.9669 78.7333 49.8059C79.8339 48.9123 81.063 48.22 82.3884 47.729C82.6375 47.6404 82.9186 47.7692 83.007 48.0188C83.0954 48.2683 82.9668 48.5501 82.7178 48.6386C81.4887 49.0894 80.356 49.7334 79.3358 50.5626C79.2555 50.6189 79.143 50.6592 79.0386 50.6592ZM92.0604 49.0492C91.9961 49.0492 91.9238 49.0331 91.8596 49.0009C90.6787 48.4535 89.4255 48.1073 88.1241 47.9624H88.1081C87.843 47.9383 87.6502 47.6968 87.6823 47.4311C87.7064 47.1655 87.9474 46.9723 88.2125 47.0045H88.2286C89.6344 47.1574 90.992 47.5358 92.2612 48.1234C92.5022 48.2361 92.6067 48.5259 92.4942 48.7674C92.4219 48.9445 92.2452 49.0492 92.0604 49.0492Z" fill="#FF9000"/>
<path d="M67.2537 76.032H67.2457C65.8158 76.032 64.3939 75.8791 63.0122 75.5732C62.7552 75.5168 62.5865 75.2592 62.6427 75.0016C62.6989 74.744 62.956 74.575 63.213 74.6313C64.5225 74.9211 65.8801 75.066 67.2377 75.066H67.2457C67.5108 75.066 67.7277 75.2834 67.7277 75.549C67.7357 75.8147 67.5188 76.032 67.2537 76.032ZM73.0055 75.1465C72.8047 75.1465 72.6119 75.0177 72.5476 74.8084C72.4673 74.5508 72.6119 74.2852 72.8609 74.2047C74.1542 73.7941 75.3994 73.2467 76.5722 72.5625C76.8052 72.4256 77.0944 72.5061 77.2309 72.7396C77.3675 72.973 77.2872 73.2628 77.0542 73.3997C75.8171 74.1161 74.5077 74.6957 73.1501 75.1224C73.1019 75.1385 73.0537 75.1465 73.0055 75.1465ZM57.6943 73.4721C57.6139 73.4721 57.5256 73.448 57.4533 73.4077C56.2242 72.6913 55.0594 71.846 54.0151 70.88C53.8223 70.7029 53.8062 70.397 53.9829 70.1958C54.1597 70.0026 54.4649 69.9865 54.6657 70.1636C55.6699 71.0813 56.7704 71.8943 57.9352 72.5705C58.1682 72.7074 58.2485 72.9972 58.112 73.2306C58.0236 73.3836 57.8629 73.4721 57.6943 73.4721ZM81.3439 69.8094C81.2314 69.8094 81.111 69.7691 81.0146 69.6806C80.8218 69.5035 80.8057 69.1976 80.9824 68.9963C81.8982 67.9982 82.7096 66.8873 83.3843 65.72C83.5209 65.4866 83.8101 65.4061 84.0431 65.5429C84.276 65.6798 84.3483 65.9696 84.2198 66.203C83.5048 67.4347 82.6614 68.5939 81.6974 69.6484C81.609 69.7611 81.4805 69.8094 81.3439 69.8094ZM50.6893 66.4687C50.5206 66.4687 50.36 66.3801 50.2716 66.2272C49.5566 64.9875 48.9783 63.6753 48.5445 62.3149C48.4641 62.0573 48.6087 61.7917 48.8578 61.7112C49.1148 61.6307 49.3799 61.7756 49.4603 62.0251C49.8699 63.3211 50.4162 64.5689 51.099 65.7442C51.2356 65.9776 51.1553 66.2674 50.9223 66.4043C50.858 66.4445 50.7697 66.4687 50.6893 66.4687ZM85.9228 61.0108C85.8907 61.0108 85.8505 61.0108 85.8184 61.0028C85.5613 60.9464 85.3926 60.6888 85.4489 60.4232C85.7381 59.103 85.8827 57.7425 85.8827 56.3821V56.3418C85.8827 56.0762 86.0996 55.8588 86.3646 55.8588C86.6297 55.8588 86.8466 56.0762 86.8466 56.3418V56.3821C86.8466 57.815 86.694 59.2479 86.3887 60.6325C86.3405 60.8579 86.1397 61.0108 85.9228 61.0108ZM48.1187 56.8892C47.8536 56.8892 47.6367 56.6719 47.6367 56.4062V56.3821C47.6367 54.9573 47.7894 53.5324 48.0946 52.1559C48.1508 51.8983 48.4079 51.7292 48.665 51.7856C48.922 51.8419 49.0907 52.0995 49.0345 52.3571C48.7453 53.6693 48.6007 55.0217 48.6007 56.3821V56.4062C48.6007 56.6719 48.3918 56.8892 48.1187 56.8892ZM85.473 51.0611C85.2721 51.0611 85.0793 50.9323 85.0151 50.723C84.6054 49.435 84.0511 48.1792 83.3683 47.0039C83.2317 46.7705 83.312 46.4807 83.545 46.3438C83.778 46.207 84.0672 46.2875 84.2037 46.5209C84.9187 47.7606 85.5051 49.0727 85.9309 50.4332C86.0112 50.6908 85.8746 50.9564 85.6176 51.0369C85.5694 51.0611 85.5212 51.0611 85.473 51.0611ZM50.6652 47.3098C50.5849 47.3098 50.5046 47.2857 50.4242 47.2454C50.1913 47.1086 50.1109 46.8188 50.2475 46.5853C50.9544 45.3537 51.8059 44.1864 52.7699 43.1319C52.9466 42.9387 53.2519 42.9226 53.4527 43.0997C53.6455 43.2768 53.6616 43.5827 53.4849 43.7839C52.5691 44.7902 51.7658 45.893 51.083 47.0683C50.9946 47.2213 50.8339 47.3098 50.6652 47.3098ZM80.1389 42.7133C80.0265 42.7133 79.906 42.673 79.8176 42.5845C78.8135 41.6668 77.7129 40.8618 76.5401 40.1856C76.3071 40.0488 76.2268 39.759 76.3633 39.5255C76.4999 39.2921 76.7891 39.2116 77.0221 39.3484C78.2511 40.0568 79.416 40.9101 80.4683 41.8761C80.6611 42.0532 80.6772 42.3591 80.5004 42.5603C80.396 42.6569 80.2675 42.7133 80.1389 42.7133ZM57.6621 40.2822C57.4934 40.2822 57.3328 40.1937 57.2444 40.0407C57.1078 39.8073 57.1882 39.5175 57.4211 39.3806C58.6582 38.6642 59.9676 38.0846 61.3252 37.6499C61.5823 37.5694 61.8474 37.7062 61.9277 37.9638C62.0081 38.2214 61.8715 38.4871 61.6144 38.5676C60.3291 38.9781 59.076 39.5336 57.9031 40.2098C57.8228 40.2661 57.7424 40.2822 57.6621 40.2822ZM71.3506 38.149C71.3185 38.149 71.2784 38.149 71.2462 38.1409C69.9368 37.8511 68.5953 37.7062 67.2457 37.7062H67.2136C66.9485 37.7062 66.7316 37.4889 66.7316 37.2232C66.7316 36.9576 66.9485 36.7402 67.2136 36.7402H67.2457C68.6676 36.7402 70.0814 36.8932 71.4551 37.191C71.7121 37.2474 71.8808 37.505 71.8246 37.7626C71.7764 37.996 71.5756 38.149 71.3506 38.149Z" fill="#FF9000"/>
<path d="M259.113 87.661C259.091 87.661 259.069 87.661 259.058 87.661C257.259 87.496 255.449 87.2102 253.693 86.7814C253.342 86.6934 253.122 86.3415 253.21 85.9897C253.298 85.6378 253.649 85.4179 254 85.5059C255.69 85.9127 257.435 86.1986 259.168 86.3525C259.53 86.3855 259.794 86.7044 259.761 87.0672C259.728 87.4081 259.443 87.661 259.113 87.661ZM266.575 87.562C266.245 87.562 265.96 87.3091 265.916 86.9793C265.872 86.6164 266.136 86.2866 266.498 86.2536C268.231 86.0557 269.965 85.7258 271.644 85.286C271.995 85.198 272.357 85.407 272.445 85.7588C272.533 86.1107 272.324 86.4735 271.973 86.5614C270.228 87.0233 268.44 87.3641 266.629 87.562C266.619 87.562 266.597 87.562 266.575 87.562ZM246.791 84.3294C246.693 84.3294 246.605 84.3074 246.517 84.2634C244.882 83.4938 243.291 82.5921 241.777 81.5916C241.47 81.3936 241.393 80.9758 241.59 80.6789C241.788 80.3711 242.194 80.2941 242.501 80.492C243.96 81.4596 245.497 82.3283 247.077 83.065C247.406 83.2189 247.548 83.6147 247.395 83.9446C247.274 84.1865 247.044 84.3294 246.791 84.3294ZM278.809 83.9446C278.567 83.9446 278.337 83.8126 278.216 83.5817C278.052 83.2519 278.183 82.856 278.513 82.7021C280.071 81.9214 281.585 81.0198 283.011 80.0192C283.308 79.8103 283.725 79.8873 283.933 80.1842C284.141 80.481 284.065 80.8989 283.768 81.1078C282.287 82.1413 280.718 83.076 279.105 83.8896C279.006 83.9226 278.908 83.9446 278.809 83.9446ZM236.367 76.9625C236.203 76.9625 236.027 76.8966 235.907 76.7646C234.634 75.4782 233.438 74.0928 232.363 72.6414C232.143 72.3445 232.209 71.9377 232.494 71.7178C232.79 71.4979 233.196 71.5638 233.416 71.8497C234.458 73.2461 235.61 74.5875 236.839 75.83C237.092 76.0829 237.092 76.5007 236.839 76.7646C236.697 76.9076 236.532 76.9625 236.367 76.9625ZM289.046 76.3248C288.882 76.3248 288.717 76.2698 288.596 76.1489C288.333 75.896 288.322 75.4782 288.574 75.2143C289.77 73.9498 290.89 72.5754 291.899 71.146C292.107 70.8491 292.524 70.7722 292.821 70.9921C293.117 71.201 293.194 71.6188 292.974 71.9157C291.932 73.4 290.78 74.8074 289.529 76.1269C289.397 76.2588 289.222 76.3248 289.046 76.3248ZM229.06 66.484C228.807 66.484 228.577 66.341 228.467 66.0991C227.71 64.4608 227.063 62.7456 226.547 61.0083C226.448 60.6565 226.646 60.2936 226.986 60.1837C227.337 60.0847 227.699 60.2826 227.809 60.6235C228.303 62.2948 228.928 63.955 229.663 65.5384C229.817 65.8682 229.674 66.2641 229.345 66.418C229.246 66.473 229.159 66.484 229.06 66.484ZM296.09 65.6703C296.003 65.6703 295.915 65.6483 295.827 65.6154C295.498 65.4724 295.344 65.0766 295.487 64.7467C296.189 63.1414 296.771 61.4701 297.221 59.7878C297.319 59.436 297.681 59.2271 298.033 59.326C298.384 59.425 298.592 59.7878 298.493 60.1397C298.022 61.8879 297.418 63.6142 296.694 65.2745C296.584 65.5274 296.343 65.6703 296.09 65.6703ZM225.79 54.1362C225.45 54.1362 225.165 53.8833 225.132 53.5315V53.4875C225.044 52.4319 225 51.3544 225 50.2879C225 49.5512 225.022 48.8145 225.066 48.0778C225.088 47.715 225.395 47.4291 225.757 47.4621C226.119 47.4841 226.394 47.7919 226.372 48.1548C226.328 48.8585 226.306 49.5732 226.306 50.2879C226.306 51.3104 226.35 52.355 226.437 53.3775V53.4105C226.47 53.7734 226.207 54.0922 225.845 54.1252C225.834 54.1362 225.812 54.1362 225.79 54.1362ZM299.064 53.2346C299.053 53.2346 299.042 53.2346 299.02 53.2346C298.658 53.2126 298.384 52.9047 298.406 52.5419C298.45 51.8272 298.472 51.1015 298.472 50.3758C298.472 49.3533 298.428 48.3087 298.34 47.2861L298.329 47.2092C298.296 46.8463 298.57 46.5275 298.932 46.4945C299.294 46.4615 299.613 46.7364 299.646 47.0992L299.657 47.1762C299.744 48.2427 299.788 49.3203 299.788 50.3758C299.788 51.1235 299.766 51.8822 299.722 52.6189C299.7 52.9707 299.415 53.2346 299.064 53.2346ZM226.92 41.4036C226.865 41.4036 226.81 41.3926 226.745 41.3816C226.394 41.2827 226.185 40.9198 226.284 40.568C226.756 38.8197 227.359 37.0935 228.083 35.4222C228.226 35.0923 228.621 34.9384 228.95 35.0813C229.279 35.2242 229.433 35.6201 229.29 35.9499C228.599 37.5553 228.006 39.2265 227.557 40.9088C227.48 41.2057 227.205 41.4036 226.92 41.4036ZM297.605 40.469C297.319 40.469 297.056 40.2821 296.979 39.9962C296.485 38.3249 295.86 36.6646 295.125 35.0813C294.971 34.7514 295.114 34.3556 295.443 34.2017C295.772 34.0477 296.167 34.1907 296.321 34.5205C297.078 36.1589 297.725 37.8741 298.241 39.6114C298.34 39.9632 298.142 40.3261 297.802 40.436C297.725 40.458 297.671 40.469 297.605 40.469ZM232.341 29.8255C232.209 29.8255 232.077 29.7816 231.968 29.7046C231.671 29.4957 231.594 29.0889 231.803 28.781C232.845 27.2966 233.997 25.8782 235.237 24.5698C235.49 24.3059 235.907 24.2949 236.17 24.5478C236.433 24.8007 236.444 25.2185 236.192 25.4824C234.996 26.7469 233.877 28.1213 232.878 29.5507C232.747 29.7266 232.549 29.8255 232.341 29.8255ZM291.888 29.0449C291.691 29.0449 291.493 28.9569 291.361 28.781C290.319 27.3846 289.167 26.0431 287.938 24.8007C287.686 24.5478 287.686 24.13 287.938 23.8661C288.19 23.6132 288.607 23.6132 288.871 23.8661C290.143 25.1525 291.339 26.5379 292.426 27.9893C292.645 28.2862 292.579 28.693 292.294 28.9129C292.162 29.0009 292.031 29.0449 291.888 29.0449ZM241.371 20.7984C241.162 20.7984 240.954 20.6994 240.833 20.5125C240.625 20.2156 240.702 19.7978 240.998 19.5889C242.479 18.5553 244.048 17.6097 245.661 16.8071C245.99 16.6421 246.385 16.7741 246.55 17.1039C246.714 17.4338 246.583 17.8296 246.254 17.9946C244.696 18.7752 243.181 19.6768 241.755 20.6774C241.634 20.7654 241.503 20.7984 241.371 20.7984ZM282.616 20.2596C282.496 20.2596 282.364 20.2266 282.254 20.1497C280.795 19.1821 279.259 18.3244 277.679 17.5767C277.35 17.4228 277.207 17.027 277.361 16.6971C277.514 16.3673 277.909 16.2243 278.238 16.3782C279.873 17.1479 281.464 18.0386 282.978 19.0391C283.286 19.237 283.362 19.6439 283.165 19.9517C283.044 20.1606 282.836 20.2596 282.616 20.2596ZM252.936 15.4217C252.64 15.4217 252.376 15.2237 252.299 14.9269C252.212 14.575 252.42 14.2122 252.771 14.1242C254.516 13.6624 256.304 13.3216 258.104 13.1126C258.466 13.0687 258.795 13.3325 258.828 13.6954C258.861 14.0582 258.609 14.3881 258.247 14.4211C256.513 14.619 254.779 14.9489 253.1 15.3997C253.046 15.4107 252.991 15.4217 252.936 15.4217ZM270.92 15.1798C270.865 15.1798 270.821 15.1688 270.766 15.1578C269.076 14.7509 267.332 14.4761 265.598 14.3221C265.236 14.2891 264.973 13.9703 264.995 13.6074C265.027 13.2446 265.346 12.9697 265.708 13.0027C267.507 13.1566 269.318 13.4535 271.073 13.8713C271.424 13.9593 271.644 14.3111 271.556 14.663C271.479 14.9708 271.216 15.1798 270.92 15.1798Z" fill="#FF9000"/>
<path d="M42.0312 129.781H109.219V196.969H42.0312V129.781Z" fill="url(#paint1_linear_623_106889)" stroke="#09755D" stroke-width="3" stroke-miterlimit="10" stroke-linecap="round" stroke-linejoin="round"/>
<path d="M109.219 129.781H42.0312L52.7812 119.031H119.969L109.219 129.781Z" fill="url(#paint2_linear_623_106889)" stroke="#09755D" stroke-width="3" stroke-miterlimit="10" stroke-linecap="round" stroke-linejoin="round"/>
<path d="M42.0312 169.193C51.9522 180.341 67.8192 187.562 85.7031 187.562C94.1258 187.562 102.101 185.959 109.219 183.1V196.969H42.0312V169.193Z" fill="#09755D" fill-opacity="0.34"/>
<path d="M119.969 119.031L109.219 129.781V196.969L119.159 196.159L119.969 119.031Z" fill="url(#paint3_linear_623_106889)" stroke="#09755D" stroke-width="3" stroke-miterlimit="10" stroke-linecap="round" stroke-linejoin="round"/>
<path d="M70.25 129.781H81V196.969H70.25V129.781Z" fill="url(#paint4_linear_623_106889)" stroke="#C26900" stroke-width="2" stroke-miterlimit="10" stroke-linecap="round" stroke-linejoin="round"/>
<path d="M81 129.781H70.25L81 119.031H91.75L81 129.781Z" fill="url(#paint5_linear_623_106889)" stroke="#C26900" stroke-width="2" stroke-miterlimit="10" stroke-linecap="round" stroke-linejoin="round"/>
<path d="M56.8125 179.5H66.2188V182.188H56.8125V179.5ZM51.4375 179.5H54.125V182.188H51.4375V179.5ZM46.0625 179.5H48.75V182.188H46.0625V179.5ZM46.0625 190.25H66.2188V192.938H46.0625V190.25ZM46.0625 184.875H66.2188V187.562H46.0625V184.875Z" fill="white"/>
</g>
<path d="M119.323 26.1578L156.765 31.6318L174 74.2628L136.557 68.7888L119.323 26.1578Z" fill="#07876A" stroke="#09755D" stroke-width="1.5" stroke-miterlimit="10" stroke-linecap="round" stroke-linejoin="round"/>
<path d="M289.888 91.2061L172.489 74.0424L197.594 116.281L314.993 133.445L289.888 91.2061Z" fill="url(#paint6_linear_623_106889)" stroke="#09755D" stroke-width="1.5" stroke-miterlimit="10" stroke-linecap="round" stroke-linejoin="round"/>
<rect x="134.729" y="68.5215" width="119.068" height="106.856" transform="rotate(8.31768 134.729 68.5215)" fill="url(#paint7_linear_623_106889)" stroke="#09755D" stroke-width="1.5" stroke-miterlimit="10" stroke-linecap="round" stroke-linejoin="round"/>
<path d="M135.147 68.582L252.546 85.7457L216.399 119.03L99 101.866L135.147 68.582Z" fill="url(#paint8_linear_623_106889)" stroke="#09755D" stroke-width="1.5" stroke-miterlimit="10" stroke-linecap="round" stroke-linejoin="round"/>
<rect x="252.545" y="85.7461" width="38.1629" height="106.856" transform="rotate(8.31768 252.545 85.7461)" fill="url(#paint9_linear_623_106889)" stroke="#09755D" stroke-width="1.5" stroke-miterlimit="10" stroke-linecap="round" stroke-linejoin="round"/>
<path d="M252.543 85.7456L289.985 91.2196L318.703 55.3068L281.26 49.8327L252.543 85.7456Z" fill="url(#paint10_linear_623_106889)" stroke="#09755D" stroke-width="1.5" stroke-miterlimit="10" stroke-linecap="round" stroke-linejoin="round"/>
<defs>
<linearGradient id="paint0_linear_623_106889" x1="260.566" y1="58.7319" x2="206.631" y2="230.789" gradientUnits="userSpaceOnUse">
<stop stop-color="#FDDF76" stop-opacity="0.5"/>
<stop offset="1" stop-color="white" stop-opacity="0"/>
</linearGradient>
<linearGradient id="paint1_linear_623_106889" x1="64.914" y1="144.594" x2="94.3262" y2="185.777" gradientUnits="userSpaceOnUse">
<stop stop-color="#07876A"/>
<stop offset="1" stop-color="#ECFFFB"/>
</linearGradient>
<linearGradient id="paint2_linear_623_106889" x1="105.798" y1="124.059" x2="28.6189" y2="225.887" gradientUnits="userSpaceOnUse">
<stop offset="0.240523" stop-color="#07876A"/>
<stop offset="1" stop-color="#ECFFFB"/>
</linearGradient>
<linearGradient id="paint3_linear_623_106889" x1="118.014" y1="124.059" x2="89.7732" y2="129.199" gradientUnits="userSpaceOnUse">
<stop offset="0.240523" stop-color="#07876A"/>
<stop offset="1" stop-color="#ECFFFB"/>
</linearGradient>
<linearGradient id="paint4_linear_623_106889" x1="70.25" y1="129.781" x2="82.1604" y2="143.586" gradientUnits="userSpaceOnUse">
<stop stop-color="#FF9000"/>
<stop offset="1" stop-color="#FFC843"/>
</linearGradient>
<linearGradient id="paint5_linear_623_106889" x1="70.25" y1="119.031" x2="70.5147" y2="122.866" gradientUnits="userSpaceOnUse">
<stop stop-color="#FF9000"/>
<stop offset="1" stop-color="#FFC843"/>
</linearGradient>
<linearGradient id="paint6_linear_623_106889" x1="297.853" y1="131.816" x2="249.86" y2="89.3866" gradientUnits="userSpaceOnUse">
<stop stop-color="#07876A"/>
<stop offset="1" stop-color="#ECFFFB"/>
</linearGradient>
<linearGradient id="paint7_linear_623_106889" x1="175.281" y1="102.129" x2="245.546" y2="178.978" gradientUnits="userSpaceOnUse">
<stop stop-color="#07876A"/>
<stop offset="1" stop-color="#ECFFFB"/>
</linearGradient>
<linearGradient id="paint8_linear_623_106889" x1="150.334" y1="71.6789" x2="119.252" y2="134.305" gradientUnits="userSpaceOnUse">
<stop stop-color="#07876A"/>
<stop offset="1" stop-color="#ECFFFB"/>
</linearGradient>
<linearGradient id="paint9_linear_623_106889" x1="283.769" y1="92.64" x2="199.011" y2="132.578" gradientUnits="userSpaceOnUse">
<stop offset="0.240523" stop-color="#07876A"/>
<stop offset="1" stop-color="#ECFFFB"/>
</linearGradient>
<linearGradient id="paint10_linear_623_106889" x1="308.491" y1="53.8138" x2="233.403" y2="58.7578" gradientUnits="userSpaceOnUse">
<stop offset="0.193349" stop-color="#07876A"/>
<stop offset="1" stop-color="#ECFFFB"/>
</linearGradient>
<clipPath id="clip0_623_106889">
<rect width="339" height="196" fill="white"/>
</clipPath>
</defs>
</svg>
