<svg width="28" height="29" viewBox="0 0 28 29" fill="none" xmlns="http://www.w3.org/2000/svg">
<g clip-path="url(#clip0_389_43097)">
<path d="M13.125 23.7813L12.25 24.2251L10.5 23.3375L8.75 24.2251L7 23.3375L5.25 24.2251V12.2429V10.024V4.25481C5.25 3.54475 5.8625 2.92345 6.5625 2.92345C7.2625 2.92345 7.875 3.54475 7.875 4.25481V3.36724C7.875 2.65718 8.4875 2.03588 9.1875 2.03588C9.8875 2.03588 10.5 2.65718 10.5 3.36724V2.47967C10.5 1.76961 11.1125 1.14832 11.8125 1.14832C12.5125 1.14832 13.125 1.76961 13.125 2.47967V3.36724C13.125 2.65718 13.7375 2.03588 14.4375 2.03588C15.1375 2.03588 15.75 2.65718 15.75 3.36724" fill="url(#paint0_linear_389_43097)"/>
<path d="M13.125 23.7813L12.25 24.2251L10.5 23.3375L8.75 24.2251L7 23.3375L5.25 24.2251V12.2429V10.024V4.25481C5.25 3.54475 5.8625 2.92345 6.5625 2.92345C7.2625 2.92345 7.875 3.54475 7.875 4.25481V3.36724C7.875 2.65718 8.4875 2.03588 9.1875 2.03588C9.8875 2.03588 10.5 2.65718 10.5 3.36724V2.47967C10.5 1.76961 11.1125 1.14832 11.8125 1.14832C12.5125 1.14832 13.125 1.76961 13.125 2.47967V3.36724C13.125 2.65718 13.7375 2.03588 14.4375 2.03588C15.1375 2.03588 15.75 2.65718 15.75 3.36724" stroke="#09755D" stroke-width="2" stroke-miterlimit="10" stroke-linecap="round" stroke-linejoin="round"/>
<path d="M13.125 19.6985V27.7754L14.875 26.8878L16.625 27.7754L18.375 26.8878L20.125 27.7754L21.875 26.8878L23.625 27.7754V15.7932V13.5743V7.80507C23.625 7.09501 23.0125 6.47372 22.3125 6.47372C21.6125 6.47372 21 7.09501 21 7.80507V6.9175C21 6.20744 20.3875 5.58615 19.6875 5.58615C18.9875 5.58615 18.375 6.20744 18.375 6.9175V6.02993C18.375 5.31988 17.7625 4.69858 17.0625 4.69858C16.3625 4.69858 15.75 5.31988 15.75 6.02993V6.9175C15.75 6.20744 15.1375 5.58615 14.4375 5.58615C13.7375 5.58615 13.125 6.20744 13.125 6.9175V13.5743V15.7044L10.9375 13.4855C10.4125 12.953 9.53749 12.953 8.92499 13.4855C8.31249 14.0181 8.39999 14.9056 8.92499 15.5269L13.125 19.6985Z" fill="url(#paint1_linear_389_43097)" stroke="#09755D" stroke-width="2" stroke-miterlimit="10" stroke-linecap="round" stroke-linejoin="round"/>
<path d="M15.75 13.7011V7.4881" stroke="white" stroke-width="1.5" stroke-miterlimit="10" stroke-linecap="round" stroke-linejoin="round"/>
<path d="M18.375 13.7011V7.4881" stroke="white" stroke-width="1.5" stroke-miterlimit="10" stroke-linecap="round" stroke-linejoin="round"/>
<path d="M21 13.7011V8.37567" stroke="white" stroke-width="1.5" stroke-miterlimit="10" stroke-linecap="round" stroke-linejoin="round"/>
</g>
<defs>
<linearGradient id="paint0_linear_389_43097" x1="10.5" y1="1.14832" x2="-7.71501" y2="17.4878" gradientUnits="userSpaceOnUse">
<stop stop-color="#07876A"/>
<stop offset="1" stop-color="#07876A" stop-opacity="0"/>
</linearGradient>
<linearGradient id="paint1_linear_389_43097" x1="16.0614" y1="4.69858" x2="-1.6748" y2="27.6198" gradientUnits="userSpaceOnUse">
<stop stop-color="#07876A"/>
<stop offset="1" stop-color="#07876A" stop-opacity="0"/>
</linearGradient>
<clipPath id="clip0_389_43097">
<rect width="28" height="28.4022" fill="white" transform="translate(0 0.260742)"/>
</clipPath>
</defs>
</svg>
