<svg width="28" height="30" viewBox="0 0 28 30" fill="none" xmlns="http://www.w3.org/2000/svg">
<g clip-path="url(#clip0_389_43060)">
<path d="M13.125 24.1726L12.25 24.6163L10.5 23.7288L8.75 24.6163L7 23.7288L5.25 24.6163V12.6342V10.4152V4.64604C5.25 3.93599 5.8625 3.31469 6.5625 3.31469C7.2625 3.31469 7.875 3.93599 7.875 4.64604V3.75847C7.875 3.04842 8.4875 2.42712 9.1875 2.42712C9.8875 2.42712 10.5 3.04842 10.5 3.75847V2.8709C10.5 2.16085 11.1125 1.53955 11.8125 1.53955C12.5125 1.53955 13.125 2.16085 13.125 2.8709V3.75847C13.125 3.04842 13.7375 2.42712 14.4375 2.42712C15.1375 2.42712 15.75 3.04842 15.75 3.75847" fill="url(#paint0_linear_389_43060)"/>
<path d="M13.125 24.1726L12.25 24.6163L10.5 23.7288L8.75 24.6163L7 23.7288L5.25 24.6163V12.6342V10.4152V4.64604C5.25 3.93599 5.8625 3.31469 6.5625 3.31469C7.2625 3.31469 7.875 3.93599 7.875 4.64604V3.75847C7.875 3.04842 8.4875 2.42712 9.1875 2.42712C9.8875 2.42712 10.5 3.04842 10.5 3.75847V2.8709C10.5 2.16085 11.1125 1.53955 11.8125 1.53955C12.5125 1.53955 13.125 2.16085 13.125 2.8709V3.75847C13.125 3.04842 13.7375 2.42712 14.4375 2.42712C15.1375 2.42712 15.75 3.04842 15.75 3.75847" stroke="#09755D" stroke-width="2" stroke-miterlimit="10" stroke-linecap="round" stroke-linejoin="round"/>
<path d="M13.125 20.0898V28.1666L14.875 27.2791L16.625 28.1666L18.375 27.2791L20.125 28.1666L21.875 27.2791L23.625 28.1666V16.1845V13.9655V8.19633C23.625 7.48628 23.0125 6.86498 22.3125 6.86498C21.6125 6.86498 21 7.48628 21 8.19633V7.30877C21 6.59871 20.3875 5.97741 19.6875 5.97741C18.9875 5.97741 18.375 6.59871 18.375 7.30877V6.4212C18.375 5.71114 17.7625 5.08984 17.0625 5.08984C16.3625 5.08984 15.75 5.71114 15.75 6.4212V7.30877C15.75 6.59871 15.1375 5.97741 14.4375 5.97741C13.7375 5.97741 13.125 6.59871 13.125 7.30877V13.9655V16.0957L10.9375 13.8768C10.4125 13.3442 9.53749 13.3442 8.92499 13.8768C8.31249 14.4093 8.39999 15.2969 8.92499 15.9182L13.125 20.0898Z" fill="url(#paint1_linear_389_43060)" stroke="#09755D" stroke-width="2" stroke-miterlimit="10" stroke-linecap="round" stroke-linejoin="round"/>
<path d="M15.75 14.0923V7.87933" stroke="white" stroke-width="1.5" stroke-miterlimit="10" stroke-linecap="round" stroke-linejoin="round"/>
<path d="M18.375 14.0923V7.87933" stroke="white" stroke-width="1.5" stroke-miterlimit="10" stroke-linecap="round" stroke-linejoin="round"/>
<path d="M21 14.0923V8.76691" stroke="white" stroke-width="1.5" stroke-miterlimit="10" stroke-linecap="round" stroke-linejoin="round"/>
</g>
<defs>
<linearGradient id="paint0_linear_389_43060" x1="10.5" y1="1.53955" x2="-7.71501" y2="17.879" gradientUnits="userSpaceOnUse">
<stop stop-color="#07876A"/>
<stop offset="1" stop-color="#07876A" stop-opacity="0"/>
</linearGradient>
<linearGradient id="paint1_linear_389_43060" x1="16.0614" y1="5.08984" x2="-1.6748" y2="28.0111" gradientUnits="userSpaceOnUse">
<stop stop-color="#07876A"/>
<stop offset="1" stop-color="#07876A" stop-opacity="0"/>
</linearGradient>
<clipPath id="clip0_389_43060">
<rect width="28" height="28.4022" fill="white" transform="translate(0 0.651978)"/>
</clipPath>
</defs>
</svg>
