<svg width="28" height="29" viewBox="0 0 28 29" fill="none" xmlns="http://www.w3.org/2000/svg">
<g clip-path="url(#clip0_389_43081)">
<rect x="9" y="11.6143" width="12" height="14.2011" fill="url(#paint0_linear_389_43081)"/>
<path d="M18.7857 9.74671V7.30343C18.7857 6.04807 17.821 5.02105 16.643 5.02105H15.5713V2.73868H18.7857V2.73765L18.787 2.73868C19.3781 2.73868 19.8583 3.24979 19.8583 3.87969H22C22 1.98964 20.5613 0.456299 18.787 0.456299L18.7857 0.457326L8.07134 0.456641V2.73902H13.4287V5.0214H12.357C11.179 5.0214 10.2143 6.04841 10.2143 7.30377V9.74773C8.36963 10.2565 7 12.0257 7 14.1502V25.5618C7 26.8212 7.95819 27.8441 9.14267 27.8441H19.8573C21.0396 27.8441 22 26.8236 22 25.5618V14.1499C22 12.026 20.6313 10.2554 18.7857 9.74671ZM12.357 7.30343H16.643V9.58581H12.357V7.30343ZM19.8573 25.5614H9.14267V23.2794V15.2912V14.1499C9.14267 12.8887 10.1031 11.8682 11.2857 11.8682L17.7143 11.8675C18.8988 11.8675 19.8573 12.8901 19.8573 14.1499V25.5614Z" fill="#09755D"/>
<path d="M20 16.6861H15V21.7579H20" stroke="white" stroke-width="1.5"/>
</g>
<defs>
<linearGradient id="paint0_linear_389_43081" x1="15" y1="11.6143" x2="5.04895" y2="28.192" gradientUnits="userSpaceOnUse">
<stop stop-color="#07876A"/>
<stop offset="1" stop-color="#07876A" stop-opacity="0"/>
</linearGradient>
<clipPath id="clip0_389_43081">
<rect width="28" height="28.4022" fill="white" transform="translate(0 0.456299)"/>
</clipPath>
</defs>
</svg>
