<svg width="28" height="30" viewBox="0 0 28 30" fill="none" xmlns="http://www.w3.org/2000/svg">
<g clip-path="url(#clip0_389_43044)">
<rect x="9" y="12.0056" width="12" height="14.2011" fill="url(#paint0_linear_389_43044)"/>
<path d="M18.7857 10.1379V7.69467C18.7857 6.43931 17.821 5.41229 16.643 5.41229H15.5713V3.12991H18.7857V3.12888L18.787 3.12991C19.3781 3.12991 19.8583 3.64102 19.8583 4.27093H22C22 2.38087 20.5613 0.847534 18.787 0.847534L18.7857 0.848561L8.07134 0.847877V3.13025H13.4287V5.41263H12.357C11.179 5.41263 10.2143 6.43965 10.2143 7.69501V10.139C8.36963 10.6477 7 12.4169 7 14.5415V25.953C7 27.2125 7.95819 28.2354 9.14267 28.2354H19.8573C21.0396 28.2354 22 27.2149 22 25.953V14.5411C22 12.4172 20.6313 10.6467 18.7857 10.1379ZM12.357 7.69467H16.643V9.97704H12.357V7.69467ZM19.8573 25.9527H9.14267V23.6706V15.6825V14.5411C9.14267 13.2799 10.1031 12.2594 11.2857 12.2594L17.7143 12.2587C18.8988 12.2587 19.8573 13.2813 19.8573 14.5411V25.9527Z" fill="#09755D"/>
<path d="M20 17.0774H15V22.1492H20" stroke="white" stroke-width="1.5"/>
</g>
<defs>
<linearGradient id="paint0_linear_389_43044" x1="15" y1="12.0056" x2="5.04895" y2="28.5832" gradientUnits="userSpaceOnUse">
<stop stop-color="#07876A"/>
<stop offset="1" stop-color="#07876A" stop-opacity="0"/>
</linearGradient>
<clipPath id="clip0_389_43044">
<rect width="28" height="28.4022" fill="white" transform="translate(0 0.847534)"/>
</clipPath>
</defs>
</svg>
