<svg width="120" height="34" viewBox="0 0 120 34" fill="none" xmlns="http://www.w3.org/2000/svg">
<g clip-path="url(#clip0_1048_133681)">
<path d="M84.0136 33.8519C83.7931 33.7961 83.5727 33.7404 83.3523 33.6958C81.0213 33.1774 79.1201 31.9567 77.5496 30.1564C76.5356 28.9914 75.8523 27.6537 75.3894 26.1934C75.0808 25.2235 74.9651 24.2202 74.9651 23.2058C74.9596 16.166 74.9596 9.12618 74.9651 2.08081C74.9651 1.22801 75.3729 0.665047 76.1499 0.475535C76.5742 0.369632 77.3953 0.726359 77.5992 1.33948C77.6763 1.57359 77.7424 1.82441 77.7424 2.06966C77.7535 6.51203 77.7479 10.9488 77.7535 15.3912C77.7535 15.5027 77.77 15.6086 77.781 15.7981C77.9133 15.681 78.0014 15.6086 78.0786 15.5306C79.4011 14.1538 81.0102 13.262 82.8067 12.699C84.3938 12.1974 86.0139 12.1862 87.6506 12.4594C89.2266 12.7269 90.6484 13.3679 91.9268 14.3154C93.7564 15.6699 95.101 17.4145 95.8119 19.6106C96.0543 20.3631 96.2913 21.1379 96.3684 21.9238C96.4511 22.81 96.385 23.7186 96.3133 24.6104C96.1976 26.0429 95.619 27.3304 94.9522 28.5734C94.4342 29.5321 93.7233 30.3459 92.9298 31.0928C91.6568 32.2912 90.1579 33.0938 88.5047 33.601C88.1245 33.7181 87.7222 33.7794 87.331 33.863C86.2178 33.8519 85.1157 33.8519 84.0136 33.8519ZM85.821 15.0735C81.2693 14.9676 77.9463 18.6909 77.7535 22.693C77.522 27.4809 81.3409 31.1262 85.6116 31.1485C90.0367 31.1708 93.569 27.5422 93.6076 23.2113C93.6517 18.847 90.191 15.1014 85.821 15.0735Z" fill="white"/>
<path d="M60.9806 33.8498C60.7491 33.7941 60.5232 33.7383 60.2917 33.6938C58.881 33.4262 57.564 32.9023 56.3571 32.1108C54.7811 31.0796 53.5853 29.7084 52.7531 28.0028C52.3013 27.0831 52.0092 26.1133 51.8329 25.11C51.7557 24.6641 51.7227 24.207 51.7227 23.7555C51.7282 22.9306 51.7282 22.1001 51.8163 21.2807C51.9266 20.2719 52.2296 19.3076 52.6595 18.3879C53.1664 17.301 53.8277 16.32 54.6819 15.4672C55.6628 14.4918 56.7704 13.7226 58.0434 13.2042C59.5588 12.5855 61.1293 12.2065 62.7715 12.2232C64.7388 12.2455 66.5353 12.8307 68.194 13.8953C69.1749 14.5252 70.0511 15.2665 70.7399 16.2029C71.2138 16.8439 71.6106 17.5462 71.9633 18.2653C72.2333 18.8171 71.9468 19.603 71.3957 19.865C70.6683 20.2106 69.9188 20.506 69.1694 20.807C68.3373 21.1414 67.4941 21.4591 66.6565 21.7768C65.7473 22.1224 64.838 22.468 63.9343 22.8135C62.496 23.3654 61.0577 23.9116 59.6194 24.4634C58.1646 25.0208 56.7153 25.5949 55.255 26.1412C55.0511 26.2192 55.029 26.2916 55.1062 26.4812C55.5581 27.5346 56.291 28.3651 57.1286 29.112C58.2914 30.1432 59.6856 30.7006 61.1679 31.0239C62.0331 31.2134 62.9148 31.1521 63.7965 31.0127C64.8105 30.8511 65.7528 30.4999 66.6014 29.937C67.687 29.2179 68.5963 28.3094 69.208 27.1222C69.489 26.5815 69.996 26.3474 70.6793 26.4254C71.1918 26.4867 71.6822 26.8936 71.8035 27.4008C71.9027 27.8245 71.809 28.2202 71.583 28.5992C70.5195 30.3996 69.1033 31.8377 67.2517 32.7908C66.3038 33.2813 65.3064 33.6547 64.2373 33.7829C64.1933 33.7885 64.1547 33.8164 64.1161 33.8387C63.0746 33.8498 62.0276 33.8498 60.9806 33.8498ZM54.4504 23.3988C54.6157 23.3598 54.7205 23.3431 54.8196 23.3041C55.9603 22.8693 57.1011 22.4345 58.2363 21.9942C60.0658 21.2919 61.9008 20.584 63.7304 19.8817C65.2458 19.302 66.7612 18.7223 68.2767 18.1371C68.5577 18.0312 68.5687 17.9921 68.3648 17.758C67.8248 17.1338 67.2351 16.5764 66.5077 16.1639C65.4938 15.5954 64.4412 15.1439 63.273 15.116C62.518 15.0937 61.7576 15.1606 61.0026 15.2164C60.2531 15.2721 59.5643 15.5508 58.892 15.8741C57.9166 16.3367 57.0845 16.9833 56.3792 17.8194C55.8116 18.4938 55.3046 19.2128 55.007 20.0433C54.7756 20.6899 54.6433 21.3811 54.5221 22.0611C54.4504 22.4847 54.478 22.925 54.4504 23.3988Z" fill="white"/>
<path d="M31.6635 33.8512C31.5974 33.8066 31.5312 33.7564 31.4651 33.7118C31.0518 33.4276 30.7928 33.0597 30.8093 32.5302C30.8149 32.3351 30.8093 32.14 30.8093 31.9449C30.8093 22.0457 30.8093 12.141 30.8093 2.24177C30.8093 1.7457 30.8314 1.27192 31.2282 0.909615C31.9776 0.224029 32.942 0.352228 33.471 1.17159C33.5867 1.35553 33.6363 1.61192 33.6418 1.83488C33.6528 5.20707 33.6528 8.57926 33.6473 11.9515C33.6418 15.1174 33.6363 18.2834 33.6253 21.4549C33.6253 21.5998 33.6363 21.7057 33.8237 21.7057C35.6312 21.6779 37.4442 21.728 39.2462 21.611C40.6955 21.5162 41.9905 20.8752 43.1422 19.9611C44.3876 18.9745 45.1977 17.6925 45.6936 16.1876C45.9581 15.3961 46.0904 14.5879 46.0739 13.7574C46.0573 12.9603 46.906 12.2915 47.5838 12.336C48.2836 12.3806 48.8568 12.9269 48.8843 13.6403C48.9229 14.7886 48.7576 15.9089 48.3994 17.0014C48.0467 18.0771 47.5673 19.0804 46.9115 19.9945C46.0904 21.1372 45.115 22.1126 43.9082 22.8428C43.7814 22.9153 43.6657 23.0044 43.5114 23.1103C43.5941 23.1772 43.6437 23.2385 43.7098 23.2776C45.633 24.4704 47.0548 26.1202 47.9861 28.1881C48.3002 28.8793 48.4875 29.6373 48.6584 30.3842C48.7961 30.9862 48.8182 31.6105 48.8898 32.2236C48.9725 32.9649 48.7135 33.5279 48.0357 33.8679C47.6885 33.8679 47.3358 33.8679 46.9886 33.8679C46.3329 33.4889 46.0408 32.9315 46.0518 32.1512C46.0739 30.8302 45.6275 29.6206 44.9883 28.4891C44.2609 27.2016 43.2634 26.1927 41.9464 25.5238C40.8277 24.9553 39.654 24.593 38.392 24.5874C36.9262 24.5874 35.4548 24.5874 33.989 24.5874C33.6308 24.5874 33.6308 24.5874 33.6308 24.9497C33.6308 27.4301 33.6308 29.9049 33.6253 32.3853C33.6253 32.558 33.5977 32.7364 33.5592 32.9036C33.46 33.3551 33.1073 33.6059 32.7711 33.8568C32.4019 33.8512 32.0327 33.8512 31.6635 33.8512Z" fill="white"/>
<path d="M9.06976 33.8508C8.8328 33.7951 8.59585 33.7338 8.35889 33.678C6.73325 33.3157 5.30048 32.5688 4.00547 31.5209C2.25309 30.0996 1.10136 28.277 0.423553 26.131C0.0543392 24.9605 -0.0448525 23.7621 0.010254 22.5359C0.0929137 20.6909 0.677043 19.0076 1.60283 17.4525C2.53413 15.8807 3.81811 14.6544 5.38314 13.7236C6.22076 13.2275 7.09695 12.8373 8.02825 12.5921C8.94302 12.3524 9.88534 12.2242 10.8387 12.2911C11.6983 12.3524 12.5745 12.3803 13.3956 12.6032C14.2883 12.8485 15.148 13.2442 15.9801 13.6734C17.2531 14.3311 18.3001 15.2843 19.1818 16.4158C20.069 17.5472 20.6862 18.8237 21.072 20.2116C21.364 21.2762 21.4632 22.3575 21.4632 23.4611C21.4522 26.4153 21.4522 29.3694 21.4632 32.3236C21.4687 33.0315 21.2207 33.5443 20.5925 33.8564C20.2233 33.8564 19.8596 33.8564 19.4904 33.8564C19.4739 33.8341 19.4628 33.8062 19.4463 33.7895C18.8952 33.4607 18.6693 32.959 18.6803 32.3236C18.6914 31.8052 18.6858 31.2868 18.6803 30.7629C18.6803 30.6681 18.6638 30.5734 18.6473 30.4117C18.5205 30.5288 18.4489 30.5957 18.3828 30.6626C17.8097 31.2534 17.1925 31.7885 16.4871 32.2065C15.3795 32.8643 14.2332 33.4328 12.9603 33.7003C12.7454 33.7449 12.536 33.8007 12.3266 33.8508C11.241 33.8508 10.1554 33.8508 9.06976 33.8508ZM10.7064 15.0669C6.28688 15.0446 2.83722 18.7624 2.80415 23.0375C2.76558 27.4074 6.31444 31.1085 10.6458 31.1419C15.137 31.1809 18.6473 27.4743 18.6748 23.1713C18.7079 18.7791 15.1811 15.0223 10.7064 15.0669Z" fill="white"/>
<path d="M107.601 33.8512C107.281 33.7732 106.967 33.7007 106.647 33.6227C105.567 33.3663 104.564 32.9093 103.633 32.3073C101.787 31.12 100.376 29.5315 99.4725 27.497C98.7671 25.914 98.4255 24.2586 98.5247 22.5251C98.5963 21.31 98.8939 20.1395 99.3513 19.0024C100.167 16.9624 101.511 15.3794 103.269 14.1309C104.212 13.462 105.242 12.9659 106.355 12.6594C108.108 12.1744 109.871 12.1298 111.635 12.5312C113.784 13.0217 115.591 14.1141 117.112 15.7306C118.253 16.9401 119.019 18.3503 119.526 19.9166C119.9 21.0815 119.994 22.291 119.989 23.5117C119.983 26.438 119.983 29.3643 119.989 32.2906C119.989 32.9817 119.79 33.5503 119.112 33.8457C118.743 33.8457 118.38 33.8457 118.01 33.8457C117.977 33.8122 117.955 33.7788 117.917 33.7509C117.476 33.4276 117.206 33.0207 117.217 32.441C117.228 31.8725 117.217 31.3096 117.211 30.741C117.211 30.6518 117.178 30.5627 117.162 30.4679C117.101 30.4902 117.079 30.4902 117.068 30.5013C117.018 30.5459 116.969 30.5849 116.925 30.6351C115.971 31.6719 114.809 32.402 113.547 32.9706C112.847 33.2883 112.136 33.5893 111.37 33.7175C111.194 33.7453 111.017 33.7955 110.841 33.8401C109.772 33.8512 108.686 33.8512 107.601 33.8512ZM101.357 23.0769C101.313 27.4413 104.801 31.1033 109.193 31.1368C113.69 31.1702 117.217 27.5082 117.211 23.1048C117.211 18.6847 113.729 15.084 109.287 15.0673C104.829 15.0506 101.335 18.7349 101.357 23.0769Z" fill="white"/>
<path d="M25.2694 33.8513C25.2639 33.8402 25.2639 33.829 25.2584 33.8235C24.564 33.4389 24.4648 32.8202 24.4648 32.0789C24.4814 22.0849 24.4814 12.091 24.4648 2.097C24.4648 1.19403 24.8671 0.781565 25.556 0.491724C25.9748 0.318934 26.355 0.592053 26.6801 0.848451C27.0824 1.17174 27.2092 1.61765 27.2092 2.13044C27.2036 12.1913 27.2036 22.2465 27.2147 32.3074C27.2147 32.9595 26.9942 33.4333 26.4487 33.7677C26.4211 33.7845 26.3991 33.8179 26.377 33.8458C26.0078 33.8513 25.6386 33.8513 25.2694 33.8513Z" fill="white"/>
</g>
<defs>
<clipPath id="clip0_1048_133681">
<rect width="120" height="33.4098" fill="white" transform="translate(0 0.441406)"/>
</clipPath>
</defs>
</svg>
