<svg width="14" height="14" viewBox="0 0 14 14" fill="none" xmlns="http://www.w3.org/2000/svg">
<path fill-rule="evenodd" clip-rule="evenodd" d="M5.10534 10.2948C4.97411 10.1636 4.90039 9.98556 4.90039 9.79994C4.90039 9.61433 4.97411 9.43631 5.10534 9.30504L7.41044 6.99994L5.10534 4.69484C4.97783 4.56282 4.90727 4.386 4.90887 4.20246C4.91046 4.01892 4.98408 3.84336 5.11387 3.71357C5.24365 3.58378 5.41922 3.51017 5.60276 3.50857C5.7863 3.50698 5.96312 3.57753 6.09514 3.70504L8.89514 6.50504C9.02637 6.63631 9.10009 6.81433 9.10009 6.99994C9.10009 7.18556 9.02637 7.36357 8.89514 7.49484L6.09514 10.2948C5.96387 10.4261 5.78586 10.4998 5.60024 10.4998C5.41463 10.4998 5.23661 10.4261 5.10534 10.2948Z" fill="#999999"/>
</svg>
