<svg width="25" height="25" viewBox="0 0 25 25" fill="none" xmlns="http://www.w3.org/2000/svg">
<path d="M17.7083 9.37565V7.29232C17.7083 6.14172 16.7756 5.20898 15.625 5.20898H5.20833C4.05774 5.20898 3.125 6.14172 3.125 7.29232V13.5423C3.125 14.6929 4.05774 15.6257 5.20833 15.6257H7.29167M9.375 19.7923H19.7917C20.9423 19.7923 21.875 18.8596 21.875 17.709V11.459C21.875 10.3084 20.9423 9.37565 19.7917 9.37565H9.375C8.22441 9.37565 7.29167 10.3084 7.29167 11.459V17.709C7.29167 18.8596 8.22441 19.7923 9.375 19.7923ZM16.6667 14.584C16.6667 15.7346 15.7339 16.6673 14.5833 16.6673C13.4327 16.6673 12.5 15.7346 12.5 14.584C12.5 13.4334 13.4327 12.5007 14.5833 12.5007C15.7339 12.5007 16.6667 13.4334 16.6667 14.584Z" stroke="#999999" stroke-width="2" stroke-linecap="round" stroke-linejoin="round"/>
</svg>
