<svg width="20" height="20" viewBox="0 0 20 20" fill="none" xmlns="http://www.w3.org/2000/svg">
<path d="M6.66683 4.16699H16.6668C16.8878 4.16699 17.0998 4.25479 17.2561 4.41107C17.4124 4.56735 17.5002 4.77931 17.5002 5.00033V15.0003C17.5002 15.2213 17.4124 15.4333 17.2561 15.5896C17.0998 15.7459 16.8878 15.8337 16.6668 15.8337H6.66683C6.44582 15.8337 6.23385 15.7459 6.07757 15.5896C5.92129 15.4333 5.8335 15.2213 5.8335 15.0003V14.167" stroke="#999999" stroke-width="2" stroke-linecap="round" stroke-linejoin="round"/>
<path d="M2.5 7.50033H5.83333M6.66667 10.8337H2.5M10 4.16699V10.167C10 10.167 11.0158 10.167 11.6667 10.167C12.3175 10.167 13.3333 10.167 13.3333 10.167V4.16699H10Z" stroke="#999999" stroke-width="2" stroke-linecap="round" stroke-linejoin="round"/>
</svg>
