<svg width="20" height="20" viewBox="0 0 20 20" fill="none" xmlns="http://www.w3.org/2000/svg">
<path d="M12.4998 14.1667C12.4998 14.4963 12.5976 14.8185 12.7807 15.0926C12.9639 15.3667 13.2242 15.5803 13.5287 15.7065C13.8332 15.8326 14.1684 15.8656 14.4917 15.8013C14.815 15.737 15.1119 15.5783 15.345 15.3452C15.5781 15.1121 15.7368 14.8151 15.8011 14.4918C15.8655 14.1685 15.8325 13.8334 15.7063 13.5289C15.5802 13.2243 15.3665 12.964 15.0925 12.7809C14.8184 12.5977 14.4961 12.5 14.1665 12.5C13.7245 12.5 13.3006 12.6756 12.988 12.9882C12.6754 13.3007 12.4998 13.7246 12.4998 14.1667ZM4.1665 14.1667C4.1665 14.4963 4.26425 14.8185 4.44739 15.0926C4.63052 15.3667 4.89082 15.5803 5.19536 15.7065C5.49991 15.8326 5.83502 15.8656 6.15832 15.8013C6.48162 15.737 6.77859 15.5783 7.01168 15.3452C7.24477 15.1121 7.4035 14.8151 7.46781 14.4918C7.53212 14.1685 7.49912 13.8334 7.37297 13.5289C7.24682 13.2243 7.0332 12.964 6.75912 12.7809C6.48504 12.5977 6.16281 12.5 5.83317 12.5C5.39114 12.5 4.96722 12.6756 4.65466 12.9882C4.3421 13.3007 4.1665 13.7246 4.1665 14.1667V14.1667Z" stroke="white" stroke-width="2" stroke-linecap="round" stroke-linejoin="round"/>
<path d="M12.4998 14.167H9.1665V5.00033C9.1665 4.77931 9.2543 4.56735 9.41058 4.41107C9.56686 4.25479 9.77882 4.16699 9.99984 4.16699H16.6665C16.8875 4.16699 17.0995 4.25479 17.2558 4.41107C17.412 4.56735 17.4998 4.77931 17.4998 5.00033V13.3337C17.4998 13.5547 17.412 13.7666 17.2558 13.9229C17.0995 14.0792 16.8875 14.167 16.6665 14.167H15.8332" stroke="white" stroke-width="2" stroke-linecap="round" stroke-linejoin="round"/>
<path d="M4.16653 14.1669H3.3332C3.11218 14.1669 2.90022 14.0791 2.74394 13.9228C2.58766 13.7666 2.49987 13.5546 2.49987 13.3336V9.81691C2.49432 9.62655 2.55414 9.44003 2.66938 9.28841C2.78461 9.13678 2.9483 9.0292 3.1332 8.98358L4.16653 8.75024L4.82487 6.44191C4.87527 6.26166 4.98489 6.10362 5.13607 5.99327C5.28724 5.88291 5.47116 5.82666 5.6582 5.83358H9.16653V14.1669H7.49987" stroke="white" stroke-width="2" stroke-linecap="round" stroke-linejoin="round"/>
</svg>
