<svg width="25" height="25" viewBox="0 0 25 25" fill="none" xmlns="http://www.w3.org/2000/svg">
<path d="M8.33317 5.20898H20.8332C21.1094 5.20898 21.3744 5.31873 21.5697 5.51408C21.7651 5.70943 21.8748 5.97438 21.8748 6.25065V18.7507C21.8748 19.0269 21.7651 19.2919 21.5697 19.4872C21.3744 19.6826 21.1094 19.7923 20.8332 19.7923H8.33317C8.0569 19.7923 7.79195 19.6826 7.5966 19.4872C7.40125 19.2919 7.2915 19.0269 7.2915 18.7507V17.709" stroke="#999999" stroke-width="2" stroke-linecap="round" stroke-linejoin="round"/>
<path d="M8.33333 13.5423H3.125M12.5 5.20898V11.459L14.5833 10.4173L16.6667 11.459V5.20898H12.5ZM3.125 9.37565H7.29167H3.125Z" stroke="#999999" stroke-width="2" stroke-linecap="round" stroke-linejoin="round"/>
</svg>
