<svg width="20" height="20" viewBox="0 0 20 20" fill="none" xmlns="http://www.w3.org/2000/svg">
<path d="M10.0443 13.75H9.96094" stroke="#D82731" stroke-width="2" stroke-linecap="round" stroke-linejoin="round"/>
<path d="M7.5 2.5H12.5M10 10V8.33333V10ZM3.75 11.25C3.75 12.4861 4.11656 13.6945 4.80332 14.7223C5.49007 15.7501 6.46619 16.5512 7.60823 17.0242C8.75027 17.4973 10.0069 17.6211 11.2193 17.3799C12.4317 17.1388 13.5453 16.5435 14.4194 15.6694C15.2935 14.7953 15.8888 13.6817 16.1299 12.4693C16.3711 11.2569 16.2473 10.0003 15.7742 8.85823C15.3012 7.71619 14.5001 6.74007 13.4723 6.05332C12.4445 5.36656 11.2361 5 10 5C8.3424 5 6.75269 5.65848 5.58058 6.83058C4.40848 8.00269 3.75 9.5924 3.75 11.25V11.25ZM10 5V2.5V5Z" stroke="#D82731" stroke-width="2" stroke-linecap="round" stroke-linejoin="round"/>
</svg>
