<svg width="148" height="41" viewBox="0 0 148 41" fill="none" xmlns="http://www.w3.org/2000/svg">
<path d="M103.619 41.0002C103.347 40.9318 103.075 40.8634 102.803 40.8087C99.9285 40.1725 97.5837 38.6745 95.6467 36.4652C94.3962 35.0356 93.5534 33.3939 92.9825 31.6018C92.6019 30.4116 92.4592 29.1804 92.4592 27.9355C92.4524 19.2963 92.4524 10.6572 92.4592 2.01123C92.4592 0.964685 92.9621 0.273828 93.9204 0.0412625C94.4438 -0.0887008 95.4564 0.34907 95.7079 1.10149C95.8031 1.38878 95.8846 1.69658 95.8846 1.99755C95.8982 7.44917 95.8914 12.8939 95.8982 18.3456C95.8982 18.4824 95.9186 18.6123 95.9322 18.8449C96.0953 18.7012 96.2041 18.6123 96.2992 18.5166C97.9304 16.827 99.9149 15.7326 102.131 15.0418C104.088 14.4261 106.086 14.4125 108.105 14.7476C110.048 15.076 111.802 15.8626 113.379 17.0254C115.635 18.6876 117.293 20.8285 118.17 23.5236C118.469 24.447 118.762 25.3978 118.857 26.3622C118.959 27.4498 118.877 28.5648 118.789 29.6592C118.646 31.4171 117.932 32.9972 117.11 34.5226C116.471 35.6991 115.594 36.6977 114.616 37.6143C113.046 39.085 111.197 40.0699 109.158 40.6924C108.689 40.836 108.193 40.9113 107.71 41.0139C106.338 41.0002 104.978 41.0002 103.619 41.0002ZM105.848 17.9557C100.234 17.8257 96.1361 22.3949 95.8982 27.3062C95.6128 33.1819 100.323 37.6554 105.59 37.6827C111.048 37.7101 115.404 33.2571 115.452 27.9423C115.506 22.5865 111.238 17.9899 105.848 17.9557Z" fill="#014939"/>
<path d="M75.2096 41C74.9241 40.9316 74.6455 40.8632 74.36 40.8085C72.6201 40.4802 70.9958 39.8372 69.5073 38.8659C67.5635 37.6004 66.0887 35.9178 65.0624 33.8247C64.5051 32.696 64.1449 31.5058 63.9274 30.2746C63.8323 29.7274 63.7915 29.1665 63.7915 28.6124C63.7983 27.6001 63.7983 26.5809 63.907 25.5754C64.043 24.3373 64.4168 23.154 64.9469 22.0254C65.5722 20.6915 66.3878 19.4877 67.4412 18.4411C68.651 17.2441 70.0171 16.3001 71.5871 15.664C73.4561 14.9047 75.3931 14.4396 77.4184 14.4601C79.8448 14.4875 82.0604 15.2057 84.1062 16.5122C85.3159 17.2851 86.3966 18.1949 87.2461 19.344C87.8306 20.1306 88.32 20.9925 88.755 21.8749C89.088 22.5521 88.7346 23.5165 88.0549 23.838C87.1578 24.2621 86.2335 24.6246 85.3091 24.994C84.2829 25.4044 83.243 25.7943 82.2099 26.1842C81.0885 26.6083 79.9671 27.0324 78.8525 27.4565C77.0786 28.1336 75.3047 28.804 73.5309 29.4812C71.7366 30.1652 69.9491 30.8697 68.148 31.54C67.8966 31.6358 67.8694 31.7247 67.9645 31.9573C68.5219 33.2501 69.4258 34.2693 70.4588 35.1859C71.8929 36.4513 73.6124 37.1353 75.4407 37.532C76.5077 37.7646 77.5951 37.6894 78.6826 37.5184C79.9331 37.32 81.0953 36.8891 82.142 36.1982C83.4809 35.3158 84.6023 34.2009 85.3567 32.7439C85.7033 32.0804 86.3286 31.7931 87.1714 31.8889C87.8034 31.9641 88.4083 32.4635 88.5579 33.0859C88.6802 33.6058 88.5647 34.0914 88.286 34.5566C86.9743 36.7659 85.2276 38.5307 82.944 39.7004C81.775 40.3023 80.5448 40.7606 79.2263 40.9179C79.1719 40.9248 79.1244 40.959 79.0768 40.9863C77.7922 41 76.5009 41 75.2096 41ZM67.1558 28.1747C67.3597 28.1268 67.4888 28.1063 67.6111 28.0584C69.018 27.5249 70.4249 26.9913 71.8249 26.451C74.0814 25.5891 76.3446 24.7204 78.601 23.8585C80.4701 23.1471 82.3391 22.4358 84.2081 21.7176C84.5547 21.5876 84.5683 21.5397 84.3169 21.2524C83.6508 20.4863 82.9236 19.8023 82.0264 19.2961C80.7759 18.5984 79.4778 18.0444 78.0369 18.0102C77.1058 17.9828 76.1679 18.0649 75.2368 18.1333C74.3124 18.2017 73.4629 18.5437 72.6337 18.9404C71.4307 19.5082 70.4045 20.3016 69.5345 21.3277C68.8345 22.1553 68.2092 23.0377 67.8422 24.0569C67.5568 24.8504 67.3936 25.6985 67.2441 26.533C67.1558 27.0529 67.1897 27.5933 67.1558 28.1747Z" fill="#014939"/>
<path d="M39.0524 41.0003C38.9709 40.9456 38.8893 40.884 38.8078 40.8293C38.298 40.4805 37.9786 40.029 37.999 39.3792C38.0058 39.1398 37.999 38.9004 37.999 38.661C37.999 26.5128 37.999 14.3579 37.999 2.20972C37.999 1.60094 38.0262 1.01953 38.5155 0.574915C39.4398 -0.266426 40.6292 -0.109103 41.2817 0.896403C41.4244 1.12213 41.4856 1.43678 41.4924 1.71038C41.506 5.84869 41.506 9.98699 41.4992 14.1253C41.4924 18.0105 41.4856 21.8957 41.472 25.7878C41.472 25.9656 41.4856 26.0956 41.7166 26.0956C43.9459 26.0614 46.1819 26.123 48.4044 25.9793C50.1919 25.863 51.789 25.0764 53.2095 23.9546C54.7455 22.7439 55.7446 21.1707 56.3563 19.3238C56.6825 18.3525 56.8456 17.3607 56.8252 16.3415C56.8048 15.3634 57.8515 14.5425 58.6875 14.5973C59.5506 14.652 60.2574 15.3223 60.2914 16.1979C60.339 17.6069 60.1351 18.9818 59.6933 20.3225C59.2584 21.6426 58.6671 22.8739 57.8583 23.9957C56.8456 25.3979 55.6426 26.5949 54.1542 27.491C53.9979 27.5799 53.8552 27.6894 53.6649 27.8193C53.7668 27.9014 53.828 27.9766 53.9095 28.0245C56.2815 29.4883 58.035 31.513 59.1836 34.0507C59.571 34.8989 59.8021 35.8292 60.0128 36.7457C60.1827 37.4845 60.2099 38.2506 60.2982 39.003C60.4002 39.9127 60.0807 40.6036 59.2448 41.0208C58.8166 41.0208 58.3816 41.0208 57.9534 41.0208C57.1447 40.5557 56.7844 39.8717 56.798 38.9141C56.8252 37.293 56.2747 35.8086 55.4863 34.4201C54.5892 32.84 53.359 31.6019 51.7347 30.7811C50.355 30.0834 48.9073 29.6388 47.3509 29.632C45.5431 29.632 43.7284 29.632 41.9205 29.632C41.4788 29.632 41.4788 29.632 41.4788 30.0766C41.4788 33.1204 41.4788 36.1575 41.472 39.2014C41.472 39.4134 41.438 39.6323 41.3904 39.8375C41.2681 40.3916 40.8331 40.6994 40.4185 41.0072C39.9632 41.0003 39.5078 41.0003 39.0524 41.0003Z" fill="#014939"/>
<path d="M11.187 41.0007C10.8947 40.9323 10.6025 40.8571 10.3102 40.7887C8.30525 40.344 6.53817 39.4275 4.941 38.1415C2.77972 36.3973 1.35926 34.1605 0.523293 31.5271C0.0679298 30.0906 -0.0544067 28.62 0.013558 27.1151C0.115505 24.851 0.835931 22.7853 1.97774 20.8769C3.12634 18.948 4.70992 17.4431 6.64011 16.3008C7.67318 15.692 8.75381 15.2132 9.90242 14.9123C11.0306 14.6181 12.1928 14.4608 13.3686 14.5429C14.4289 14.6181 15.5095 14.6523 16.5222 14.9259C17.6232 15.2269 18.6835 15.7126 19.7097 16.2393C21.2797 17.0464 22.571 18.2161 23.6585 19.6046C24.7527 20.9932 25.5139 22.5596 25.9897 24.2628C26.3499 25.5693 26.4722 26.8963 26.4722 28.2506C26.4586 31.8759 26.4586 35.5012 26.4722 39.1265C26.479 39.9952 26.1732 40.6245 25.3984 41.0075C24.943 41.0075 24.4944 41.0075 24.0391 41.0075C24.0187 40.9802 24.0051 40.946 23.9847 40.9255C23.305 40.5219 23.0264 39.9063 23.04 39.1265C23.0536 38.4904 23.0468 37.8542 23.04 37.2112C23.04 37.095 23.0196 36.9787 22.9992 36.7803C22.8429 36.924 22.7545 37.006 22.673 37.0881C21.9661 37.8132 21.2049 38.4698 20.335 38.9828C18.9689 39.79 17.5552 40.4877 15.9853 40.816C15.7202 40.8707 15.4619 40.9391 15.2037 41.0007C13.8648 41.0007 12.5259 41.0007 11.187 41.0007ZM13.2055 17.9493C7.75473 17.9219 3.50015 22.4843 3.45937 27.7308C3.41179 33.0935 7.78872 37.6353 13.1307 37.6764C18.6699 37.7243 22.9992 33.1755 23.0332 27.8949C23.074 22.5049 18.7242 17.8946 13.2055 17.9493Z" fill="#014939"/>
<path d="M132.708 41.0004C132.314 40.9046 131.926 40.8157 131.532 40.72C130.2 40.4053 128.963 39.8444 127.814 39.1057C125.537 37.6487 123.798 35.6993 122.683 33.2026C121.813 31.26 121.392 29.2285 121.514 27.1012C121.602 25.61 121.969 24.1736 122.533 22.7782C123.539 20.2747 125.198 18.3321 127.366 16.7999C128.528 15.979 129.799 15.3703 131.172 14.994C133.333 14.3989 135.508 14.3442 137.683 14.8367C140.333 15.4387 142.563 16.7793 144.438 18.763C145.845 20.2473 146.79 21.9779 147.415 23.9C147.877 25.3296 147.993 26.8139 147.986 28.3119C147.979 31.903 147.979 35.4941 147.986 39.0852C147.986 39.9333 147.742 40.631 146.906 40.9936C146.45 40.9936 146.002 40.9936 145.546 40.9936C145.506 40.9525 145.478 40.9115 145.431 40.8773C144.887 40.4805 144.554 39.9812 144.568 39.2698C144.581 38.5721 144.568 37.8813 144.561 37.1836C144.561 37.0741 144.52 36.9647 144.5 36.8484C144.425 36.8758 144.398 36.8758 144.384 36.8895C144.323 36.9442 144.262 36.9921 144.207 37.0536C143.032 38.3259 141.598 39.222 140.041 39.9197C139.178 40.3095 138.301 40.6789 137.357 40.8362C137.139 40.8704 136.922 40.932 136.704 40.9867C135.386 41.0004 134.047 41.0004 132.708 41.0004ZM125.007 27.7783C124.953 33.1342 129.255 37.6282 134.672 37.6692C140.218 37.7103 144.568 33.2163 144.561 27.8125C144.561 22.3883 140.265 17.9695 134.787 17.949C129.289 17.9285 124.98 22.4498 125.007 27.7783Z" fill="#014939"/>
<path d="M40.4116 41.0002C40.8262 40.6855 41.2612 40.3846 41.3835 39.8305C41.4311 39.6253 41.4651 39.4064 41.4651 39.1944C41.4719 36.1505 41.4651 33.1135 41.4719 30.0696C41.4719 29.625 41.4719 29.625 41.9136 29.625C43.7215 29.625 45.5362 29.625 47.344 29.625C48.9072 29.625 50.3481 30.0696 51.7277 30.7741C53.3521 31.595 54.589 32.833 55.4794 34.4131C56.2678 35.8017 56.8183 37.286 56.7911 38.9071C56.7775 39.8647 57.1377 40.5487 57.9465 41.0139C52.1015 41.0002 46.2566 41.0002 40.4116 41.0002Z" fill="white"/>
<path d="M31.1686 41.0003C31.1618 40.9867 31.1618 40.973 31.155 40.9661C30.2986 40.4942 30.1763 39.7349 30.1763 38.8252C30.1967 26.5607 30.1967 14.2963 30.1763 2.03187C30.1763 0.923766 30.6724 0.417593 31.522 0.0619038C32.0385 -0.150142 32.5075 0.185027 32.9085 0.499675C33.4046 0.896405 33.5609 1.44362 33.5609 2.07291C33.5541 14.4194 33.5541 26.7591 33.5677 39.1056C33.5677 39.9059 33.2959 40.4873 32.623 40.8977C32.589 40.9183 32.5618 40.9593 32.5347 40.9935C32.0793 41.0003 31.6239 41.0003 31.1686 41.0003Z" fill="#014939"/>
</svg>
