<svg width="149" height="43" viewBox="0 0 149 43" fill="none" xmlns="http://www.w3.org/2000/svg">
<path d="M104.619 42.0003C104.347 41.9319 104.075 41.8635 103.803 41.8088C100.929 41.1727 98.5837 39.6747 96.6467 37.4653C95.3962 36.0357 94.5534 34.394 93.9825 32.6019C93.6019 31.4117 93.4592 30.1805 93.4592 28.9356C93.4524 20.2965 93.4524 11.6573 93.4592 3.01135C93.4592 1.96481 93.9621 1.27395 94.9204 1.04138C95.4438 0.911421 96.4564 1.34919 96.7079 2.10161C96.8031 2.3889 96.8846 2.69671 96.8846 2.99767C96.8982 8.44929 96.8914 13.8941 96.8982 19.3457C96.8982 19.4825 96.9186 19.6124 96.9322 19.845C97.0953 19.7014 97.2041 19.6124 97.2992 19.5167C98.9304 17.8272 100.915 16.7327 103.131 16.0419C105.088 15.4263 107.086 15.4126 109.105 15.7477C111.048 16.0761 112.802 16.8627 114.379 18.0255C116.635 19.6877 118.293 21.8287 119.17 24.5237C119.469 25.4471 119.762 26.3979 119.857 27.3624C119.959 28.4499 119.877 29.5649 119.789 30.6593C119.646 32.4172 118.932 33.9973 118.11 35.5227C117.471 36.6992 116.594 37.6979 115.616 38.6144C114.046 40.0851 112.197 41.0701 110.158 41.6925C109.689 41.8362 109.193 41.9114 108.71 42.014C107.338 42.0003 105.978 42.0003 104.619 42.0003ZM106.848 18.9558C101.234 18.8258 97.1361 23.3951 96.8982 28.3063C96.6128 34.182 101.323 38.6555 106.59 38.6828C112.048 38.7102 116.404 34.2572 116.452 28.9424C116.506 23.5866 112.238 18.99 106.848 18.9558Z" fill="white"/>
<path d="M76.2096 42.0001C75.9241 41.9317 75.6455 41.8633 75.36 41.8086C73.6201 41.4803 71.9958 40.8373 70.5073 39.866C68.5635 38.6006 67.0887 36.9179 66.0624 34.8248C65.5051 33.6962 65.1449 32.506 64.9274 31.2747C64.8323 30.7275 64.7915 30.1666 64.7915 29.6126C64.7983 28.6002 64.7983 27.581 64.907 26.5755C65.043 25.3375 65.4168 24.1541 65.9469 23.0255C66.5722 21.6916 67.3878 20.4878 68.4412 19.4412C69.651 18.2442 71.0171 17.3003 72.5871 16.6641C74.4561 15.9049 76.3931 15.4397 78.4184 15.4602C80.8448 15.4876 83.0604 16.2058 85.1062 17.5123C86.3159 18.2852 87.3966 19.195 88.2461 20.3441C88.8306 21.1308 89.32 21.9926 89.755 22.875C90.088 23.5522 89.7346 24.5166 89.0549 24.8381C88.1578 25.2622 87.2335 25.6247 86.3091 25.9941C85.2829 26.4045 84.243 26.7944 83.2099 27.1843C82.0885 27.6084 80.9671 28.0325 79.8525 28.4566C78.0786 29.1338 76.3047 29.8041 74.5309 30.4813C72.7366 31.1653 70.9491 31.8698 69.148 32.5402C68.8966 32.6359 68.8694 32.7249 68.9645 32.9574C69.5219 34.2502 70.4258 35.2694 71.4588 36.186C72.8929 37.4514 74.6124 38.1354 76.4407 38.5322C77.5077 38.7647 78.5951 38.6895 79.6826 38.5185C80.9331 38.3201 82.0953 37.8892 83.142 37.1983C84.4809 36.3159 85.6023 35.201 86.3567 33.744C86.7033 33.0805 87.3286 32.7933 88.1714 32.889C88.8034 32.9643 89.4083 33.4636 89.5579 34.086C89.6802 34.6059 89.5647 35.0916 89.286 35.5567C87.9743 37.7661 86.2276 39.5308 83.944 40.7005C82.775 41.3024 81.5448 41.7607 80.2263 41.918C80.1719 41.9249 80.1244 41.9591 80.0768 41.9865C78.7922 42.0001 77.5009 42.0001 76.2096 42.0001ZM68.1558 29.1748C68.3597 29.1269 68.4888 29.1064 68.6111 29.0585C70.018 28.525 71.4249 27.9915 72.8249 27.4511C75.0814 26.5892 77.3446 25.7205 79.601 24.8586C81.4701 24.1473 83.3391 23.4359 85.2081 22.7177C85.5547 22.5877 85.5683 22.5398 85.3169 22.2525C84.6508 21.4864 83.9236 20.8024 83.0264 20.2963C81.7759 19.5986 80.4778 19.0445 79.0369 19.0103C78.1058 18.9829 77.1679 19.065 76.2368 19.1334C75.3124 19.2018 74.4629 19.5438 73.6337 19.9406C72.4307 20.5083 71.4045 21.3018 70.5345 22.3278C69.8345 23.1554 69.2092 24.0378 68.8422 25.057C68.5568 25.8505 68.3936 26.6987 68.2441 27.5332C68.1558 28.053 68.1897 28.5934 68.1558 29.1748Z" fill="white"/>
<path d="M40.0524 42.0003C39.9709 41.9456 39.8893 41.884 39.8078 41.8293C39.298 41.4805 38.9786 41.029 38.999 40.3792C39.0058 40.1398 38.999 39.9004 38.999 39.661C38.999 27.5128 38.999 15.3579 38.999 3.20972C38.999 2.60094 39.0262 2.01953 39.5155 1.57491C40.4398 0.733574 41.6292 0.890897 42.2817 1.8964C42.4244 2.12213 42.4856 2.43678 42.4924 2.71038C42.506 6.84869 42.506 10.987 42.4992 15.1253C42.4924 19.0105 42.4856 22.8957 42.472 26.7878C42.472 26.9656 42.4856 27.0956 42.7166 27.0956C44.9459 27.0614 47.1819 27.123 49.4044 26.9793C51.1919 26.863 52.789 26.0764 54.2095 24.9546C55.7455 23.7439 56.7446 22.1707 57.3563 20.3238C57.6825 19.3525 57.8456 18.3607 57.8252 17.3415C57.8048 16.3634 58.8515 15.5425 59.6875 15.5973C60.5506 15.652 61.2574 16.3223 61.2914 17.1979C61.339 18.6069 61.1351 19.9818 60.6933 21.3225C60.2584 22.6426 59.6671 23.8739 58.8583 24.9957C57.8456 26.3979 56.6426 27.5949 55.1542 28.491C54.9979 28.5799 54.8552 28.6894 54.6649 28.8193C54.7668 28.9014 54.828 28.9766 54.9095 29.0245C57.2815 30.4883 59.035 32.513 60.1836 35.0507C60.571 35.8989 60.8021 36.8292 61.0128 37.7457C61.1827 38.4845 61.2099 39.2506 61.2982 40.003C61.4002 40.9127 61.0807 41.6036 60.2448 42.0208C59.8166 42.0208 59.3816 42.0208 58.9534 42.0208C58.1447 41.5557 57.7844 40.8717 57.798 39.9141C57.8252 38.293 57.2747 36.8086 56.4863 35.4201C55.5892 33.84 54.359 32.6019 52.7347 31.7811C51.355 31.0834 49.9073 30.6388 48.3509 30.632C46.5431 30.632 44.7284 30.632 42.9205 30.632C42.4788 30.632 42.4788 30.632 42.4788 31.0766C42.4788 34.1204 42.4788 37.1575 42.472 40.2014C42.472 40.4134 42.438 40.6323 42.3904 40.8375C42.2681 41.3916 41.8331 41.6994 41.4185 42.0072C40.9632 42.0003 40.5078 42.0003 40.0524 42.0003Z" fill="white"/>
<path d="M12.187 42.0007C11.8947 41.9323 11.6025 41.8571 11.3102 41.7887C9.30525 41.344 7.53817 40.4275 5.941 39.1415C3.77972 37.3973 2.35926 35.1605 1.52329 32.5271C1.06793 31.0906 0.945593 29.62 1.01356 28.1151C1.11551 25.851 1.83593 23.7853 2.97774 21.8769C4.12634 19.948 5.70992 18.4431 7.64011 17.3008C8.67318 16.692 9.75381 16.2132 10.9024 15.9123C12.0306 15.6181 13.1928 15.4608 14.3686 15.5429C15.4289 15.6181 16.5095 15.6523 17.5222 15.9259C18.6232 16.2269 19.6835 16.7126 20.7097 17.2393C22.2797 18.0464 23.571 19.2161 24.6585 20.6046C25.7527 21.9932 26.5139 23.5596 26.9897 25.2628C27.3499 26.5693 27.4722 27.8963 27.4722 29.2506C27.4586 32.8759 27.4586 36.5012 27.4722 40.1265C27.479 40.9952 27.1732 41.6245 26.3984 42.0075C25.943 42.0075 25.4944 42.0075 25.0391 42.0075C25.0187 41.9802 25.0051 41.946 24.9847 41.9255C24.3051 41.5219 24.0264 40.9063 24.04 40.1265C24.0536 39.4904 24.0468 38.8542 24.04 38.2112C24.04 38.095 24.0196 37.9787 23.9992 37.7803C23.8429 37.924 23.7545 38.006 23.673 38.0881C22.9661 38.8132 22.2049 39.4698 21.335 39.9828C19.9689 40.79 18.5552 41.4877 16.9853 41.816C16.7202 41.8707 16.4619 41.9391 16.2037 42.0007C14.8648 42.0007 13.5259 42.0007 12.187 42.0007ZM14.2055 18.9493C8.75473 18.9219 4.50015 23.4843 4.45937 28.7308C4.41179 34.0935 8.78872 38.6353 14.1307 38.6764C19.6699 38.7243 23.9992 34.1755 24.0332 28.8949C24.074 23.5049 19.7242 18.8946 14.2055 18.9493Z" fill="white"/>
<path d="M133.708 42.0005C133.314 41.9048 132.926 41.8158 132.532 41.7201C131.2 41.4054 129.963 40.8445 128.814 40.1058C126.537 38.6488 124.798 36.6994 123.683 34.2027C122.813 32.2601 122.392 30.2286 122.514 28.1013C122.602 26.6101 122.969 25.1737 123.533 23.7783C124.539 21.2748 126.198 19.3322 128.366 17.8C129.528 16.9792 130.799 16.3704 132.172 15.9942C134.333 15.3991 136.508 15.3443 138.683 15.8368C141.333 16.4388 143.563 17.7795 145.438 19.7631C146.845 21.2474 147.79 22.978 148.415 24.9001C148.877 26.3297 148.993 27.814 148.986 29.312C148.979 32.9031 148.979 36.4942 148.986 40.0853C148.986 40.9335 148.742 41.6312 147.906 41.9937C147.45 41.9937 147.002 41.9937 146.546 41.9937C146.506 41.9526 146.478 41.9116 146.431 41.8774C145.887 41.4807 145.554 40.9813 145.568 40.27C145.581 39.5723 145.568 38.8814 145.561 38.1837C145.561 38.0743 145.52 37.9648 145.5 37.8485C145.425 37.8759 145.398 37.8759 145.384 37.8896C145.323 37.9443 145.262 37.9922 145.207 38.0537C144.032 39.326 142.598 40.2221 141.041 40.9198C140.178 41.3097 139.301 41.679 138.357 41.8364C138.139 41.8706 137.922 41.9321 137.704 41.9868C136.386 42.0005 135.047 42.0005 133.708 42.0005ZM126.007 28.7785C125.953 34.1343 130.255 38.6283 135.672 38.6694C141.218 38.7104 145.568 34.2164 145.561 28.8127C145.561 23.3884 141.265 18.9696 135.787 18.9491C130.289 18.9286 125.98 23.45 126.007 28.7785Z" fill="white"/>
<path d="M32.1686 42.0003C32.1618 41.9867 32.1618 41.973 32.155 41.9661C31.2986 41.4942 31.1763 40.7349 31.1763 39.8252C31.1967 27.5607 31.1967 15.2963 31.1763 3.03187C31.1763 1.92377 31.6724 1.41759 32.522 1.0619C33.0385 0.849858 33.5075 1.18503 33.9085 1.49967C34.4046 1.8964 34.5609 2.44362 34.5609 3.07291C34.5541 15.4194 34.5541 27.7591 34.5677 40.1056C34.5677 40.9059 34.2959 41.4873 33.623 41.8977C33.589 41.9183 33.5618 41.9593 33.5347 41.9935C33.0793 42.0003 32.6239 42.0003 32.1686 42.0003Z" fill="white"/>
</svg>
