<svg width="21" height="20" viewBox="0 0 21 20" fill="none" xmlns="http://www.w3.org/2000/svg">
<circle cx="10.3359" cy="10" r="10" fill="#CE22EA"/>
<path d="M10.3355 8.43863C9.47535 8.43863 8.7734 9.14058 8.7734 10.0007C8.7734 10.8609 9.47535 11.5628 10.3355 11.5628C11.1957 11.5628 11.8976 10.8609 11.8976 10.0007C11.8976 9.14058 11.1957 8.43863 10.3355 8.43863ZM15.0207 10.0007C15.0207 9.35386 15.0265 8.71285 14.9902 8.06714C14.9539 7.31714 14.7828 6.65152 14.2343 6.10308C13.6847 5.55347 13.0203 5.38355 12.2703 5.34722C11.6234 5.3109 10.9824 5.31675 10.3367 5.31675C9.68981 5.31675 9.04879 5.3109 8.40309 5.34722C7.65308 5.38355 6.98746 5.55465 6.43902 6.10308C5.88941 6.65269 5.71949 7.31714 5.68316 8.06714C5.64683 8.71402 5.65269 9.35503 5.65269 10.0007C5.65269 10.6464 5.64683 11.2886 5.68316 11.9343C5.71949 12.6843 5.89058 13.35 6.43902 13.8984C6.98863 14.448 7.65308 14.6179 8.40309 14.6543C9.04996 14.6906 9.69098 14.6847 10.3367 14.6847C10.9836 14.6847 11.6246 14.6906 12.2703 14.6543C13.0203 14.6179 13.6859 14.4468 14.2343 13.8984C14.784 13.3488 14.9539 12.6843 14.9902 11.9343C15.0277 11.2886 15.0207 10.6476 15.0207 10.0007ZM10.3355 12.4043C9.00543 12.4043 7.93199 11.3308 7.93199 10.0007C7.93199 8.67066 9.00543 7.59722 10.3355 7.59722C11.6656 7.59722 12.739 8.67066 12.739 10.0007C12.739 11.3308 11.6656 12.4043 10.3355 12.4043ZM12.8375 8.06011C12.5269 8.06011 12.2761 7.80933 12.2761 7.49879C12.2761 7.18824 12.5269 6.93746 12.8375 6.93746C13.148 6.93746 13.3988 7.18824 13.3988 7.49879C13.3989 7.57253 13.3844 7.64556 13.3563 7.71371C13.3281 7.78185 13.2867 7.84377 13.2346 7.89591C13.1824 7.94805 13.1205 7.9894 13.0524 8.01757C12.9842 8.04575 12.9112 8.06021 12.8375 8.06011Z" fill="white"/>
</svg>
