<svg width="21" height="20" viewBox="0 0 21 20" fill="none" xmlns="http://www.w3.org/2000/svg">
<circle cx="10.3359" cy="10" r="10" fill="#55ACEE"/>
<g clip-path="url(#clip0_1109_134902)">
<path d="M16.1725 7.26329C15.7898 7.43288 15.3787 7.54746 14.9465 7.59925C15.3925 7.33241 15.7261 6.91243 15.8852 6.41767C15.4662 6.66654 15.0076 6.84172 14.5294 6.93559C14.2078 6.59223 13.7819 6.36465 13.3177 6.28818C12.8536 6.2117 12.3771 6.29062 11.9624 6.51266C11.5477 6.73471 11.2179 7.08746 11.0242 7.51616C10.8305 7.94486 10.7837 8.42551 10.8912 8.8835C10.0422 8.84088 9.21166 8.62021 8.45349 8.23583C7.69531 7.85146 7.02643 7.31195 6.49025 6.65234C6.30692 6.96859 6.2015 7.33525 6.2015 7.72575C6.2013 8.07729 6.28787 8.42345 6.45353 8.73351C6.61919 9.04356 6.85882 9.30794 7.15117 9.50317C6.81213 9.49238 6.48057 9.40077 6.18408 9.23596V9.26346C6.18405 9.75651 6.3546 10.2344 6.66679 10.616C6.97899 10.9976 7.4136 11.2595 7.89688 11.3571C7.58236 11.4422 7.25261 11.4548 6.93254 11.3938C7.06889 11.818 7.3345 12.189 7.69217 12.4548C8.04984 12.7206 8.48167 12.8679 8.92721 12.876C8.17088 13.4698 7.23682 13.7918 6.27529 13.7904C6.10497 13.7905 5.93478 13.7805 5.76562 13.7606C6.74163 14.3882 7.87778 14.7212 9.03813 14.7199C12.966 14.7199 15.1133 11.4667 15.1133 8.64517C15.1133 8.5535 15.111 8.46092 15.1069 8.36925C15.5246 8.0672 15.8851 7.69316 16.1716 7.26467L16.1725 7.26329Z" fill="white"/>
</g>
<defs>
<clipPath id="clip0_1109_134902">
<rect width="11" height="11" fill="white" transform="translate(5.33594 5)"/>
</clipPath>
</defs>
</svg>
