<svg width="21" height="20" viewBox="0 0 21 20" fill="none" xmlns="http://www.w3.org/2000/svg">
<circle cx="10.3359" cy="10" r="10" fill="#0976B4"/>
<path fill-rule="evenodd" clip-rule="evenodd" d="M9.05044 7.4845H10.9074V8.4095C11.1749 7.8775 11.8609 7.3995 12.8914 7.3995C14.8669 7.3995 15.3359 8.4585 15.3359 10.4015V14H13.3359V10.844C13.3359 9.7375 13.0684 9.1135 12.3874 9.1135C11.4429 9.1135 11.0504 9.786 11.0504 10.8435V14H9.05044V7.4845ZM5.62094 13.915H7.62094V7.3995H5.62094V13.915ZM7.90744 5.275C7.90751 5.44264 7.87427 5.60862 7.80963 5.76329C7.745 5.91797 7.65026 6.05826 7.53094 6.176C7.28914 6.41631 6.96184 6.55083 6.62094 6.55C6.28063 6.54977 5.95409 6.4156 5.71194 6.1765C5.59304 6.05836 5.49863 5.91791 5.43411 5.76322C5.36959 5.60852 5.33623 5.44261 5.33594 5.275C5.33594 4.9365 5.47094 4.6125 5.71244 4.3735C5.95438 4.13408 6.28106 3.99985 6.62144 4C6.96244 4 7.28944 4.1345 7.53094 4.3735C7.77194 4.6125 7.90744 4.9365 7.90744 5.275Z" fill="white"/>
</svg>
