<svg width="86" height="84" viewBox="0 0 86 84" fill="none" xmlns="http://www.w3.org/2000/svg">
<rect width="86" height="84" fill="white"/>
<path d="M14.6423 61C14.5757 61 14.519 60.98 14.4723 60.94C14.4323 60.8933 14.4123 60.8367 14.4123 60.77V54.86H12.4823C12.4157 54.86 12.359 54.84 12.3123 54.8C12.2723 54.7533 12.2523 54.6967 12.2523 54.63V54.24C12.2523 54.1667 12.2723 54.11 12.3123 54.07C12.359 54.0233 12.4157 54 12.4823 54H17.2823C17.3557 54 17.4123 54.0233 17.4523 54.07C17.4923 54.11 17.5123 54.1667 17.5123 54.24V54.63C17.5123 54.6967 17.489 54.7533 17.4423 54.8C17.4023 54.84 17.349 54.86 17.2823 54.86H15.3623V60.77C15.3623 60.8367 15.339 60.8933 15.2923 60.94C15.2457 60.98 15.189 61 15.1223 61H14.6423ZM19.2259 61.1C18.8992 61.1 18.5959 61.0333 18.3159 60.9C18.0425 60.7667 17.8225 60.5867 17.6559 60.36C17.4959 60.1267 17.4159 59.87 17.4159 59.59C17.4159 59.15 17.5959 58.79 17.9559 58.51C18.3159 58.23 18.8059 58.0433 19.4259 57.95L20.9259 57.74V57.45C20.9259 56.7633 20.5292 56.42 19.7359 56.42C19.4292 56.42 19.1825 56.4833 18.9959 56.61C18.8092 56.73 18.6725 56.8733 18.5859 57.04C18.5592 57.1067 18.5292 57.1533 18.4959 57.18C18.4692 57.2 18.4292 57.21 18.3759 57.21H17.9859C17.9259 57.21 17.8725 57.19 17.8259 57.15C17.7859 57.1033 17.7659 57.05 17.7659 56.99C17.7659 56.8367 17.8359 56.66 17.9759 56.46C18.1225 56.2533 18.3459 56.0767 18.6459 55.93C18.9459 55.7767 19.3125 55.7 19.7459 55.7C20.4925 55.7 21.0259 55.8733 21.3459 56.22C21.6725 56.5667 21.8359 57 21.8359 57.52V60.77C21.8359 60.8367 21.8125 60.8933 21.7659 60.94C21.7259 60.98 21.6725 61 21.6059 61H21.1659C21.0992 61 21.0459 60.98 21.0059 60.94C20.9659 60.8933 20.9459 60.8367 20.9459 60.77V60.33C20.7992 60.55 20.5859 60.7333 20.3059 60.88C20.0259 61.0267 19.6659 61.1 19.2259 61.1ZM19.4259 60.37C19.8659 60.37 20.2259 60.2267 20.5059 59.94C20.7859 59.6533 20.9259 59.2367 20.9259 58.69V58.41L19.7559 58.58C19.2759 58.6467 18.9125 58.76 18.6659 58.92C18.4192 59.08 18.2959 59.28 18.2959 59.52C18.2959 59.7933 18.4059 60.0033 18.6259 60.15C18.8525 60.2967 19.1192 60.37 19.4259 60.37ZM23.6939 61C23.6272 61 23.5706 60.98 23.5239 60.94C23.4839 60.8933 23.4639 60.8367 23.4639 60.77V56.03C23.4639 55.9633 23.4839 55.91 23.5239 55.87C23.5706 55.8233 23.6272 55.8 23.6939 55.8H24.1139C24.1806 55.8 24.2339 55.8233 24.2739 55.87C24.3139 55.91 24.3339 55.9633 24.3339 56.03V56.37C24.6939 55.9233 25.1806 55.7 25.7939 55.7C26.5272 55.7 27.0472 56.0067 27.3539 56.62C27.5139 56.34 27.7406 56.1167 28.0339 55.95C28.3339 55.7833 28.6672 55.7 29.0339 55.7C29.5806 55.7 30.0272 55.8867 30.3739 56.26C30.7206 56.6333 30.8939 57.1733 30.8939 57.88V60.77C30.8939 60.8367 30.8706 60.8933 30.8239 60.94C30.7839 60.98 30.7306 61 30.6639 61H30.2339C30.1672 61 30.1106 60.98 30.0639 60.94C30.0239 60.8933 30.0039 60.8367 30.0039 60.77V57.97C30.0039 57.4367 29.8939 57.0567 29.6739 56.83C29.4539 56.5967 29.1639 56.48 28.8039 56.48C28.4839 56.48 28.2072 56.6 27.9739 56.84C27.7472 57.0733 27.6339 57.45 27.6339 57.97V60.77C27.6339 60.8367 27.6106 60.8933 27.5639 60.94C27.5239 60.98 27.4706 61 27.4039 61H26.9639C26.8972 61 26.8406 60.98 26.7939 60.94C26.7539 60.8933 26.7339 60.8367 26.7339 60.77V57.97C26.7339 57.4433 26.6172 57.0633 26.3839 56.83C26.1572 56.5967 25.8739 56.48 25.5339 56.48C25.2139 56.48 24.9372 56.5967 24.7039 56.83C24.4772 57.0633 24.3639 57.44 24.3639 57.96V60.77C24.3639 60.8367 24.3406 60.8933 24.2939 60.94C24.2539 60.98 24.2006 61 24.1339 61H23.6939ZM35.0609 61.1C34.3409 61.1 33.7909 60.8467 33.4109 60.34V60.77C33.4109 60.8367 33.3875 60.8933 33.3409 60.94C33.3009 60.98 33.2475 61 33.1809 61H32.7609C32.6942 61 32.6375 60.98 32.5909 60.94C32.5509 60.8933 32.5309 60.8367 32.5309 60.77V54.13C32.5309 54.0567 32.5509 54 32.5909 53.96C32.6375 53.92 32.6942 53.9 32.7609 53.9H33.2109C33.2775 53.9 33.3309 53.9233 33.3709 53.97C33.4175 54.01 33.4409 54.0633 33.4409 54.13V56.44C33.8142 55.9467 34.3542 55.7 35.0609 55.7C35.7609 55.7 36.2842 55.93 36.6309 56.39C36.9842 56.8433 37.1709 57.4133 37.1909 58.1C37.1975 58.1733 37.2009 58.2733 37.2009 58.4C37.2009 58.5267 37.1975 58.6267 37.1909 58.7C37.1709 59.3867 36.9842 59.96 36.6309 60.42C36.2842 60.8733 35.7609 61.1 35.0609 61.1ZM34.8709 60.32C35.3509 60.32 35.7009 60.17 35.9209 59.87C36.1409 59.57 36.2609 59.1767 36.2809 58.69C36.2875 58.6233 36.2909 58.5267 36.2909 58.4C36.2909 57.12 35.8175 56.48 34.8709 56.48C34.4175 56.48 34.0675 56.63 33.8209 56.93C33.5809 57.2233 33.4542 57.5733 33.4409 57.98C33.4342 58.0533 33.4309 58.1833 33.4309 58.37C33.4309 58.55 33.4342 58.6767 33.4409 58.75C33.4542 59.1767 33.5775 59.5467 33.8109 59.86C34.0509 60.1667 34.4042 60.32 34.8709 60.32ZM40.0784 61.1C39.7517 61.1 39.4484 61.0333 39.1684 60.9C38.895 60.7667 38.675 60.5867 38.5084 60.36C38.3484 60.1267 38.2684 59.87 38.2684 59.59C38.2684 59.15 38.4484 58.79 38.8084 58.51C39.1684 58.23 39.6584 58.0433 40.2784 57.95L41.7784 57.74V57.45C41.7784 56.7633 41.3817 56.42 40.5884 56.42C40.2817 56.42 40.035 56.4833 39.8484 56.61C39.6617 56.73 39.525 56.8733 39.4384 57.04C39.4117 57.1067 39.3817 57.1533 39.3484 57.18C39.3217 57.2 39.2817 57.21 39.2284 57.21H38.8384C38.7784 57.21 38.725 57.19 38.6784 57.15C38.6384 57.1033 38.6184 57.05 38.6184 56.99C38.6184 56.8367 38.6884 56.66 38.8284 56.46C38.975 56.2533 39.1984 56.0767 39.4984 55.93C39.7984 55.7767 40.165 55.7 40.5984 55.7C41.345 55.7 41.8784 55.8733 42.1984 56.22C42.525 56.5667 42.6884 57 42.6884 57.52V60.77C42.6884 60.8367 42.665 60.8933 42.6184 60.94C42.5784 60.98 42.525 61 42.4584 61H42.0184C41.9517 61 41.8984 60.98 41.8584 60.94C41.8184 60.8933 41.7984 60.8367 41.7984 60.77V60.33C41.6517 60.55 41.4384 60.7333 41.1584 60.88C40.8784 61.0267 40.5184 61.1 40.0784 61.1ZM40.2784 60.37C40.7184 60.37 41.0784 60.2267 41.3584 59.94C41.6384 59.6533 41.7784 59.2367 41.7784 58.69V58.41L40.6084 58.58C40.1284 58.6467 39.765 58.76 39.5184 58.92C39.2717 59.08 39.1484 59.28 39.1484 59.52C39.1484 59.7933 39.2584 60.0033 39.4784 60.15C39.705 60.2967 39.9717 60.37 40.2784 60.37ZM44.5564 61C44.4897 61 44.4331 60.98 44.3864 60.94C44.3464 60.8933 44.3264 60.8367 44.3264 60.77V54.13C44.3264 54.0567 44.3464 54 44.3864 53.96C44.4331 53.92 44.4897 53.9 44.5564 53.9H45.0164C45.0897 53.9 45.1464 53.92 45.1864 53.96C45.2264 54 45.2464 54.0567 45.2464 54.13V56.46C45.4397 56.2133 45.6664 56.0267 45.9264 55.9C46.1931 55.7667 46.5197 55.7 46.9064 55.7C47.5464 55.7 48.0431 55.9067 48.3964 56.32C48.7564 56.7267 48.9364 57.2667 48.9364 57.94V60.77C48.9364 60.8367 48.9131 60.8933 48.8664 60.94C48.8264 60.98 48.7731 61 48.7064 61H48.2364C48.1697 61 48.1131 60.98 48.0664 60.94C48.0264 60.8933 48.0064 60.8367 48.0064 60.77V58C48.0064 57.52 47.8897 57.1467 47.6564 56.88C47.4231 56.6133 47.0864 56.48 46.6464 56.48C46.2197 56.48 45.8797 56.6167 45.6264 56.89C45.3731 57.1567 45.2464 57.5267 45.2464 58V60.77C45.2464 60.8367 45.2231 60.8933 45.1764 60.94C45.1364 60.98 45.0831 61 45.0164 61H44.5564ZM53.5616 61C53.4949 61 53.4416 60.98 53.4016 60.94C53.3616 60.8933 53.3416 60.8367 53.3416 60.77V54.24C53.3416 54.1667 53.3616 54.11 53.4016 54.07C53.4416 54.0233 53.4949 54 53.5616 54H57.6216C57.6949 54 57.7516 54.0233 57.7916 54.07C57.8382 54.11 57.8616 54.1667 57.8616 54.24V54.61C57.8616 54.6767 57.8382 54.7333 57.7916 54.78C57.7516 54.82 57.6949 54.84 57.6216 54.84H54.2716V57.21H57.4216C57.4949 57.21 57.5516 57.2333 57.5916 57.28C57.6382 57.32 57.6616 57.3733 57.6616 57.44V57.82C57.6616 57.8867 57.6382 57.9433 57.5916 57.99C57.5449 58.03 57.4882 58.05 57.4216 58.05H54.2716V60.77C54.2716 60.8367 54.2482 60.8933 54.2016 60.94C54.1549 60.98 54.0982 61 54.0316 61H53.5616ZM61.2242 61.1C60.4909 61.1 59.9242 60.8933 59.5242 60.48C59.1309 60.0667 58.9209 59.5167 58.8942 58.83L58.8842 58.4L58.8942 57.97C58.9209 57.2833 59.1342 56.7333 59.5342 56.32C59.9409 55.9067 60.5042 55.7 61.2242 55.7C61.9442 55.7 62.5042 55.9067 62.9042 56.32C63.3109 56.7333 63.5276 57.2833 63.5542 57.97C63.5676 58.1167 63.5742 58.26 63.5742 58.4C63.5742 58.54 63.5676 58.6833 63.5542 58.83C63.5276 59.5167 63.3142 60.0667 62.9142 60.48C62.5209 60.8933 61.9576 61.1 61.2242 61.1ZM61.2242 60.35C61.6509 60.35 61.9876 60.2167 62.2342 59.95C62.4876 59.6767 62.6242 59.2867 62.6442 58.78C62.6509 58.7133 62.6542 58.5867 62.6542 58.4C62.6542 58.2133 62.6509 58.0867 62.6442 58.02C62.6242 57.5133 62.4876 57.1267 62.2342 56.86C61.9876 56.5867 61.6509 56.45 61.2242 56.45C60.7976 56.45 60.4576 56.5867 60.2042 56.86C59.9576 57.1267 59.8242 57.5133 59.8042 58.02L59.7942 58.4L59.8042 58.78C59.8242 59.2867 59.9576 59.6767 60.2042 59.95C60.4576 60.2167 60.7976 60.35 61.2242 60.35ZM66.968 61C65.9347 61 65.418 60.4167 65.418 59.25V56.57H64.628C64.5614 56.57 64.508 56.55 64.468 56.51C64.428 56.47 64.408 56.4167 64.408 56.35V56.03C64.408 55.9633 64.428 55.91 64.468 55.87C64.508 55.8233 64.5614 55.8 64.628 55.8H65.418V54.13C65.418 54.0633 65.438 54.01 65.478 53.97C65.518 53.9233 65.5714 53.9 65.638 53.9H66.078C66.1447 53.9 66.198 53.9233 66.238 53.97C66.2847 54.01 66.308 54.0633 66.308 54.13V55.8H67.548C67.6147 55.8 67.668 55.8233 67.708 55.87C67.7547 55.91 67.778 55.9633 67.778 56.03V56.35C67.778 56.4167 67.7547 56.47 67.708 56.51C67.668 56.55 67.6147 56.57 67.548 56.57H66.308V59.18C66.308 59.52 66.3614 59.7767 66.468 59.95C66.5814 60.1233 66.7714 60.21 67.038 60.21H67.648C67.7147 60.21 67.768 60.2333 67.808 60.28C67.848 60.32 67.868 60.3733 67.868 60.44V60.77C67.868 60.8367 67.848 60.8933 67.808 60.94C67.768 60.98 67.7147 61 67.648 61H66.968ZM71.135 61.1C70.4017 61.1 69.835 60.8933 69.435 60.48C69.0417 60.0667 68.8317 59.5167 68.805 58.83L68.795 58.4L68.805 57.97C68.8317 57.2833 69.045 56.7333 69.445 56.32C69.8517 55.9067 70.415 55.7 71.135 55.7C71.855 55.7 72.415 55.9067 72.815 56.32C73.2217 56.7333 73.4383 57.2833 73.465 57.97C73.4783 58.1167 73.485 58.26 73.485 58.4C73.485 58.54 73.4783 58.6833 73.465 58.83C73.4383 59.5167 73.225 60.0667 72.825 60.48C72.4317 60.8933 71.8683 61.1 71.135 61.1ZM71.135 60.35C71.5617 60.35 71.8983 60.2167 72.145 59.95C72.3983 59.6767 72.535 59.2867 72.555 58.78C72.5617 58.7133 72.565 58.5867 72.565 58.4C72.565 58.2133 72.5617 58.0867 72.555 58.02C72.535 57.5133 72.3983 57.1267 72.145 56.86C71.8983 56.5867 71.5617 56.45 71.135 56.45C70.7083 56.45 70.3683 56.5867 70.115 56.86C69.8683 57.1267 69.735 57.5133 69.715 58.02L69.705 58.4L69.715 58.78C69.735 59.2867 69.8683 59.6767 70.115 59.95C70.3683 60.2167 70.7083 60.35 71.135 60.35Z" fill="#999999"/>
<path d="M41.3011 39C41.1152 39 40.948 38.9345 40.7993 38.8034C40.6691 38.6536 40.6041 38.485 40.6041 38.2978V33.2135H35.697C35.5112 33.2135 35.3439 33.1479 35.1952 33.0169C35.0651 32.867 35 32.6985 35 32.5112V30.3483C35 30.1423 35.0651 29.9738 35.1952 29.8427C35.3253 29.6929 35.4926 29.618 35.697 29.618H40.6041V24.7022C40.6041 24.4963 40.6691 24.3277 40.7993 24.1966C40.948 24.0655 41.1152 24 41.3011 24H43.6989C43.9033 24 44.0706 24.0655 44.2007 24.1966C44.3494 24.3277 44.4238 24.4963 44.4238 24.7022V29.618H49.2751C49.4796 29.618 49.6468 29.6929 49.777 29.8427C49.9257 29.9738 50 30.1423 50 30.3483V32.5112C50 32.7172 49.9257 32.8858 49.777 33.0169C49.6468 33.1479 49.4796 33.2135 49.2751 33.2135H44.4238V38.2978C44.4238 38.5037 44.3494 38.6723 44.2007 38.8034C44.0706 38.9345 43.9033 39 43.6989 39H41.3011Z" fill="#999999"/>
</svg>
