<svg width="24" height="24" viewBox="0 0 24 24" fill="none" xmlns="http://www.w3.org/2000/svg">
<rect width="24" height="24" rx="5" fill="#E7E7E7"/>
<path d="M19.3142 7.47013C18.7763 7.70216 18.191 7.86915 17.5881 7.93419C18.214 7.5623 18.6828 6.97477 18.9064 6.28184C18.319 6.63128 17.6755 6.87631 17.0045 7.00606C16.724 6.70623 16.3848 6.46736 16.008 6.30436C15.6312 6.14135 15.2248 6.05769 14.8142 6.0586C13.1531 6.0586 11.8172 7.40509 11.8172 9.05743C11.8172 9.28946 11.8453 9.5215 11.891 9.74474C9.4037 9.61466 7.18535 8.42638 5.71055 6.60704C5.44182 7.06603 5.301 7.58865 5.30273 8.12052C5.30273 9.16114 5.83183 10.0787 6.63867 10.6184C6.16319 10.5996 5.69884 10.469 5.2834 10.2369V10.2738C5.2834 11.7311 6.31347 12.9387 7.68632 13.2164C7.42856 13.2834 7.16339 13.3176 6.89707 13.3184C6.70195 13.3184 6.51738 13.299 6.33105 13.2727C6.71074 14.461 7.8164 15.324 9.133 15.3522C8.10292 16.159 6.81269 16.6336 5.41172 16.6336C5.16035 16.6336 4.92832 16.6248 4.6875 16.5967C6.0164 17.4492 7.59316 17.9414 9.2912 17.9414C14.8037 17.9414 17.8201 13.3746 17.8201 9.41075C17.8201 9.28068 17.8201 9.1506 17.8113 9.02052C18.3949 8.59337 18.9064 8.06427 19.3142 7.47013Z" fill="#999999"/>
</svg>
