<svg width="86" height="84" viewBox="0 0 86 84" fill="none" xmlns="http://www.w3.org/2000/svg">
<rect width="86" height="84" fill="white"/>
<path d="M35 35L39.5858 30.4142C40.3668 29.6332 41.6332 29.6332 42.4142 30.4142L47 35M45 33L46.5858 31.4142C47.3668 30.6332 48.6332 30.6332 49.4142 31.4142L51 33M45 27H45.01M37 39H49C50.1046 39 51 38.1046 51 37V25C51 23.8954 50.1046 23 49 23H37C35.8954 23 35 23.8954 35 25V37C35 38.1046 35.8954 39 37 39Z" stroke="#999999" stroke-width="2" stroke-linecap="round" stroke-linejoin="round"/>
<path d="M17.6266 61.1C16.7666 61.1 16.1033 60.87 15.6366 60.41C15.1699 59.9433 14.9366 59.24 14.9366 58.3V54.24C14.9366 54.1667 14.9566 54.11 14.9966 54.07C15.0366 54.0233 15.0899 54 15.1566 54H15.6366C15.7099 54 15.7666 54.0233 15.8066 54.07C15.8533 54.11 15.8766 54.1667 15.8766 54.24V58.32C15.8766 58.9733 16.0266 59.46 16.3266 59.78C16.6333 60.1 17.0666 60.26 17.6266 60.26C18.1799 60.26 18.6066 60.1 18.9066 59.78C19.2133 59.4533 19.3666 58.9667 19.3666 58.32V54.24C19.3666 54.1667 19.3866 54.11 19.4266 54.07C19.4666 54.0233 19.5233 54 19.5966 54H20.0766C20.1433 54 20.1966 54.0233 20.2366 54.07C20.2833 54.11 20.3066 54.1667 20.3066 54.24V58.3C20.3066 59.24 20.0733 59.9433 19.6066 60.41C19.1466 60.87 18.4866 61.1 17.6266 61.1ZM22.2886 62.9C22.2219 62.9 22.1652 62.88 22.1186 62.84C22.0786 62.8 22.0586 62.7433 22.0586 62.67V56.03C22.0586 55.9567 22.0786 55.9 22.1186 55.86C22.1652 55.82 22.2219 55.8 22.2886 55.8H22.7086C22.7819 55.8 22.8386 55.82 22.8786 55.86C22.9186 55.9 22.9386 55.9567 22.9386 56.03V56.47C23.3252 55.9567 23.8752 55.7 24.5886 55.7C25.2886 55.7 25.8119 55.9233 26.1586 56.37C26.5119 56.81 26.6986 57.3733 26.7186 58.06C26.7252 58.1333 26.7286 58.2467 26.7286 58.4C26.7286 58.5533 26.7252 58.6667 26.7186 58.74C26.6986 59.42 26.5119 59.9833 26.1586 60.43C25.8119 60.8767 25.2886 61.1 24.5886 61.1C23.8752 61.1 23.3352 60.8467 22.9686 60.34V62.67C22.9686 62.7367 22.9452 62.79 22.8986 62.83C22.8586 62.8767 22.8052 62.9 22.7386 62.9H22.2886ZM24.3986 60.32C24.8786 60.32 25.2286 60.17 25.4486 59.87C25.6686 59.57 25.7886 59.1767 25.8086 58.69C25.8152 58.6233 25.8186 58.5267 25.8186 58.4C25.8186 57.12 25.3452 56.48 24.3986 56.48C23.9319 56.48 23.5786 56.6367 23.3386 56.95C23.1052 57.2567 22.9819 57.62 22.9686 58.04C22.9619 58.1133 22.9586 58.2433 22.9586 58.43C22.9586 58.6167 22.9619 58.7467 22.9686 58.82C22.9819 59.2267 23.1086 59.58 23.3486 59.88C23.5952 60.1733 23.9452 60.32 24.3986 60.32ZM28.4061 61C28.3394 61 28.2827 60.98 28.2361 60.94C28.1961 60.8933 28.1761 60.8367 28.1761 60.77V54.13C28.1761 54.0567 28.1961 54 28.2361 53.96C28.2827 53.92 28.3394 53.9 28.4061 53.9H28.8461C28.9127 53.9 28.9661 53.9233 29.0061 53.97C29.0527 54.01 29.0761 54.0633 29.0761 54.13V60.77C29.0761 60.8367 29.0527 60.8933 29.0061 60.94C28.9661 60.98 28.9127 61 28.8461 61H28.4061ZM32.8682 61.1C32.1348 61.1 31.5682 60.8933 31.1682 60.48C30.7748 60.0667 30.5648 59.5167 30.5382 58.83L30.5282 58.4L30.5382 57.97C30.5648 57.2833 30.7782 56.7333 31.1782 56.32C31.5848 55.9067 32.1482 55.7 32.8682 55.7C33.5882 55.7 34.1482 55.9067 34.5482 56.32C34.9548 56.7333 35.1715 57.2833 35.1982 57.97C35.2115 58.1167 35.2182 58.26 35.2182 58.4C35.2182 58.54 35.2115 58.6833 35.1982 58.83C35.1715 59.5167 34.9582 60.0667 34.5582 60.48C34.1648 60.8933 33.6015 61.1 32.8682 61.1ZM32.8682 60.35C33.2948 60.35 33.6315 60.2167 33.8782 59.95C34.1315 59.6767 34.2682 59.2867 34.2882 58.78C34.2948 58.7133 34.2982 58.5867 34.2982 58.4C34.2982 58.2133 34.2948 58.0867 34.2882 58.02C34.2682 57.5133 34.1315 57.1267 33.8782 56.86C33.6315 56.5867 33.2948 56.45 32.8682 56.45C32.4415 56.45 32.1015 56.5867 31.8482 56.86C31.6015 57.1267 31.4682 57.5133 31.4482 58.02L31.4382 58.4L31.4482 58.78C31.4682 59.2867 31.6015 59.6767 31.8482 59.95C32.1015 60.2167 32.4415 60.35 32.8682 60.35ZM38.1008 61.1C37.7742 61.1 37.4708 61.0333 37.1908 60.9C36.9175 60.7667 36.6975 60.5867 36.5308 60.36C36.3708 60.1267 36.2908 59.87 36.2908 59.59C36.2908 59.15 36.4708 58.79 36.8308 58.51C37.1908 58.23 37.6808 58.0433 38.3008 57.95L39.8008 57.74V57.45C39.8008 56.7633 39.4042 56.42 38.6108 56.42C38.3042 56.42 38.0575 56.4833 37.8708 56.61C37.6842 56.73 37.5475 56.8733 37.4608 57.04C37.4342 57.1067 37.4042 57.1533 37.3708 57.18C37.3442 57.2 37.3042 57.21 37.2508 57.21H36.8608C36.8008 57.21 36.7475 57.19 36.7008 57.15C36.6608 57.1033 36.6408 57.05 36.6408 56.99C36.6408 56.8367 36.7108 56.66 36.8508 56.46C36.9975 56.2533 37.2208 56.0767 37.5208 55.93C37.8208 55.7767 38.1875 55.7 38.6208 55.7C39.3675 55.7 39.9008 55.8733 40.2208 56.22C40.5475 56.5667 40.7108 57 40.7108 57.52V60.77C40.7108 60.8367 40.6875 60.8933 40.6408 60.94C40.6008 60.98 40.5475 61 40.4808 61H40.0408C39.9742 61 39.9208 60.98 39.8808 60.94C39.8408 60.8933 39.8208 60.8367 39.8208 60.77V60.33C39.6742 60.55 39.4608 60.7333 39.1808 60.88C38.9008 61.0267 38.5408 61.1 38.1008 61.1ZM38.3008 60.37C38.7408 60.37 39.1008 60.2267 39.3808 59.94C39.6608 59.6533 39.8008 59.2367 39.8008 58.69V58.41L38.6308 58.58C38.1508 58.6467 37.7875 58.76 37.5408 58.92C37.2942 59.08 37.1708 59.28 37.1708 59.52C37.1708 59.7933 37.2808 60.0033 37.5008 60.15C37.7275 60.2967 37.9942 60.37 38.3008 60.37ZM44.2389 61.1C43.5389 61.1 43.0122 60.8733 42.6589 60.42C42.3122 59.9667 42.1255 59.3933 42.0989 58.7L42.0889 58.4L42.0989 58.1C42.1255 57.4133 42.3155 56.8433 42.6689 56.39C43.0222 55.93 43.5455 55.7 44.2389 55.7C44.9322 55.7 45.4722 55.9467 45.8589 56.44V54.13C45.8589 54.0633 45.8789 54.01 45.9189 53.97C45.9655 53.9233 46.0222 53.9 46.0889 53.9H46.5389C46.6055 53.9 46.6589 53.9233 46.6989 53.97C46.7455 54.01 46.7689 54.0633 46.7689 54.13V60.77C46.7689 60.8367 46.7455 60.8933 46.6989 60.94C46.6589 60.98 46.6055 61 46.5389 61H46.1089C46.0422 61 45.9889 60.98 45.9489 60.94C45.9089 60.8933 45.8889 60.8367 45.8889 60.77V60.34C45.5089 60.8467 44.9589 61.1 44.2389 61.1ZM44.4289 60.32C44.8955 60.32 45.2455 60.1667 45.4789 59.86C45.7122 59.5467 45.8389 59.1767 45.8589 58.75C45.8655 58.6767 45.8689 58.55 45.8689 58.37C45.8689 58.1833 45.8655 58.0533 45.8589 57.98C45.8455 57.5733 45.7155 57.2233 45.4689 56.93C45.2289 56.63 44.8822 56.48 44.4289 56.48C43.9489 56.48 43.5989 56.63 43.3789 56.93C43.1589 57.23 43.0389 57.6233 43.0189 58.11L43.0089 58.4C43.0089 59.68 43.4822 60.32 44.4289 60.32ZM51.4473 61C51.3806 61 51.3273 60.98 51.2873 60.94C51.2473 60.8933 51.2273 60.8367 51.2273 60.77V54.24C51.2273 54.1667 51.2473 54.11 51.2873 54.07C51.3273 54.0233 51.3806 54 51.4473 54H55.5073C55.5806 54 55.6373 54.0233 55.6773 54.07C55.724 54.11 55.7473 54.1667 55.7473 54.24V54.61C55.7473 54.6767 55.724 54.7333 55.6773 54.78C55.6373 54.82 55.5806 54.84 55.5073 54.84H52.1573V57.21H55.3073C55.3806 57.21 55.4373 57.2333 55.4773 57.28C55.524 57.32 55.5473 57.3733 55.5473 57.44V57.82C55.5473 57.8867 55.524 57.9433 55.4773 57.99C55.4306 58.03 55.374 58.05 55.3073 58.05H52.1573V60.77C52.1573 60.8367 52.134 60.8933 52.0873 60.94C52.0406 60.98 51.984 61 51.9173 61H51.4473ZM59.11 61.1C58.3766 61.1 57.81 60.8933 57.41 60.48C57.0166 60.0667 56.8066 59.5167 56.78 58.83L56.77 58.4L56.78 57.97C56.8066 57.2833 57.02 56.7333 57.42 56.32C57.8266 55.9067 58.39 55.7 59.11 55.7C59.83 55.7 60.39 55.9067 60.79 56.32C61.1966 56.7333 61.4133 57.2833 61.44 57.97C61.4533 58.1167 61.46 58.26 61.46 58.4C61.46 58.54 61.4533 58.6833 61.44 58.83C61.4133 59.5167 61.2 60.0667 60.8 60.48C60.4066 60.8933 59.8433 61.1 59.11 61.1ZM59.11 60.35C59.5366 60.35 59.8733 60.2167 60.12 59.95C60.3733 59.6767 60.51 59.2867 60.53 58.78C60.5366 58.7133 60.54 58.5867 60.54 58.4C60.54 58.2133 60.5366 58.0867 60.53 58.02C60.51 57.5133 60.3733 57.1267 60.12 56.86C59.8733 56.5867 59.5366 56.45 59.11 56.45C58.6833 56.45 58.3433 56.5867 58.09 56.86C57.8433 57.1267 57.71 57.5133 57.69 58.02L57.68 58.4L57.69 58.78C57.71 59.2867 57.8433 59.6767 58.09 59.95C58.3433 60.2167 58.6833 60.35 59.11 60.35ZM64.8538 61C63.8205 61 63.3038 60.4167 63.3038 59.25V56.57H62.5138C62.4471 56.57 62.3938 56.55 62.3538 56.51C62.3138 56.47 62.2938 56.4167 62.2938 56.35V56.03C62.2938 55.9633 62.3138 55.91 62.3538 55.87C62.3938 55.8233 62.4471 55.8 62.5138 55.8H63.3038V54.13C63.3038 54.0633 63.3238 54.01 63.3638 53.97C63.4038 53.9233 63.4571 53.9 63.5238 53.9H63.9638C64.0305 53.9 64.0838 53.9233 64.1238 53.97C64.1705 54.01 64.1938 54.0633 64.1938 54.13V55.8H65.4338C65.5005 55.8 65.5538 55.8233 65.5938 55.87C65.6405 55.91 65.6638 55.9633 65.6638 56.03V56.35C65.6638 56.4167 65.6405 56.47 65.5938 56.51C65.5538 56.55 65.5005 56.57 65.4338 56.57H64.1938V59.18C64.1938 59.52 64.2471 59.7767 64.3538 59.95C64.4671 60.1233 64.6571 60.21 64.9238 60.21H65.5338C65.6005 60.21 65.6538 60.2333 65.6938 60.28C65.7338 60.32 65.7538 60.3733 65.7538 60.44V60.77C65.7538 60.8367 65.7338 60.8933 65.6938 60.94C65.6538 60.98 65.6005 61 65.5338 61H64.8538ZM69.0207 61.1C68.2874 61.1 67.7207 60.8933 67.3207 60.48C66.9274 60.0667 66.7174 59.5167 66.6907 58.83L66.6807 58.4L66.6907 57.97C66.7174 57.2833 66.9307 56.7333 67.3307 56.32C67.7374 55.9067 68.3007 55.7 69.0207 55.7C69.7407 55.7 70.3007 55.9067 70.7007 56.32C71.1074 56.7333 71.3241 57.2833 71.3507 57.97C71.3641 58.1167 71.3707 58.26 71.3707 58.4C71.3707 58.54 71.3641 58.6833 71.3507 58.83C71.3241 59.5167 71.1107 60.0667 70.7107 60.48C70.3174 60.8933 69.7541 61.1 69.0207 61.1ZM69.0207 60.35C69.4474 60.35 69.7841 60.2167 70.0307 59.95C70.2841 59.6767 70.4207 59.2867 70.4407 58.78C70.4474 58.7133 70.4507 58.5867 70.4507 58.4C70.4507 58.2133 70.4474 58.0867 70.4407 58.02C70.4207 57.5133 70.2841 57.1267 70.0307 56.86C69.7841 56.5867 69.4474 56.45 69.0207 56.45C68.5941 56.45 68.2541 56.5867 68.0007 56.86C67.7541 57.1267 67.6207 57.5133 67.6007 58.02L67.5907 58.4L67.6007 58.78C67.6207 59.2867 67.7541 59.6767 68.0007 59.95C68.2541 60.2167 68.5941 60.35 69.0207 60.35Z" fill="#999999"/>
</svg>
