<svg width="20" height="20" viewBox="0 0 20 20" fill="none" xmlns="http://www.w3.org/2000/svg">
<circle cx="10" cy="10" r="10" fill="#55ACEE"/>
<path d="M15.8366 7.26281C15.4539 7.43239 15.0428 7.54697 14.6106 7.59877C15.0565 7.33192 15.3902 6.91194 15.5492 6.41718C15.1302 6.66605 14.6717 6.84123 14.1935 6.9351C13.8719 6.59174 13.446 6.36416 12.9818 6.28769C12.5176 6.21122 12.0412 6.29013 11.6265 6.51217C11.2117 6.73422 10.8819 7.08697 10.6882 7.51567C10.4945 7.94437 10.4478 8.42503 10.5552 8.88301C9.70625 8.84039 8.87573 8.61973 8.11755 8.23535C7.35937 7.85097 6.69049 7.31146 6.15431 6.65185C5.97098 6.9681 5.86556 7.33477 5.86556 7.72527C5.86536 8.0768 5.95193 8.42296 6.11759 8.73302C6.28325 9.04308 6.52289 9.30745 6.81523 9.50268C6.47619 9.49189 6.14463 9.40028 5.84815 9.23547V9.26297C5.84811 9.75602 6.01866 10.2339 6.33085 10.6155C6.64305 10.9971 7.07766 11.259 7.56094 11.3566C7.24642 11.4418 6.91668 11.4543 6.5966 11.3933C6.73296 11.8175 6.99856 12.1885 7.35623 12.4543C7.7139 12.7201 8.14573 12.8674 8.59127 12.8756C7.83494 13.4693 6.90089 13.7913 5.93935 13.7899C5.76903 13.79 5.59885 13.78 5.42969 13.7601C6.4057 14.3877 7.54184 14.7207 8.70219 14.7194C12.6301 14.7194 14.7774 11.4662 14.7774 8.64468C14.7774 8.55301 14.7751 8.46043 14.771 8.36876C15.1887 8.06671 15.5492 7.69268 15.8357 7.26418L15.8366 7.26281V7.26281Z" fill="white"/>
</svg>
