<svg width="20" height="20" viewBox="0 0 20 20" fill="none" xmlns="http://www.w3.org/2000/svg">
<circle cx="10" cy="10" r="10" fill="#3F729B"/>
<path d="M9.99957 8.4379C9.13941 8.4379 8.43746 9.13985 8.43746 10C8.43746 10.8602 9.13941 11.5621 9.99957 11.5621C10.8597 11.5621 11.5617 10.8602 11.5617 10C11.5617 9.13985 10.8597 8.4379 9.99957 8.4379ZM14.6847 10C14.6847 9.35313 14.6906 8.71211 14.6543 8.06641C14.6179 7.31641 14.4468 6.65079 13.8984 6.10235C13.3488 5.55274 12.6843 5.38282 11.9343 5.34649C11.2875 5.31016 10.6464 5.31602 10.0007 5.31602C9.35387 5.31602 8.71285 5.31016 8.06715 5.34649C7.31715 5.38282 6.65152 5.55391 6.10308 6.10235C5.55347 6.65196 5.38355 7.31641 5.34722 8.06641C5.3109 8.71329 5.31675 9.3543 5.31675 10C5.31675 10.6457 5.3109 11.2879 5.34722 11.9336C5.38355 12.6836 5.55465 13.3492 6.10308 13.8977C6.65269 14.4473 7.31715 14.6172 8.06715 14.6535C8.71402 14.6898 9.35504 14.684 10.0007 14.684C10.6476 14.684 11.2886 14.6898 11.9343 14.6535C12.6843 14.6172 13.35 14.4461 13.8984 13.8977C14.448 13.348 14.6179 12.6836 14.6543 11.9336C14.6918 11.2879 14.6847 10.6469 14.6847 10V10ZM9.99957 12.4035C8.66949 12.4035 7.59605 11.3301 7.59605 10C7.59605 8.66993 8.66949 7.59649 9.99957 7.59649C11.3297 7.59649 12.4031 8.66993 12.4031 10C12.4031 11.3301 11.3297 12.4035 9.99957 12.4035ZM12.5015 8.05938C12.191 8.05938 11.9402 7.8086 11.9402 7.49805C11.9402 7.18751 12.191 6.93672 12.5015 6.93672C12.8121 6.93672 13.0629 7.18751 13.0629 7.49805C13.0629 7.57179 13.0485 7.64483 13.0203 7.71297C12.9921 7.78112 12.9508 7.84304 12.8987 7.89518C12.8465 7.94732 12.7846 7.98866 12.7164 8.01684C12.6483 8.04502 12.5753 8.05947 12.5015 8.05938V8.05938Z" fill="white"/>
</svg>
