<svg width="20" height="20" viewBox="0 0 20 20" fill="none" xmlns="http://www.w3.org/2000/svg">
<circle cx="10" cy="10" r="10" fill="#0976B4"/>
<path fill-rule="evenodd" clip-rule="evenodd" d="M8.7145 7.4845H10.5715V8.4095C10.839 7.8775 11.525 7.3995 12.5555 7.3995C14.531 7.3995 15 8.4585 15 10.4015V14H13V10.844C13 9.7375 12.7325 9.1135 12.0515 9.1135C11.107 9.1135 10.7145 9.786 10.7145 10.8435V14H8.7145V7.4845V7.4845ZM5.285 13.915H7.285V7.3995H5.285V13.915V13.915ZM7.5715 5.275C7.57157 5.44264 7.53833 5.60862 7.47369 5.76329C7.40906 5.91797 7.31433 6.05826 7.195 6.176C6.9532 6.41631 6.62591 6.55083 6.285 6.55C5.94469 6.54977 5.61816 6.4156 5.376 6.1765C5.25711 6.05836 5.16269 5.91791 5.09817 5.76322C5.03365 5.60852 5.00029 5.44261 5 5.275C5 4.9365 5.135 4.6125 5.3765 4.3735C5.61844 4.13408 5.94512 3.99985 6.2855 4C6.6265 4 6.9535 4.1345 7.195 4.3735C7.436 4.6125 7.5715 4.9365 7.5715 5.275Z" fill="white"/>
</svg>
